<?xml version="1.0" encoding="UTF-8"?>
<svg version="1.1" xmlns="http://www.w3.org/2000/svg" width="1056" height="992">
<path d="M0 0 C348.48 0 696.96 0 1056 0 C1056 327.36 1056 654.72 1056 992 C707.52 992 359.04 992 0 992 C0 664.64 0 337.28 0 0 Z " fill="#FDFEFD" transform="translate(0,0)"/>
<path d="M0 0 C5.63134887 2.46988986 11.60432041 4.18378958 17.44921875 6.07421875 C19.44989591 6.73885048 21.45014189 7.40478902 23.44921875 8.07421875 C23.44921875 8.73421875 23.44921875 9.39421875 23.44921875 10.07421875 C24.10921875 10.15671875 24.76921875 10.23921875 25.44921875 10.32421875 C29.43961038 11.32181666 32.83471518 13.14588558 36.44921875 15.07421875 C36.44921875 15.73421875 36.44921875 16.39421875 36.44921875 17.07421875 C37.62484375 17.29078125 37.62484375 17.29078125 38.82421875 17.51171875 C41.44921875 18.07421875 41.44921875 18.07421875 43.44921875 19.07421875 C43.44921875 19.73421875 43.44921875 20.39421875 43.44921875 21.07421875 C44.39796875 21.38359375 45.34671875 21.69296875 46.32421875 22.01171875 C49.44921875 23.07421875 49.44921875 23.07421875 51.44921875 24.07421875 C51.44921875 24.73421875 51.44921875 25.39421875 51.44921875 26.07421875 C52.14144531 26.31398437 52.83367187 26.55375 53.546875 26.80078125 C56.96711245 28.30145071 59.87709741 30.27008655 62.88671875 32.44921875 C63.49290039 32.88548584 64.09908203 33.32175293 64.72363281 33.77124023 C71.06459837 38.40923632 77.00172513 43.48289268 82.87988281 48.68847656 C84.28609861 49.93018174 85.70661231 51.15565053 87.12890625 52.37890625 C97.60506411 61.516258 106.51722972 71.67405878 114.44921875 83.07421875 C115.8220987 84.92995571 117.19711 86.78411773 118.57421875 88.63671875 C124.4748436 96.75875531 131.23748522 106.13236702 133.44921875 116.07421875 C134.10921875 116.07421875 134.76921875 116.07421875 135.44921875 116.07421875 C135.76375 116.84765625 136.07828125 117.62109375 136.40234375 118.41796875 C139.2373639 125.36358233 139.2373639 125.36358233 142.57421875 132.07421875 C144.70496272 136.18290434 145.5724647 140.44219541 146.59375 144.93359375 C147.47523193 148.16971921 148.68194644 151.02637909 150.07421875 154.07421875 C152.70291415 160.04206776 153.3228978 165.59739921 153.44921875 172.07421875 C154.10921875 172.07421875 154.76921875 172.07421875 155.44921875 172.07421875 C158.40826108 185.85499787 158.91636207 199.28137146 158.84033203 213.34985352 C158.82429035 216.87100239 158.84024251 220.39099572 158.859375 223.91210938 C158.87487968 240.60201943 157.25488241 256.46571935 153.89984131 272.79733276 C153.46645806 274.98711271 153.08930364 277.17848655 152.73828125 279.3828125 C151.58849383 286.59340187 150.2807006 293.31128324 147.5546875 300.12109375 C145.85689477 304.65654006 144.58677399 309.31155104 143.28759766 313.97460938 C142.32377526 317.36586576 141.27702263 320.60203777 139.84765625 323.828125 C138.71369014 326.46032008 138.05392206 328.47480066 137.63671875 331.26171875 C136.60996047 336.33511259 134.33912856 340.54656542 131.95703125 345.109375 C130.24988947 348.46616415 128.86698246 351.87100701 127.5078125 355.37890625 C123.92875441 364.49163718 119.93626194 373.3757869 115.44921875 382.07421875 C114.80133759 383.36485947 114.15543199 384.65649421 113.51171875 385.94921875 C110.82421875 391.32421875 108.13671875 396.69921875 105.44921875 402.07421875 C104.78921875 402.07421875 104.12921875 402.07421875 103.44921875 402.07421875 C103.36671875 402.75484375 103.28421875 403.43546875 103.19921875 404.13671875 C102.22589347 407.94890945 100.4911442 410.71492204 98.44921875 414.07421875 C97.78921875 414.07421875 97.12921875 414.07421875 96.44921875 414.07421875 C96.13984375 415.55921875 96.13984375 415.55921875 95.82421875 417.07421875 C94.69889463 421.00891849 92.69426782 423.65108577 90.171875 426.82421875 C86.07654165 432.17322558 82.35022717 437.98778932 79.44921875 444.07421875 C78.78921875 444.07421875 78.12921875 444.07421875 77.44921875 444.07421875 C77.18109375 444.79996094 76.91296875 445.52570313 76.63671875 446.2734375 C75.46251494 449.04285899 74.10978635 451.38341309 72.44921875 453.88671875 C71.93359375 454.67691406 71.41796875 455.46710938 70.88671875 456.28125 C70.17515625 457.16876953 70.17515625 457.16876953 69.44921875 458.07421875 C68.78921875 458.07421875 68.12921875 458.07421875 67.44921875 458.07421875 C67.24167969 458.73550781 67.03414062 459.39679688 66.8203125 460.078125 C64.94021965 464.18647604 62.29107932 467.46941212 59.51171875 471.01171875 C58.9305127 471.76098633 58.34930664 472.51025391 57.75048828 473.28222656 C56.55821571 474.81705385 55.36322844 476.34977619 54.16552734 477.88037109 C52.61427304 479.86324039 51.07126035 481.85214563 49.53125 483.84375 C40.86215596 495.0171458 31.78399011 505.76950291 22.15234375 516.125 C20.12874778 518.30695452 18.18120158 520.54345962 16.2421875 522.80078125 C11.88516975 527.79839773 7.20875613 532.46082332 2.51171875 537.13671875 C1.65642578 537.99587891 0.80113281 538.85503906 -0.08007812 539.74023438 C-5.07568348 544.72821867 -10.19672913 549.47631635 -15.55078125 554.07421875 C-17.20003909 555.57045267 -18.84641558 557.06987687 -20.48828125 558.57421875 C-33.25071693 570.07421875 -33.25071693 570.07421875 -36.55078125 570.07421875 C-36.55078125 570.73421875 -36.55078125 571.39421875 -36.55078125 572.07421875 C-38.27499552 573.2890726 -40.05713009 574.42240579 -41.86328125 575.51171875 C-45.14694854 577.49908863 -47.87462516 579.34588134 -50.55078125 582.07421875 C-53.44900669 583.93071256 -56.49627398 585.49111959 -59.55078125 587.07421875 C-60.28941406 587.47382812 -61.02804687 587.8734375 -61.7890625 588.28515625 C-68.11961166 591.45605299 -73.89400738 592.18831783 -80.8203125 590.53125 C-85.07786627 589.10153343 -87.41890468 587.30712359 -90.55078125 584.07421875 C-92.24171736 583.3588227 -93.93415776 582.64626459 -95.640625 581.96875 C-99.33148729 580.24030938 -102.38344333 577.60693523 -105.55078125 575.07421875 C-106.28941406 574.49800781 -107.02804687 573.92179688 -107.7890625 573.328125 C-119.92990304 563.77044202 -131.32156072 553.62316895 -142.18530273 542.64550781 C-144.00637212 540.80594416 -145.83555629 538.97474734 -147.66601562 537.14453125 C-152.96748798 531.82695917 -158.20845861 526.50626653 -163.08081055 520.78710938 C-164.58474662 519.03464043 -166.13803308 517.34352346 -167.71875 515.66015625 C-168.21955078 515.12648438 -168.72035156 514.5928125 -169.23632812 514.04296875 C-170.24704412 512.97047948 -171.26011206 511.90020235 -172.27539062 510.83203125 C-175.43989939 507.44998816 -178.04178815 503.98737718 -180.55078125 500.07421875 C-183.53277263 495.99285247 -183.53277263 495.99285247 -187.55078125 493.07421875 C-188.56429789 491.41573698 -189.56136474 489.74718999 -190.55078125 488.07421875 C-192.09181812 486.01037897 -193.64775556 483.97374598 -195.23828125 481.94921875 C-198.57676276 477.64957515 -201.88428222 473.33226436 -205.11328125 468.94921875 C-205.75394531 468.08039063 -206.39460938 467.2115625 -207.0546875 466.31640625 C-208.55078125 464.07421875 -208.55078125 464.07421875 -209.55078125 461.07421875 C-210.21078125 461.07421875 -210.87078125 461.07421875 -211.55078125 461.07421875 C-211.87691406 460.4709375 -212.20304687 459.86765625 -212.5390625 459.24609375 C-212.97605469 458.446875 -213.41304688 457.64765625 -213.86328125 456.82421875 C-214.29253906 456.0353125 -214.72179687 455.24640625 -215.1640625 454.43359375 C-216.50422965 452.04248901 -216.50422965 452.04248901 -218.21875 449.90234375 C-219.55078125 448.07421875 -219.55078125 448.07421875 -219.55078125 446.07421875 C-220.21078125 446.07421875 -220.87078125 446.07421875 -221.55078125 446.07421875 C-223.27734375 443.51953125 -223.27734375 443.51953125 -225.17578125 440.19921875 C-225.80742187 439.10867188 -226.4390625 438.018125 -227.08984375 436.89453125 C-228.55078125 434.07421875 -228.55078125 434.07421875 -228.55078125 432.07421875 C-229.21078125 432.07421875 -229.87078125 432.07421875 -230.55078125 432.07421875 C-231.22233058 430.78508388 -231.88786984 429.49281671 -232.55078125 428.19921875 C-232.92203125 427.47992187 -233.29328125 426.760625 -233.67578125 426.01953125 C-234.55078125 424.07421875 -234.55078125 424.07421875 -234.55078125 422.07421875 C-235.50984375 421.76484375 -235.50984375 421.76484375 -236.48828125 421.44921875 C-238.55078125 420.07421875 -238.55078125 420.07421875 -239.30078125 416.94921875 C-239.38328125 416.00046875 -239.46578125 415.05171875 -239.55078125 414.07421875 C-240.21078125 414.07421875 -240.87078125 414.07421875 -241.55078125 414.07421875 C-242.88897623 411.45159555 -244.22149635 408.82635276 -245.55078125 406.19921875 C-245.93234375 405.45285156 -246.31390625 404.70648437 -246.70703125 403.9375 C-247.06796875 403.22207031 -247.42890625 402.50664063 -247.80078125 401.76953125 C-248.30351562 400.77977295 -248.30351562 400.77977295 -248.81640625 399.77001953 C-249.55078125 398.07421875 -249.55078125 398.07421875 -249.55078125 396.07421875 C-250.21078125 396.07421875 -250.87078125 396.07421875 -251.55078125 396.07421875 C-254.55078125 389.44921875 -254.55078125 389.44921875 -254.55078125 386.07421875 C-255.54078125 385.74421875 -256.53078125 385.41421875 -257.55078125 385.07421875 C-257.55078125 383.75421875 -257.55078125 382.43421875 -257.55078125 381.07421875 C-258.21078125 381.07421875 -258.87078125 381.07421875 -259.55078125 381.07421875 C-260.36620556 378.99202826 -261.17801314 376.90842114 -261.98828125 374.82421875 C-262.66697266 373.08398438 -262.66697266 373.08398438 -263.359375 371.30859375 C-264.25228758 368.88455567 -265.0087249 366.591354 -265.55078125 364.07421875 C-266.21078125 364.07421875 -266.87078125 364.07421875 -267.55078125 364.07421875 C-268.22383143 362.47271989 -268.88900352 360.86790846 -269.55078125 359.26171875 C-269.92203125 358.36839844 -270.29328125 357.47507812 -270.67578125 356.5546875 C-271.55078125 354.07421875 -271.55078125 354.07421875 -271.55078125 351.07421875 C-272.21078125 351.07421875 -272.87078125 351.07421875 -273.55078125 351.07421875 C-273.84082031 350.18669922 -273.84082031 350.18669922 -274.13671875 349.28125 C-275.25815712 345.87807317 -276.36977563 342.51244288 -277.73828125 339.19921875 C-278.55078125 337.07421875 -278.55078125 337.07421875 -278.55078125 334.07421875 C-279.21078125 334.07421875 -279.87078125 334.07421875 -280.55078125 334.07421875 C-281.65736119 331.09594307 -282.76058659 328.1164349 -283.86328125 325.13671875 C-284.17201172 324.30591797 -284.48074219 323.47511719 -284.79882812 322.61914062 C-287.83912112 314.39434799 -290.58210441 306.13064282 -292.98828125 297.69921875 C-294.3736588 292.88285893 -295.83346583 288.17750609 -297.67578125 283.51171875 C-299.62328178 278.3838242 -300.60810034 273.20929425 -301.51220703 267.81811523 C-302.04189335 264.67038915 -302.67124295 261.66344898 -303.5703125 258.59765625 C-304.65284214 254.70745013 -305.17816324 250.95230441 -305.61328125 246.94921875 C-306.16037642 241.81974636 -306.16037642 241.81974636 -307.06713867 236.74633789 C-311.25014855 213.63526111 -306.30656586 188.0515605 -301.17578125 165.57421875 C-300.89597412 164.34566162 -300.61616699 163.11710449 -300.32788086 161.85131836 C-297.17436214 148.62081309 -292.48431424 136.29279735 -286.55078125 124.07421875 C-286.26364258 123.46884277 -285.97650391 122.8634668 -285.68066406 122.23974609 C-277.9926664 106.03677156 -268.86755209 90.99828484 -257.55078125 77.07421875 C-256.82375 76.15511719 -256.09671875 75.23601562 -255.34765625 74.2890625 C-231.97309913 45.0708661 -202.15460113 21.4672923 -167.55078125 7.07421875 C-166.0064944 6.37161619 -164.46430712 5.66434837 -162.92578125 4.94921875 C-157.5468677 2.56422878 -152.02235637 0.59409834 -146.44873047 -1.28466797 C-144.6152522 -1.90400344 -142.78794838 -2.54152592 -140.9609375 -3.1796875 C-99.6306998 -16.95104975 -40.07591609 -19.3127748 0 0 Z " fill="#F7998E" transform="translate(601.55078125,206.92578125)"/>
<path d="M0 0 C5.63134887 2.46988986 11.60432041 4.18378958 17.44921875 6.07421875 C19.44989591 6.73885048 21.45014189 7.40478902 23.44921875 8.07421875 C23.44921875 8.73421875 23.44921875 9.39421875 23.44921875 10.07421875 C24.10921875 10.15671875 24.76921875 10.23921875 25.44921875 10.32421875 C29.43961038 11.32181666 32.83471518 13.14588558 36.44921875 15.07421875 C36.44921875 15.73421875 36.44921875 16.39421875 36.44921875 17.07421875 C37.62484375 17.29078125 37.62484375 17.29078125 38.82421875 17.51171875 C41.44921875 18.07421875 41.44921875 18.07421875 43.44921875 19.07421875 C43.44921875 19.73421875 43.44921875 20.39421875 43.44921875 21.07421875 C44.39796875 21.38359375 45.34671875 21.69296875 46.32421875 22.01171875 C49.44921875 23.07421875 49.44921875 23.07421875 51.44921875 24.07421875 C51.44921875 24.73421875 51.44921875 25.39421875 51.44921875 26.07421875 C52.14144531 26.31398437 52.83367187 26.55375 53.546875 26.80078125 C56.96711245 28.30145071 59.87709741 30.27008655 62.88671875 32.44921875 C63.49290039 32.88548584 64.09908203 33.32175293 64.72363281 33.77124023 C71.06459837 38.40923632 77.00172513 43.48289268 82.87988281 48.68847656 C84.28609861 49.93018174 85.70661231 51.15565053 87.12890625 52.37890625 C97.60506411 61.516258 106.51722972 71.67405878 114.44921875 83.07421875 C115.8220987 84.92995571 117.19711 86.78411773 118.57421875 88.63671875 C124.4748436 96.75875531 131.23748522 106.13236702 133.44921875 116.07421875 C134.10921875 116.07421875 134.76921875 116.07421875 135.44921875 116.07421875 C135.76375 116.84765625 136.07828125 117.62109375 136.40234375 118.41796875 C139.2373639 125.36358233 139.2373639 125.36358233 142.57421875 132.07421875 C144.70496272 136.18290434 145.5724647 140.44219541 146.59375 144.93359375 C147.47523193 148.16971921 148.68194644 151.02637909 150.07421875 154.07421875 C152.70291415 160.04206776 153.3228978 165.59739921 153.44921875 172.07421875 C154.10921875 172.07421875 154.76921875 172.07421875 155.44921875 172.07421875 C158.40826108 185.85499787 158.91636207 199.28137146 158.84033203 213.34985352 C158.82429035 216.87100239 158.84024251 220.39099572 158.859375 223.91210938 C158.87487968 240.60201943 157.25488241 256.46571935 153.89984131 272.79733276 C153.46645806 274.98711271 153.08930364 277.17848655 152.73828125 279.3828125 C151.58849383 286.59340187 150.2807006 293.31128324 147.5546875 300.12109375 C145.85689477 304.65654006 144.58677399 309.31155104 143.28759766 313.97460938 C142.32377526 317.36586576 141.27702263 320.60203777 139.84765625 323.828125 C138.71369014 326.46032008 138.05392206 328.47480066 137.63671875 331.26171875 C136.60996047 336.33511259 134.33912856 340.54656542 131.95703125 345.109375 C130.24988947 348.46616415 128.86698246 351.87100701 127.5078125 355.37890625 C123.92875441 364.49163718 119.93626194 373.3757869 115.44921875 382.07421875 C114.80133759 383.36485947 114.15543199 384.65649421 113.51171875 385.94921875 C110.82421875 391.32421875 108.13671875 396.69921875 105.44921875 402.07421875 C104.78921875 402.07421875 104.12921875 402.07421875 103.44921875 402.07421875 C103.36671875 402.75484375 103.28421875 403.43546875 103.19921875 404.13671875 C102.22589347 407.94890945 100.4911442 410.71492204 98.44921875 414.07421875 C97.78921875 414.07421875 97.12921875 414.07421875 96.44921875 414.07421875 C96.13984375 415.55921875 96.13984375 415.55921875 95.82421875 417.07421875 C94.69889463 421.00891849 92.69426782 423.65108577 90.171875 426.82421875 C86.07654165 432.17322558 82.35022717 437.98778932 79.44921875 444.07421875 C78.78921875 444.07421875 78.12921875 444.07421875 77.44921875 444.07421875 C77.18109375 444.79996094 76.91296875 445.52570313 76.63671875 446.2734375 C75.46251494 449.04285899 74.10978635 451.38341309 72.44921875 453.88671875 C71.93359375 454.67691406 71.41796875 455.46710938 70.88671875 456.28125 C70.17515625 457.16876953 70.17515625 457.16876953 69.44921875 458.07421875 C68.78921875 458.07421875 68.12921875 458.07421875 67.44921875 458.07421875 C67.24167969 458.73550781 67.03414062 459.39679688 66.8203125 460.078125 C64.94021965 464.18647604 62.29107932 467.46941212 59.51171875 471.01171875 C58.9305127 471.76098633 58.34930664 472.51025391 57.75048828 473.28222656 C56.55821571 474.81705385 55.36322844 476.34977619 54.16552734 477.88037109 C52.61427304 479.86324039 51.07126035 481.85214563 49.53125 483.84375 C40.86215596 495.0171458 31.78399011 505.76950291 22.15234375 516.125 C20.12874778 518.30695452 18.18120158 520.54345962 16.2421875 522.80078125 C11.88516975 527.79839773 7.20875613 532.46082332 2.51171875 537.13671875 C1.65642578 537.99587891 0.80113281 538.85503906 -0.08007812 539.74023438 C-5.07568348 544.72821867 -10.19672913 549.47631635 -15.55078125 554.07421875 C-17.20003909 555.57045267 -18.84641558 557.06987687 -20.48828125 558.57421875 C-33.25071693 570.07421875 -33.25071693 570.07421875 -36.55078125 570.07421875 C-36.55078125 570.73421875 -36.55078125 571.39421875 -36.55078125 572.07421875 C-38.27499552 573.2890726 -40.05713009 574.42240579 -41.86328125 575.51171875 C-45.14694854 577.49908863 -47.87462516 579.34588134 -50.55078125 582.07421875 C-53.44900669 583.93071256 -56.49627398 585.49111959 -59.55078125 587.07421875 C-60.28941406 587.47382812 -61.02804687 587.8734375 -61.7890625 588.28515625 C-68.11961166 591.45605299 -73.89400738 592.18831783 -80.8203125 590.53125 C-85.07786627 589.10153343 -87.41890468 587.30712359 -90.55078125 584.07421875 C-92.24171736 583.3588227 -93.93415776 582.64626459 -95.640625 581.96875 C-99.33148729 580.24030938 -102.38344333 577.60693523 -105.55078125 575.07421875 C-106.28941406 574.49800781 -107.02804687 573.92179688 -107.7890625 573.328125 C-119.92990304 563.77044202 -131.32156072 553.62316895 -142.18530273 542.64550781 C-144.00637212 540.80594416 -145.83555629 538.97474734 -147.66601562 537.14453125 C-152.96748798 531.82695917 -158.20845861 526.50626653 -163.08081055 520.78710938 C-164.58474662 519.03464043 -166.13803308 517.34352346 -167.71875 515.66015625 C-168.21955078 515.12648438 -168.72035156 514.5928125 -169.23632812 514.04296875 C-170.24704412 512.97047948 -171.26011206 511.90020235 -172.27539062 510.83203125 C-175.43989939 507.44998816 -178.04178815 503.98737718 -180.55078125 500.07421875 C-183.53277263 495.99285247 -183.53277263 495.99285247 -187.55078125 493.07421875 C-188.56429789 491.41573698 -189.56136474 489.74718999 -190.55078125 488.07421875 C-192.09181812 486.01037897 -193.64775556 483.97374598 -195.23828125 481.94921875 C-198.57676276 477.64957515 -201.88428222 473.33226436 -205.11328125 468.94921875 C-205.75394531 468.08039063 -206.39460938 467.2115625 -207.0546875 466.31640625 C-208.55078125 464.07421875 -208.55078125 464.07421875 -209.55078125 461.07421875 C-210.21078125 461.07421875 -210.87078125 461.07421875 -211.55078125 461.07421875 C-211.87691406 460.4709375 -212.20304687 459.86765625 -212.5390625 459.24609375 C-212.97605469 458.446875 -213.41304688 457.64765625 -213.86328125 456.82421875 C-214.29253906 456.0353125 -214.72179687 455.24640625 -215.1640625 454.43359375 C-216.50422965 452.04248901 -216.50422965 452.04248901 -218.21875 449.90234375 C-219.55078125 448.07421875 -219.55078125 448.07421875 -219.55078125 446.07421875 C-220.21078125 446.07421875 -220.87078125 446.07421875 -221.55078125 446.07421875 C-223.27734375 443.51953125 -223.27734375 443.51953125 -225.17578125 440.19921875 C-225.80742187 439.10867188 -226.4390625 438.018125 -227.08984375 436.89453125 C-228.55078125 434.07421875 -228.55078125 434.07421875 -228.55078125 432.07421875 C-229.21078125 432.07421875 -229.87078125 432.07421875 -230.55078125 432.07421875 C-231.22233058 430.78508388 -231.88786984 429.49281671 -232.55078125 428.19921875 C-232.92203125 427.47992187 -233.29328125 426.760625 -233.67578125 426.01953125 C-234.55078125 424.07421875 -234.55078125 424.07421875 -234.55078125 422.07421875 C-235.50984375 421.76484375 -235.50984375 421.76484375 -236.48828125 421.44921875 C-238.55078125 420.07421875 -238.55078125 420.07421875 -239.30078125 416.94921875 C-239.38328125 416.00046875 -239.46578125 415.05171875 -239.55078125 414.07421875 C-240.21078125 414.07421875 -240.87078125 414.07421875 -241.55078125 414.07421875 C-242.88897623 411.45159555 -244.22149635 408.82635276 -245.55078125 406.19921875 C-245.93234375 405.45285156 -246.31390625 404.70648437 -246.70703125 403.9375 C-247.06796875 403.22207031 -247.42890625 402.50664063 -247.80078125 401.76953125 C-248.30351562 400.77977295 -248.30351562 400.77977295 -248.81640625 399.77001953 C-249.55078125 398.07421875 -249.55078125 398.07421875 -249.55078125 396.07421875 C-250.21078125 396.07421875 -250.87078125 396.07421875 -251.55078125 396.07421875 C-254.55078125 389.44921875 -254.55078125 389.44921875 -254.55078125 386.07421875 C-255.54078125 385.74421875 -256.53078125 385.41421875 -257.55078125 385.07421875 C-257.55078125 383.75421875 -257.55078125 382.43421875 -257.55078125 381.07421875 C-258.21078125 381.07421875 -258.87078125 381.07421875 -259.55078125 381.07421875 C-260.36620556 378.99202826 -261.17801314 376.90842114 -261.98828125 374.82421875 C-262.66697266 373.08398438 -262.66697266 373.08398438 -263.359375 371.30859375 C-264.25228758 368.88455567 -265.0087249 366.591354 -265.55078125 364.07421875 C-266.21078125 364.07421875 -266.87078125 364.07421875 -267.55078125 364.07421875 C-268.22383143 362.47271989 -268.88900352 360.86790846 -269.55078125 359.26171875 C-269.92203125 358.36839844 -270.29328125 357.47507812 -270.67578125 356.5546875 C-271.55078125 354.07421875 -271.55078125 354.07421875 -271.55078125 351.07421875 C-272.21078125 351.07421875 -272.87078125 351.07421875 -273.55078125 351.07421875 C-273.84082031 350.18669922 -273.84082031 350.18669922 -274.13671875 349.28125 C-275.25815712 345.87807317 -276.36977563 342.51244288 -277.73828125 339.19921875 C-278.55078125 337.07421875 -278.55078125 337.07421875 -278.55078125 334.07421875 C-279.21078125 334.07421875 -279.87078125 334.07421875 -280.55078125 334.07421875 C-281.65736119 331.09594307 -282.76058659 328.1164349 -283.86328125 325.13671875 C-284.17201172 324.30591797 -284.48074219 323.47511719 -284.79882812 322.61914062 C-287.83912112 314.39434799 -290.58210441 306.13064282 -292.98828125 297.69921875 C-294.3736588 292.88285893 -295.83346583 288.17750609 -297.67578125 283.51171875 C-299.62328178 278.3838242 -300.60810034 273.20929425 -301.51220703 267.81811523 C-302.04189335 264.67038915 -302.67124295 261.66344898 -303.5703125 258.59765625 C-304.65284214 254.70745013 -305.17816324 250.95230441 -305.61328125 246.94921875 C-306.16037642 241.81974636 -306.16037642 241.81974636 -307.06713867 236.74633789 C-311.25014855 213.63526111 -306.30656586 188.0515605 -301.17578125 165.57421875 C-300.89597412 164.34566162 -300.61616699 163.11710449 -300.32788086 161.85131836 C-297.17436214 148.62081309 -292.48431424 136.29279735 -286.55078125 124.07421875 C-286.26364258 123.46884277 -285.97650391 122.8634668 -285.68066406 122.23974609 C-277.9926664 106.03677156 -268.86755209 90.99828484 -257.55078125 77.07421875 C-256.82375 76.15511719 -256.09671875 75.23601562 -255.34765625 74.2890625 C-231.97309913 45.0708661 -202.15460113 21.4672923 -167.55078125 7.07421875 C-166.0064944 6.37161619 -164.46430712 5.66434837 -162.92578125 4.94921875 C-157.5468677 2.56422878 -152.02235637 0.59409834 -146.44873047 -1.28466797 C-144.6152522 -1.90400344 -142.78794838 -2.54152592 -140.9609375 -3.1796875 C-99.6306998 -16.95104975 -40.07591609 -19.3127748 0 0 Z M-142.55078125 16.07421875 C-142.55078125 16.73421875 -142.55078125 17.39421875 -142.55078125 18.07421875 C-144.28328125 18.44546875 -144.28328125 18.44546875 -146.05078125 18.82421875 C-149.1704389 19.58900255 -151.78737372 20.61592703 -154.61328125 22.13671875 C-158.30884898 24.10524889 -161.39208095 24.72766039 -165.55078125 25.07421875 C-165.55078125 25.73421875 -165.55078125 26.39421875 -165.55078125 27.07421875 C-167.20078125 27.40421875 -168.85078125 27.73421875 -170.55078125 28.07421875 C-170.55078125 28.73421875 -170.55078125 29.39421875 -170.55078125 30.07421875 C-171.16099121 30.22624756 -171.77120117 30.37827637 -172.39990234 30.53491211 C-179.01586503 32.3298769 -184.40224106 34.98142417 -190.17578125 38.63671875 C-190.98917969 39.13107422 -191.80257812 39.62542969 -192.640625 40.13476562 C-195.67590065 41.99044976 -195.67590065 41.99044976 -198.55078125 44.07421875 C-198.55078125 44.73421875 -198.55078125 45.39421875 -198.55078125 46.07421875 C-199.11796875 46.33332031 -199.68515625 46.59242188 -200.26953125 46.859375 C-214.20982613 54.28305943 -236.14998148 73.90125858 -243.55078125 88.07421875 C-243.285278 90.22902773 -243.10016006 91.52483994 -241.55078125 93.07421875 C-239.55119761 93.11502658 -237.55032871 93.11676231 -235.55078125 93.07421875 C-235.88078125 95.05421875 -236.21078125 97.03421875 -236.55078125 99.07421875 C-237.21078125 99.07421875 -237.87078125 99.07421875 -238.55078125 99.07421875 C-242.75269973 107.50166199 -246.29421966 115.60628157 -248.62890625 124.7578125 C-249.55078125 128.07421875 -249.55078125 128.07421875 -251.01025391 131.74487305 C-252.61917631 135.99823799 -253.43862945 140.17656778 -254.12109375 144.66015625 C-254.2476535 145.44315094 -254.37421326 146.22614563 -254.50460815 147.03286743 C-254.90282871 149.50380981 -255.28994832 151.97631458 -255.67578125 154.44921875 C-256.07053196 156.94321624 -256.46765892 159.43679448 -256.86837769 161.92984009 C-257.11600471 163.47396274 -257.35989348 165.01869056 -257.59963989 166.5640564 C-258.43962105 171.85189835 -258.43962105 171.85189835 -259.55078125 174.07421875 C-261.30274641 201.39822224 -259.55776422 230.21036389 -250.796875 256.3125 C-249.63741061 259.81270128 -248.662768 263.30963767 -247.72729492 266.87329102 C-243.84406396 281.58324783 -237.67574201 295.22407127 -231.44555664 309.06225586 C-230.58044871 311.00750947 -229.74121454 312.9618706 -228.91015625 314.921875 C-227.65254349 317.83823563 -226.36690224 320.46847994 -224.55078125 323.07421875 C-223.89078125 323.07421875 -223.23078125 323.07421875 -222.55078125 323.07421875 C-222.40962891 324.13962891 -222.40962891 324.13962891 -222.265625 325.2265625 C-221.4270382 328.56716239 -220.02475704 330.77943997 -218.11328125 333.63671875 C-216.06393505 336.72143401 -214.12256145 339.71740175 -212.55078125 343.07421875 C-211.89078125 343.07421875 -211.23078125 343.07421875 -210.55078125 343.07421875 C-210.46828125 343.61046875 -210.38578125 344.14671875 -210.30078125 344.69921875 C-209.10280316 348.49281603 -206.9242818 351.75794739 -204.05078125 354.51171875 C-202.15676102 356.48465649 -201.03815924 358.73425677 -199.80859375 361.16015625 C-198.05384581 363.83042486 -195.83560481 365.84052411 -193.55078125 368.07421875 C-191.2593047 370.49252979 -189.00203953 372.94247371 -186.73828125 375.38671875 C-184.34592163 377.95247844 -181.949145 380.51407188 -179.55078125 383.07421875 C-178.720625 383.96109375 -177.89046875 384.84796875 -177.03515625 385.76171875 C-176.3596875 386.46296875 -175.68421875 387.16421875 -174.98828125 387.88671875 C-174.43011719 388.47066406 -173.87195313 389.05460937 -173.296875 389.65625 C-171.2018365 391.35758999 -169.04839249 392.08918725 -166.55078125 393.07421875 C-165.23828125 395.19921875 -165.23828125 395.19921875 -164.55078125 397.07421875 C-163.89078125 397.07421875 -163.23078125 397.07421875 -162.55078125 397.07421875 C-162.05578125 398.55921875 -162.05578125 398.55921875 -161.55078125 400.07421875 C-159.90237156 401.0807698 -158.24538214 402.07659198 -156.54345703 402.98974609 C-154.58901416 404.05341128 -152.72885264 405.20037502 -150.859375 406.40625 C-142.31510997 411.88880177 -133.76315088 416.77511292 -124.55078125 421.07421875 C-123.49117187 421.59757812 -122.4315625 422.1209375 -121.33984375 422.66015625 C-110.83925263 427.57373452 -99.88140508 429.87360671 -88.55078125 432.07421875 C-86.70613281 432.44740234 -86.70613281 432.44740234 -84.82421875 432.828125 C-48.9489238 438.83534652 -11.83664056 431.35512521 20.1484375 414.74609375 C23.44921875 413.07421875 23.44921875 413.07421875 26.44921875 412.07421875 C26.44921875 411.41421875 26.44921875 410.75421875 26.44921875 410.07421875 C28.09921875 409.74421875 29.74921875 409.41421875 31.44921875 409.07421875 C31.44921875 408.41421875 31.44921875 407.75421875 31.44921875 407.07421875 C32.16464844 406.81640625 32.88007812 406.55859375 33.6171875 406.29296875 C36.62081986 405.0003711 39.08427247 403.44644785 41.76171875 401.57421875 C42.64472656 400.96578125 43.52773438 400.35734375 44.4375 399.73046875 C45.10136719 399.18390625 45.76523437 398.63734375 46.44921875 398.07421875 C46.44921875 397.41421875 46.44921875 396.75421875 46.44921875 396.07421875 C46.98546875 395.85378906 47.52171875 395.63335938 48.07421875 395.40625 C51.26144845 393.61867545 53.7927699 391.23734497 56.44921875 388.76171875 C56.97 388.28798828 57.49078125 387.81425781 58.02734375 387.32617188 C61.15417792 384.4401671 63.81643296 381.42927321 66.44921875 378.07421875 C67.78255208 377.07421875 69.11588542 376.07421875 70.44921875 375.07421875 C70.44921875 374.41421875 70.44921875 373.75421875 70.44921875 373.07421875 C71.43921875 372.74421875 72.42921875 372.41421875 73.44921875 372.07421875 C76.76333789 368.62345158 76.76333789 368.62345158 77.44921875 364.07421875 C78.08859375 363.84734375 78.72796875 363.62046875 79.38671875 363.38671875 C81.72115536 362.22170979 81.72115536 362.22170979 82.19921875 359.44921875 C82.28171875 358.66546875 82.36421875 357.88171875 82.44921875 357.07421875 C83.43921875 356.74421875 84.42921875 356.41421875 85.44921875 356.07421875 C87.02775402 353.97541717 88.43923551 351.92007294 89.82421875 349.69921875 C90.41867798 348.75997559 90.41867798 348.75997559 91.02514648 347.80175781 C96.90048476 338.98551538 96.90048476 338.98551538 99.44921875 329.07421875 C100.10921875 329.07421875 100.76921875 329.07421875 101.44921875 329.07421875 C101.90361328 328.05714844 101.90361328 328.05714844 102.3671875 327.01953125 C104.43984725 322.4150379 106.54034065 317.85854974 108.88671875 313.38671875 C112.34545136 306.52329623 114.88661906 299.30665983 117.44921875 292.07421875 C117.70880371 291.34605957 117.96838867 290.61790039 118.23583984 289.86767578 C123.57173047 274.77964282 129.20173659 258.10827902 129.5078125 241.98828125 C129.63749647 235.93127718 130.13283343 232.81062969 134.44921875 228.38671875 C135.53203125 227.45279297 135.53203125 227.45279297 136.63671875 226.5 C143.7189919 217.02135425 140.10430368 194.33928368 138.63671875 183.13671875 C137.88892268 178.7806759 136.82847654 174.73194348 135.29296875 170.59375 C134.17069102 167.24250401 133.3895008 163.82200058 132.57421875 160.38671875 C129.32388601 146.41653837 129.32388601 146.41653837 122.44921875 134.07421875 C121.75581359 132.22513833 121.06630839 130.37434418 120.41015625 128.51171875 C118.44936991 123.53801681 115.89499822 118.8233051 113.44921875 114.07421875 C112.78921875 114.07421875 112.12921875 114.07421875 111.44921875 114.07421875 C110.45279664 112.09460137 109.46744897 110.11274733 108.51953125 108.109375 C106.5422542 103.98323901 104.40330156 100.60005952 101.44921875 97.07421875 C100.4373398 95.41473727 99.43656415 93.74841313 98.44921875 92.07421875 C96.98150604 89.80967802 96.98150604 89.80967802 95.44921875 88.07421875 C94.78921875 88.07421875 94.12921875 88.07421875 93.44921875 88.07421875 C93.34738281 87.49285156 93.24554687 86.91148437 93.140625 86.3125 C91.13834294 79.83053605 84.28729848 74.95426516 79.27734375 70.71875 C77.2341219 68.8807235 75.61062999 66.81306335 73.90625 64.6640625 C70.54023178 60.99122224 66.37415576 58.11804745 62.44921875 55.07421875 C60.76059541 53.70059854 59.0730748 52.3256215 57.38671875 50.94921875 C52.90925326 47.36864775 48.28136076 44.15395019 43.44921875 41.07421875 C42.70027344 40.58566406 41.95132812 40.09710938 41.1796875 39.59375 C37.58775999 37.0019182 37.58775999 37.0019182 33.44921875 36.07421875 C33.44921875 35.41421875 33.44921875 34.75421875 33.44921875 34.07421875 C32.56234375 33.72359375 31.67546875 33.37296875 30.76171875 33.01171875 C27.04339583 31.43218726 23.55019903 29.52038291 20.01171875 27.57421875 C11.21775712 22.67270468 11.21775712 22.67270468 1.44921875 21.07421875 C1.44921875 20.41421875 1.44921875 19.75421875 1.44921875 19.07421875 C0.87816406 18.9040625 0.30710937 18.73390625 -0.28125 18.55859375 C-1.09207031 18.31625 -1.90289063 18.07390625 -2.73828125 17.82421875 C-4.06666016 17.42843628 -4.06666016 17.42843628 -5.421875 17.0246582 C-7.44934805 16.40879112 -9.47174623 15.77585642 -11.48754883 15.12280273 C-19.26971805 12.62365834 -27.00977722 10.82558656 -35.05078125 9.38671875 C-36.17097656 9.17466797 -37.29117188 8.96261719 -38.4453125 8.74414062 C-72.6856471 2.48451775 -109.64926611 4.63343098 -142.55078125 16.07421875 Z " fill="#EE7970" transform="translate(601.55078125,206.92578125)"/>
<path d="M0 0 C1.50562969 -0.01148842 3.01121967 -0.03189058 4.51660156 -0.06152344 C14.62377808 -0.25961657 23.01494359 0.63878528 32.58422852 4.29516602 C33.37273193 4.57239502 34.16123535 4.84962402 34.97363281 5.13525391 C53.07211426 11.60268116 66.17504212 22.88597962 79.58422852 36.29516602 C79.58422852 37.28516602 79.58422852 38.27516602 79.58422852 39.29516602 C80.24422852 39.29516602 80.90422852 39.29516602 81.58422852 39.29516602 C81.58422852 39.95516602 81.58422852 40.61516602 81.58422852 41.29516602 C82.24422852 41.29516602 82.90422852 41.29516602 83.58422852 41.29516602 C85.31079102 43.81469727 85.31079102 43.81469727 87.20922852 47.10766602 C87.84086914 48.18661133 88.47250977 49.26555664 89.12329102 50.37719727 C90.58422852 53.29516602 90.58422852 53.29516602 90.58422852 56.29516602 C91.24422852 56.29516602 91.90422852 56.29516602 92.58422852 56.29516602 C94.08261075 60.56923992 95.52409008 64.85718612 96.90405273 69.1706543 C97.52826262 71.12035798 98.1668726 73.06543606 98.80688477 75.01000977 C103.81148327 92.10457023 103.27155079 110.4569627 97.58422852 127.29516602 C97.22200195 128.40762695 96.85977539 129.52008789 96.48657227 130.66625977 C92.04170867 143.21734918 85.29827363 154.25326641 76.58422852 164.29516602 C75.55362305 165.54233398 75.55362305 165.54233398 74.50219727 166.81469727 C66.96323474 175.65769655 57.69079628 182.59873691 47.58422852 188.29516602 C46.59422852 188.29516602 45.60422852 188.29516602 44.58422852 188.29516602 C44.58422852 188.95516602 44.58422852 189.61516602 44.58422852 190.29516602 C40.4221899 191.78758241 36.25388432 193.26167931 32.08422852 194.73266602 C30.91118164 195.15354492 29.73813477 195.57442383 28.52954102 196.00805664 C8.75760746 202.95044904 -15.1005248 202.85401784 -34.41577148 194.29516602 C-35.48827148 194.02704102 -36.56077148 193.75891602 -37.66577148 193.48266602 C-42.97689133 191.8008114 -47.60072465 189.06403563 -52.41577148 186.29516602 C-52.41577148 185.63516602 -52.41577148 184.97516602 -52.41577148 184.29516602 C-53.26526367 184.07731445 -54.11475586 183.85946289 -54.98999023 183.63500977 C-59.14958817 182.00816588 -61.90715997 179.78489536 -65.22827148 176.85766602 C-65.84138184 176.32197998 -66.45449219 175.78629395 -67.08618164 175.234375 C-85.38959442 158.89221405 -97.78446576 135.66825643 -100.16577148 111.17016602 C-100.27072022 109.21287205 -100.35374118 107.25428983 -100.41577148 105.29516602 C-100.46733398 104.25618164 -100.51889648 103.21719727 -100.57202148 102.14672852 C-100.86495814 91.67424318 -99.15622059 81.5928232 -97.41577148 71.29516602 C-96.75577148 71.29516602 -96.09577148 71.29516602 -95.41577148 71.29516602 C-94.42577148 65.85016602 -94.42577148 65.85016602 -93.41577148 60.29516602 C-92.75577148 60.29516602 -92.09577148 60.29516602 -91.41577148 60.29516602 C-91.32166992 59.60036133 -91.22756836 58.90555664 -91.13061523 58.18969727 C-90.26914266 54.70143946 -88.79602262 52.07775578 -86.97827148 48.98266602 C-86.05208008 47.3797168 -86.05208008 47.3797168 -85.10717773 45.74438477 C-84.54901367 44.93614258 -83.99084961 44.12790039 -83.41577148 43.29516602 C-82.75577148 43.29516602 -82.09577148 43.29516602 -81.41577148 43.29516602 C-81.23014648 42.63516602 -81.04452148 41.97516602 -80.85327148 41.29516602 C-78.76876405 36.94488963 -75.69088536 33.79908026 -72.41577148 30.29516602 C-71.86276367 29.66610352 -71.30975586 29.03704102 -70.73999023 28.38891602 C-52.22311779 8.352921 -26.5522714 0.14045788 0 0 Z " fill="#FDFDFD" transform="translate(523.415771484375,319.704833984375)"/>
<path d="M0 0 C5.63134887 2.46988986 11.60432041 4.18378958 17.44921875 6.07421875 C19.44989591 6.73885048 21.45014189 7.40478902 23.44921875 8.07421875 C23.44921875 8.73421875 23.44921875 9.39421875 23.44921875 10.07421875 C24.10921875 10.15671875 24.76921875 10.23921875 25.44921875 10.32421875 C29.43961038 11.32181666 32.83471518 13.14588558 36.44921875 15.07421875 C36.44921875 15.73421875 36.44921875 16.39421875 36.44921875 17.07421875 C37.62484375 17.29078125 37.62484375 17.29078125 38.82421875 17.51171875 C41.44921875 18.07421875 41.44921875 18.07421875 43.44921875 19.07421875 C43.44921875 19.73421875 43.44921875 20.39421875 43.44921875 21.07421875 C44.39796875 21.38359375 45.34671875 21.69296875 46.32421875 22.01171875 C49.44921875 23.07421875 49.44921875 23.07421875 51.44921875 24.07421875 C51.44921875 24.73421875 51.44921875 25.39421875 51.44921875 26.07421875 C52.14144531 26.31398437 52.83367187 26.55375 53.546875 26.80078125 C56.96711245 28.30145071 59.87709741 30.27008655 62.88671875 32.44921875 C63.49290039 32.88548584 64.09908203 33.32175293 64.72363281 33.77124023 C71.06459837 38.40923632 77.00172513 43.48289268 82.87988281 48.68847656 C84.28609861 49.93018174 85.70661231 51.15565053 87.12890625 52.37890625 C97.60506411 61.516258 106.51722972 71.67405878 114.44921875 83.07421875 C115.8220987 84.92995571 117.19711 86.78411773 118.57421875 88.63671875 C124.4748436 96.75875531 131.23748522 106.13236702 133.44921875 116.07421875 C134.10921875 116.07421875 134.76921875 116.07421875 135.44921875 116.07421875 C135.76375 116.84765625 136.07828125 117.62109375 136.40234375 118.41796875 C139.2373639 125.36358233 139.2373639 125.36358233 142.57421875 132.07421875 C144.70496272 136.18290434 145.5724647 140.44219541 146.59375 144.93359375 C147.47523193 148.16971921 148.68194644 151.02637909 150.07421875 154.07421875 C152.70291415 160.04206776 153.3228978 165.59739921 153.44921875 172.07421875 C154.10921875 172.07421875 154.76921875 172.07421875 155.44921875 172.07421875 C158.40826108 185.85499787 158.91636207 199.28137146 158.84033203 213.34985352 C158.82429035 216.87100239 158.84024251 220.39099572 158.859375 223.91210938 C158.87487968 240.60201943 157.25488241 256.46571935 153.89984131 272.79733276 C153.46645806 274.98711271 153.08930364 277.17848655 152.73828125 279.3828125 C151.58849383 286.59340187 150.2807006 293.31128324 147.5546875 300.12109375 C145.85689477 304.65654006 144.58677399 309.31155104 143.28759766 313.97460938 C142.32377526 317.36586576 141.27702263 320.60203777 139.84765625 323.828125 C138.71369014 326.46032008 138.05392206 328.47480066 137.63671875 331.26171875 C136.60996047 336.33511259 134.33912856 340.54656542 131.95703125 345.109375 C130.24988947 348.46616415 128.86698246 351.87100701 127.5078125 355.37890625 C123.92875441 364.49163718 119.93626194 373.3757869 115.44921875 382.07421875 C114.80133759 383.36485947 114.15543199 384.65649421 113.51171875 385.94921875 C110.82421875 391.32421875 108.13671875 396.69921875 105.44921875 402.07421875 C104.78921875 402.07421875 104.12921875 402.07421875 103.44921875 402.07421875 C103.36671875 402.75484375 103.28421875 403.43546875 103.19921875 404.13671875 C102.22589347 407.94890945 100.4911442 410.71492204 98.44921875 414.07421875 C97.78921875 414.07421875 97.12921875 414.07421875 96.44921875 414.07421875 C96.13984375 415.55921875 96.13984375 415.55921875 95.82421875 417.07421875 C94.69889463 421.00891849 92.69426782 423.65108577 90.171875 426.82421875 C86.07654165 432.17322558 82.35022717 437.98778932 79.44921875 444.07421875 C78.78921875 444.07421875 78.12921875 444.07421875 77.44921875 444.07421875 C77.18109375 444.79996094 76.91296875 445.52570313 76.63671875 446.2734375 C75.46251494 449.04285899 74.10978635 451.38341309 72.44921875 453.88671875 C71.93359375 454.67691406 71.41796875 455.46710938 70.88671875 456.28125 C70.17515625 457.16876953 70.17515625 457.16876953 69.44921875 458.07421875 C68.78921875 458.07421875 68.12921875 458.07421875 67.44921875 458.07421875 C67.24167969 458.73550781 67.03414062 459.39679688 66.8203125 460.078125 C64.94021965 464.18647604 62.29107932 467.46941212 59.51171875 471.01171875 C58.9305127 471.76098633 58.34930664 472.51025391 57.75048828 473.28222656 C56.55821571 474.81705385 55.36322844 476.34977619 54.16552734 477.88037109 C52.61427304 479.86324039 51.07126035 481.85214563 49.53125 483.84375 C40.86215596 495.0171458 31.78399011 505.76950291 22.15234375 516.125 C20.12874778 518.30695452 18.18120158 520.54345962 16.2421875 522.80078125 C11.88516975 527.79839773 7.20875613 532.46082332 2.51171875 537.13671875 C1.65642578 537.99587891 0.80113281 538.85503906 -0.08007812 539.74023438 C-5.07568348 544.72821867 -10.19672913 549.47631635 -15.55078125 554.07421875 C-17.20003909 555.57045267 -18.84641558 557.06987687 -20.48828125 558.57421875 C-33.25071693 570.07421875 -33.25071693 570.07421875 -36.55078125 570.07421875 C-36.55078125 570.73421875 -36.55078125 571.39421875 -36.55078125 572.07421875 C-38.27499552 573.2890726 -40.05713009 574.42240579 -41.86328125 575.51171875 C-45.14694854 577.49908863 -47.87462516 579.34588134 -50.55078125 582.07421875 C-53.44900669 583.93071256 -56.49627398 585.49111959 -59.55078125 587.07421875 C-60.28941406 587.47382812 -61.02804687 587.8734375 -61.7890625 588.28515625 C-68.11961166 591.45605299 -73.89400738 592.18831783 -80.8203125 590.53125 C-85.07786627 589.10153343 -87.41890468 587.30712359 -90.55078125 584.07421875 C-92.24171736 583.3588227 -93.93415776 582.64626459 -95.640625 581.96875 C-99.33148729 580.24030938 -102.38344333 577.60693523 -105.55078125 575.07421875 C-106.28941406 574.49800781 -107.02804687 573.92179688 -107.7890625 573.328125 C-119.92990304 563.77044202 -131.32156072 553.62316895 -142.18530273 542.64550781 C-144.00637212 540.80594416 -145.83555629 538.97474734 -147.66601562 537.14453125 C-152.96748798 531.82695917 -158.20845861 526.50626653 -163.08081055 520.78710938 C-164.58474662 519.03464043 -166.13803308 517.34352346 -167.71875 515.66015625 C-168.21955078 515.12648438 -168.72035156 514.5928125 -169.23632812 514.04296875 C-170.24704412 512.97047948 -171.26011206 511.90020235 -172.27539062 510.83203125 C-175.43989939 507.44998816 -178.04178815 503.98737718 -180.55078125 500.07421875 C-183.53277263 495.99285247 -183.53277263 495.99285247 -187.55078125 493.07421875 C-188.56429789 491.41573698 -189.56136474 489.74718999 -190.55078125 488.07421875 C-192.09181812 486.01037897 -193.64775556 483.97374598 -195.23828125 481.94921875 C-198.57676276 477.64957515 -201.88428222 473.33226436 -205.11328125 468.94921875 C-205.75394531 468.08039063 -206.39460938 467.2115625 -207.0546875 466.31640625 C-208.55078125 464.07421875 -208.55078125 464.07421875 -209.55078125 461.07421875 C-210.21078125 461.07421875 -210.87078125 461.07421875 -211.55078125 461.07421875 C-211.87691406 460.4709375 -212.20304687 459.86765625 -212.5390625 459.24609375 C-212.97605469 458.446875 -213.41304688 457.64765625 -213.86328125 456.82421875 C-214.29253906 456.0353125 -214.72179687 455.24640625 -215.1640625 454.43359375 C-216.50422965 452.04248901 -216.50422965 452.04248901 -218.21875 449.90234375 C-219.55078125 448.07421875 -219.55078125 448.07421875 -219.55078125 446.07421875 C-220.21078125 446.07421875 -220.87078125 446.07421875 -221.55078125 446.07421875 C-223.27734375 443.51953125 -223.27734375 443.51953125 -225.17578125 440.19921875 C-225.80742187 439.10867188 -226.4390625 438.018125 -227.08984375 436.89453125 C-228.55078125 434.07421875 -228.55078125 434.07421875 -228.55078125 432.07421875 C-229.21078125 432.07421875 -229.87078125 432.07421875 -230.55078125 432.07421875 C-231.22233058 430.78508388 -231.88786984 429.49281671 -232.55078125 428.19921875 C-232.92203125 427.47992187 -233.29328125 426.760625 -233.67578125 426.01953125 C-234.55078125 424.07421875 -234.55078125 424.07421875 -234.55078125 422.07421875 C-235.50984375 421.76484375 -235.50984375 421.76484375 -236.48828125 421.44921875 C-238.55078125 420.07421875 -238.55078125 420.07421875 -239.30078125 416.94921875 C-239.38328125 416.00046875 -239.46578125 415.05171875 -239.55078125 414.07421875 C-240.21078125 414.07421875 -240.87078125 414.07421875 -241.55078125 414.07421875 C-242.88897623 411.45159555 -244.22149635 408.82635276 -245.55078125 406.19921875 C-245.93234375 405.45285156 -246.31390625 404.70648437 -246.70703125 403.9375 C-247.06796875 403.22207031 -247.42890625 402.50664063 -247.80078125 401.76953125 C-248.30351562 400.77977295 -248.30351562 400.77977295 -248.81640625 399.77001953 C-249.55078125 398.07421875 -249.55078125 398.07421875 -249.55078125 396.07421875 C-250.21078125 396.07421875 -250.87078125 396.07421875 -251.55078125 396.07421875 C-254.55078125 389.44921875 -254.55078125 389.44921875 -254.55078125 386.07421875 C-255.54078125 385.74421875 -256.53078125 385.41421875 -257.55078125 385.07421875 C-257.55078125 383.75421875 -257.55078125 382.43421875 -257.55078125 381.07421875 C-258.21078125 381.07421875 -258.87078125 381.07421875 -259.55078125 381.07421875 C-260.36620556 378.99202826 -261.17801314 376.90842114 -261.98828125 374.82421875 C-262.66697266 373.08398438 -262.66697266 373.08398438 -263.359375 371.30859375 C-264.25228758 368.88455567 -265.0087249 366.591354 -265.55078125 364.07421875 C-266.21078125 364.07421875 -266.87078125 364.07421875 -267.55078125 364.07421875 C-268.22383143 362.47271989 -268.88900352 360.86790846 -269.55078125 359.26171875 C-269.92203125 358.36839844 -270.29328125 357.47507812 -270.67578125 356.5546875 C-271.55078125 354.07421875 -271.55078125 354.07421875 -271.55078125 351.07421875 C-272.21078125 351.07421875 -272.87078125 351.07421875 -273.55078125 351.07421875 C-273.84082031 350.18669922 -273.84082031 350.18669922 -274.13671875 349.28125 C-275.25815712 345.87807317 -276.36977563 342.51244288 -277.73828125 339.19921875 C-278.55078125 337.07421875 -278.55078125 337.07421875 -278.55078125 334.07421875 C-279.21078125 334.07421875 -279.87078125 334.07421875 -280.55078125 334.07421875 C-281.65736119 331.09594307 -282.76058659 328.1164349 -283.86328125 325.13671875 C-284.17201172 324.30591797 -284.48074219 323.47511719 -284.79882812 322.61914062 C-287.83912112 314.39434799 -290.58210441 306.13064282 -292.98828125 297.69921875 C-294.3736588 292.88285893 -295.83346583 288.17750609 -297.67578125 283.51171875 C-299.62328178 278.3838242 -300.60810034 273.20929425 -301.51220703 267.81811523 C-302.04189335 264.67038915 -302.67124295 261.66344898 -303.5703125 258.59765625 C-304.65284214 254.70745013 -305.17816324 250.95230441 -305.61328125 246.94921875 C-306.16037642 241.81974636 -306.16037642 241.81974636 -307.06713867 236.74633789 C-311.25014855 213.63526111 -306.30656586 188.0515605 -301.17578125 165.57421875 C-300.89597412 164.34566162 -300.61616699 163.11710449 -300.32788086 161.85131836 C-297.17436214 148.62081309 -292.48431424 136.29279735 -286.55078125 124.07421875 C-286.26364258 123.46884277 -285.97650391 122.8634668 -285.68066406 122.23974609 C-277.9926664 106.03677156 -268.86755209 90.99828484 -257.55078125 77.07421875 C-256.82375 76.15511719 -256.09671875 75.23601562 -255.34765625 74.2890625 C-231.97309913 45.0708661 -202.15460113 21.4672923 -167.55078125 7.07421875 C-166.0064944 6.37161619 -164.46430712 5.66434837 -162.92578125 4.94921875 C-157.5468677 2.56422878 -152.02235637 0.59409834 -146.44873047 -1.28466797 C-144.6152522 -1.90400344 -142.78794838 -2.54152592 -140.9609375 -3.1796875 C-99.6306998 -16.95104975 -40.07591609 -19.3127748 0 0 Z M-142.55078125 16.07421875 C-142.55078125 16.73421875 -142.55078125 17.39421875 -142.55078125 18.07421875 C-144.28328125 18.44546875 -144.28328125 18.44546875 -146.05078125 18.82421875 C-149.1704389 19.58900255 -151.78737372 20.61592703 -154.61328125 22.13671875 C-158.30884898 24.10524889 -161.39208095 24.72766039 -165.55078125 25.07421875 C-165.55078125 25.73421875 -165.55078125 26.39421875 -165.55078125 27.07421875 C-167.20078125 27.40421875 -168.85078125 27.73421875 -170.55078125 28.07421875 C-170.55078125 28.73421875 -170.55078125 29.39421875 -170.55078125 30.07421875 C-171.16099121 30.22624756 -171.77120117 30.37827637 -172.39990234 30.53491211 C-179.01586503 32.3298769 -184.40224106 34.98142417 -190.17578125 38.63671875 C-190.98917969 39.13107422 -191.80257812 39.62542969 -192.640625 40.13476562 C-195.67590065 41.99044976 -195.67590065 41.99044976 -198.55078125 44.07421875 C-198.55078125 44.73421875 -198.55078125 45.39421875 -198.55078125 46.07421875 C-199.4015625 46.46287109 -199.4015625 46.46287109 -200.26953125 46.859375 C-209.40726396 51.72553061 -217.07070693 59.97920069 -224.55078125 67.07421875 C-225.05399902 67.54875488 -225.5572168 68.02329102 -226.07568359 68.51220703 C-234.07810145 76.10794042 -240.88713891 84.29530836 -247.55078125 93.07421875 C-248.27265625 93.93144531 -248.99453125 94.78867187 -249.73828125 95.671875 C-251.57089177 98.10087386 -252.46630601 100.25191637 -253.55078125 103.07421875 C-254.5893294 104.66683769 -255.67586063 106.22888772 -256.80078125 107.76171875 C-265.34241774 119.74127531 -271.4484955 131.62210708 -274.55078125 146.07421875 C-275.21078125 146.07421875 -275.87078125 146.07421875 -276.55078125 146.07421875 C-277.21078125 150.03421875 -277.87078125 153.99421875 -278.55078125 158.07421875 C-279.21078125 158.07421875 -279.87078125 158.07421875 -280.55078125 158.07421875 C-283.04162689 165.58208683 -284.76212152 173.1841759 -286.16259766 180.9609375 C-286.42085356 182.36688913 -286.69133232 183.77065174 -286.97412109 185.171875 C-289.29688832 196.74109299 -289.84432802 208.1807465 -289.86328125 219.94921875 C-289.86677582 220.64464783 -289.87027039 221.3400769 -289.87387085 222.05657959 C-289.90770074 234.18558002 -289.10808725 245.98298633 -285.3359375 257.57666016 C-284.45458315 260.38022202 -283.74418357 263.19894092 -283.05078125 266.0546875 C-282.80328125 267.07369141 -282.55578125 268.09269531 -282.30078125 269.14257812 C-281.79811707 271.23308515 -281.29814437 273.32424106 -280.80078125 275.41601562 C-279.45526344 280.93474103 -277.86567752 285.89828447 -275.55078125 291.07421875 C-274.69686221 293.69736202 -273.97101763 296.35255972 -273.23828125 299.01171875 C-270.0616631 310.16482384 -265.90941171 320.91546133 -261.52832031 331.64770508 C-260.92330206 333.14952237 -260.33198637 334.65703895 -259.76293945 336.17285156 C-256.70246582 344.21088586 -252.76600777 351.79887762 -248.86328125 359.44921875 C-247.50054488 362.12136288 -246.14323206 364.79616251 -244.7890625 367.47265625 C-244.19134033 368.64489746 -243.59361816 369.81713867 -242.9777832 371.02490234 C-241.849309 373.43630401 -241.03763175 375.47741648 -240.55078125 378.07421875 C-239.89078125 378.07421875 -239.23078125 378.07421875 -238.55078125 378.07421875 C-238.34453125 378.83734375 -238.13828125 379.60046875 -237.92578125 380.38671875 C-232.70257603 394.39440547 -223.42738426 407.44014752 -215.55078125 420.07421875 C-215.009375 420.94304687 -214.46796875 421.811875 -213.91015625 422.70703125 C-193.25720865 455.49107914 -169.934259 486.12448139 -143.734375 514.671875 C-141.86046144 516.73351514 -140.04271514 518.82713391 -138.23828125 520.94921875 C-130.69379024 529.62002003 -122.32431435 537.66209596 -113.55078125 545.07421875 C-112.2787412 546.19785413 -111.00794758 547.32290184 -109.73828125 548.44921875 C-108.3451939 549.6607169 -106.94914722 550.86881726 -105.55078125 552.07421875 C-104.72835937 552.78707031 -103.9059375 553.49992188 -103.05859375 554.234375 C-97.13155079 559.2422968 -91.08981411 563.37176592 -84.3984375 567.25 C-81.55078125 569.07421875 -81.55078125 569.07421875 -79.40625 571.2890625 C-77.52756971 573.47996078 -77.52756971 573.47996078 -73.80078125 573.32421875 C-72.19203125 573.20046875 -72.19203125 573.20046875 -70.55078125 573.07421875 C-70.55078125 572.41421875 -70.55078125 571.75421875 -70.55078125 571.07421875 C-69.64328125 570.78546875 -68.73578125 570.49671875 -67.80078125 570.19921875 C-65.22875217 569.30890099 -62.93731359 568.35927462 -60.55078125 567.07421875 C-60.55078125 566.41421875 -60.55078125 565.75421875 -60.55078125 565.07421875 C-59.88691406 564.85765625 -59.22304688 564.64109375 -58.5390625 564.41796875 C-54.54701768 562.62285317 -51.24490527 560.17146946 -47.73828125 557.57421875 C-47.04541016 557.07535156 -46.35253906 556.57648437 -45.63867188 556.0625 C-44.65737305 555.34126953 -44.65737305 555.34126953 -43.65625 554.60546875 C-43.05965576 554.16783203 -42.46306152 553.73019531 -41.84838867 553.27929688 C-41.206073 552.6827832 -41.206073 552.6827832 -40.55078125 552.07421875 C-40.55078125 551.41421875 -40.55078125 550.75421875 -40.55078125 550.07421875 C-39.9784375 549.80609375 -39.40609375 549.53796875 -38.81640625 549.26171875 C-36.47193491 548.03289239 -34.42673187 546.64899699 -32.30078125 545.07421875 C-31.594375 544.55859375 -30.88796875 544.04296875 -30.16015625 543.51171875 C-29.6290625 543.03734375 -29.09796875 542.56296875 -28.55078125 542.07421875 C-28.55078125 541.41421875 -28.55078125 540.75421875 -28.55078125 540.07421875 C-27.96033524 539.80876251 -27.36988922 539.54330627 -26.7615509 539.26980591 C-24.48655758 538.0394865 -22.99911635 536.770138 -21.1784668 534.94482422 C-20.54067795 534.310112 -19.9028891 533.67539978 -19.24577332 533.02145386 C-18.56654312 532.33503815 -17.88731293 531.64862244 -17.1875 530.94140625 C-16.47729202 530.23074005 -15.76708405 529.52007385 -15.03535461 528.78787231 C-13.53267168 527.28216969 -12.03241857 525.77403877 -10.53442383 524.26367188 C-8.26232648 521.97345572 -5.98246803 519.69120564 -3.70117188 517.41015625 C-2.2378113 515.94187447 -0.77490627 514.47313852 0.6875 513.00390625 C1.69723625 511.99250076 1.69723625 511.99250076 2.72737122 510.96066284 C7.1577718 506.48659211 11.35490192 501.85693354 15.44921875 497.07421875 C16.12210182 496.29279007 16.12210182 496.29279007 16.80857849 495.49557495 C26.71647125 483.95067232 36.60960543 472.3002194 45.43359375 459.8984375 C46.94558373 457.7798934 48.47458027 455.68204688 50.02734375 453.59375 C60.68154906 439.25516921 70.24069556 424.37588681 79.44921875 409.07421875 C80.04863281 408.08035156 80.64804687 407.08648438 81.265625 406.0625 C82.22194227 404.4719671 83.17535818 402.87968378 84.125 401.28515625 C85.04913656 399.74220258 85.98499382 398.20623487 86.9296875 396.67578125 C90.34466319 391.1099854 93.32925873 385.43198482 96.15234375 379.54296875 C97.44921875 377.07421875 97.44921875 377.07421875 99.44921875 375.07421875 C100.23236555 373.2766333 100.23236555 373.2766333 100.88671875 371.26171875 C101.77133449 368.77317851 102.60110235 366.83120499 104.01171875 364.57421875 C105.9657339 361.17593153 106.60671431 357.89789274 107.44921875 354.07421875 C108.10921875 354.07421875 108.76921875 354.07421875 109.44921875 354.07421875 C109.84109375 352.81609375 110.23296875 351.55796875 110.63671875 350.26171875 C111.80522989 346.73980435 113.17089333 343.42521552 114.76171875 340.07421875 C117.39352275 334.45970355 119.41869216 328.69412621 121.39379883 322.82421875 C122.49524837 319.58864103 123.54181855 316.93531905 125.44921875 314.07421875 C126.05180947 312.13376606 126.58720882 310.17185494 127.07421875 308.19921875 C127.46480469 306.65621094 127.46480469 306.65621094 127.86328125 305.08203125 C128.40222991 302.31542814 128.56316243 299.88137679 128.44921875 297.07421875 C129.10921875 297.07421875 129.76921875 297.07421875 130.44921875 297.07421875 C137.66721372 271.40354473 141.0330588 246.14003816 141.01171875 219.44921875 C141.01552551 217.90926239 141.01552551 217.90926239 141.01940918 216.3381958 C141.01501706 200.67807826 140.40922209 185.00735282 135.14427185 170.12013245 C134.05764916 166.92161964 133.33857495 163.67750894 132.57421875 160.38671875 C129.32566764 146.41563186 129.32566764 146.41563186 122.44921875 134.07421875 C121.75581359 132.22513833 121.06630839 130.37434418 120.41015625 128.51171875 C118.44936991 123.53801681 115.89499822 118.8233051 113.44921875 114.07421875 C112.78921875 114.07421875 112.12921875 114.07421875 111.44921875 114.07421875 C110.45279664 112.09460137 109.46744897 110.11274733 108.51953125 108.109375 C106.5422542 103.98323901 104.40330156 100.60005952 101.44921875 97.07421875 C100.4373398 95.41473727 99.43656415 93.74841313 98.44921875 92.07421875 C96.98150604 89.80967802 96.98150604 89.80967802 95.44921875 88.07421875 C94.78921875 88.07421875 94.12921875 88.07421875 93.44921875 88.07421875 C93.34738281 87.49285156 93.24554687 86.91148437 93.140625 86.3125 C91.13834294 79.83053605 84.28729848 74.95426516 79.27734375 70.71875 C77.2341219 68.8807235 75.61062999 66.81306335 73.90625 64.6640625 C70.54023178 60.99122224 66.37415576 58.11804745 62.44921875 55.07421875 C60.76059541 53.70059854 59.0730748 52.3256215 57.38671875 50.94921875 C52.90925326 47.36864775 48.28136076 44.15395019 43.44921875 41.07421875 C42.70027344 40.58566406 41.95132812 40.09710938 41.1796875 39.59375 C37.58775999 37.0019182 37.58775999 37.0019182 33.44921875 36.07421875 C33.44921875 35.41421875 33.44921875 34.75421875 33.44921875 34.07421875 C32.56234375 33.72359375 31.67546875 33.37296875 30.76171875 33.01171875 C27.04339583 31.43218726 23.55019903 29.52038291 20.01171875 27.57421875 C11.21775712 22.67270468 11.21775712 22.67270468 1.44921875 21.07421875 C1.44921875 20.41421875 1.44921875 19.75421875 1.44921875 19.07421875 C0.87816406 18.9040625 0.30710937 18.73390625 -0.28125 18.55859375 C-1.09207031 18.31625 -1.90289063 18.07390625 -2.73828125 17.82421875 C-3.62386719 17.56036377 -4.50945312 17.29650879 -5.421875 17.0246582 C-7.44934805 16.40879112 -9.47174623 15.77585642 -11.48754883 15.12280273 C-19.26971805 12.62365834 -27.00977722 10.82558656 -35.05078125 9.38671875 C-36.17097656 9.17466797 -37.29117188 8.96261719 -38.4453125 8.74414062 C-72.6856471 2.48451775 -109.64926611 4.63343098 -142.55078125 16.07421875 Z " fill="#272223" transform="translate(601.55078125,206.92578125)"/>
<path d="M0 0 C1.32604266 0.3612475 2.65717209 0.70725079 4 1 C4 1.66 4 2.32 4 3 C4.72058594 3.13148438 5.44117188 3.26296875 6.18359375 3.3984375 C14.71827618 5.22137938 22.00003967 8.92812054 29.37109375 13.51171875 C31.66411461 14.80984795 33.42999163 15.54432476 36 16 C36 16.66 36 17.32 36 18 C36.73347656 18.27972656 37.46695312 18.55945313 38.22265625 18.84765625 C47.63707177 22.75377802 55.45023863 29.26794432 63.296875 35.62597656 C64.88509855 36.90730141 66.48886923 38.16928871 68.09375 39.4296875 C73.06320192 43.37521388 77.40838778 47.34907599 81.45703125 52.234375 C83.12805979 54.23989995 83.12805979 54.23989995 86 56.5 C89.73812762 59.61510635 93.18249217 63.01547709 96 67 C96 67.99 96 68.98 96 70 C96.66 70 97.32 70 98 70 C101.52506055 73.79621905 103.71682665 77.33852107 106 82 C107.22234107 83.80938646 108.50295457 85.56653464 109.79296875 87.328125 C114 93.15533981 114 93.15533981 114 96 C114.66 96 115.32 96 116 96 C117.27339482 98.51956743 118.54376642 101.04058649 119.8125 103.5625 C120.16892578 104.26697266 120.52535156 104.97144531 120.89257812 105.69726562 C123.09184073 110.07561412 125.10912563 114.47996042 127 119 C127.41121094 119.94101562 127.82242187 120.88203125 128.24609375 121.8515625 C134.48230799 136.36865139 138.12521123 151.50227509 141 167 C141.17660156 167.84175781 141.35320312 168.68351563 141.53515625 169.55078125 C142.21784299 174.61643156 142.2654516 179.64368046 142.3125 184.75 C142.34150391 185.78382813 142.37050781 186.81765625 142.40039062 187.8828125 C142.46982418 196.36438874 140.79192611 203.66546191 135.5625 210.5 C131.54835433 214.41623968 127.96694592 215.28076187 122.4375 215.25 C121.50808594 215.25515625 120.57867188 215.2603125 119.62109375 215.265625 C116.88653924 214.98850174 115.30171231 214.47429939 113 213 C108.1033574 206.9512062 106.61602524 200.67949514 107 193 C106.34 193 105.68 193 105 193 C104.90501221 192.37134033 104.81002441 191.74268066 104.7121582 191.0949707 C102.27547006 175.08303163 102.27547006 175.08303163 97.1328125 159.80078125 C96.00831645 157.0205617 95.39555868 154.43582363 94.8125 151.5 C93.37721976 145.29157851 90.77351461 139.73534541 88.0625 134 C87.63106689 133.07896484 87.19963379 132.15792969 86.75512695 131.20898438 C84.59608437 126.75362141 82.68307409 123.37182839 79 120 C77.573709 117.87166304 76.20972645 115.74583021 74.875 113.5625 C71.00356206 107.36165142 66.74106962 101.63333108 62.1640625 95.9375 C60 93 60 93 58.64160156 90.11816406 C56.93604354 86.87851697 55.14536014 84.75807463 52.5703125 82.171875 C51.69802002 81.29370117 50.82572754 80.41552734 49.92700195 79.51074219 C49.00234131 78.59969727 48.07768066 77.68865234 47.125 76.75 C46.65556976 76.28356079 46.18613953 75.81712158 45.70248413 75.33654785 C34.37643375 63.86211914 34.37643375 63.86211914 21 55 C21 54.34 21 53.68 21 53 C20.319375 52.731875 19.63875 52.46375 18.9375 52.1875 C15.60289191 50.83946694 12.30256763 49.42463702 9 48 C9 47.01 9 46.02 9 45 C8.45601562 44.89171875 7.91203125 44.7834375 7.3515625 44.671875 C4.48198341 43.85199526 2.03182691 42.60995889 -0.625 41.25 C-1.69492187 40.70859375 -2.76484375 40.1671875 -3.8671875 39.609375 C-5.73210478 38.65133769 -7.59307867 37.68545987 -9.4453125 36.703125 C-19.15975217 31.63185819 -29.69736044 27.21582885 -40.55078125 25.421875 C-43.36644213 24.93688078 -46.10221807 24.25130261 -48.875 23.5625 C-75.35055968 17.55647026 -101.14936391 17.8898416 -127.9375 21.3125 C-128.78301422 21.41900879 -129.62852844 21.52551758 -130.49966431 21.63525391 C-132.92768379 21.94732848 -135.35267674 22.27622525 -137.77734375 22.61328125 C-138.49072906 22.70720657 -139.20411438 22.8011319 -139.93911743 22.89790344 C-144.95719092 23.63324618 -149.28589181 25.13039991 -154 27 C-156.69466009 27.54475381 -159.25306333 27.7547378 -162 28 C-162 28.66 -162 29.32 -162 30 C-162.58007812 30.18175781 -163.16015625 30.36351562 -163.7578125 30.55078125 C-164.53898437 30.80214844 -165.32015625 31.05351562 -166.125 31.3125 C-166.89070313 31.55613281 -167.65640625 31.79976563 -168.4453125 32.05078125 C-171.43259005 33.160733 -174.16736153 34.53635745 -177 36 C-177.69174316 36.35167236 -178.38348633 36.70334473 -179.09619141 37.06567383 C-188.46846402 41.83956923 -197.64884717 46.55181478 -206 53 C-207.03382813 53.78246094 -208.06765625 54.56492187 -209.1328125 55.37109375 C-220.42756423 63.3997135 -220.42756423 63.3997135 -230.51171875 72.7109375 C-233.25902573 75.09049473 -236.52805297 74.17075149 -240 74 C-240.77734375 72.359375 -240.77734375 72.359375 -241 70 C-239.60296277 67.86225176 -238.25492434 66.13342982 -236.5625 64.25 C-236.07458984 63.6921582 -235.58667969 63.13431641 -235.08398438 62.55957031 C-225.24340752 51.4843599 -214.74276207 41.04802437 -203 32 C-202.11699219 31.26265625 -201.23398437 30.5253125 -200.32421875 29.765625 C-198 28 -198 28 -196 28 C-196 27.34 -196 26.68 -196 26 C-193.0148465 23.73469494 -189.71741868 21.9159909 -186.5 20 C-185.613125 19.4534375 -184.72625 18.906875 -183.8125 18.34375 C-178.57355464 15.20038278 -174.01350627 13.12401986 -168 12 C-168 11.34 -168 10.68 -168 10 C-166.35 9.67 -164.7 9.34 -163 9 C-163 8.34 -163 7.68 -163 7 C-162.443125 6.90203125 -161.88625 6.8040625 -161.3125 6.703125 C-156.33787948 5.72836828 -152.31543644 4.28677836 -147.86328125 1.88671875 C-145.30886081 0.67109309 -142.79796492 0.27979649 -140 0 C-140 -0.66 -140 -1.32 -140 -2 C-97.20948072 -17.77376005 -42.34529718 -16.93811887 0 0 Z " fill="#FCE9E5" transform="translate(599,225)"/>
<path d="M0 0 C2.16242263 1.1007906 4.21562538 1.64580802 6.56640625 2.23828125 C15.89564142 4.91003404 25.43943842 10.00435801 32.46484375 16.6875 C34.07088847 18.10234892 35.6811102 19.04395293 37.56640625 20.05078125 C41.07432051 22.06458388 43.18857329 24.03881737 45.94140625 26.98828125 C46.62203125 27.63796875 47.30265625 28.28765625 48.00390625 28.95703125 C54.76439112 35.4434424 61.71952044 42.60698561 63.94140625 51.98828125 C64.60140625 51.98828125 65.26140625 51.98828125 65.94140625 51.98828125 C66.93140625 54.95828125 67.92140625 57.92828125 68.94140625 60.98828125 C69.60140625 60.98828125 70.26140625 60.98828125 70.94140625 60.98828125 C76.35461337 70.78360842 78.29814361 82.20091211 80.94140625 92.98828125 C81.12010254 93.60300293 81.29879883 94.21772461 81.48291016 94.85107422 C85.59880584 114.03667102 80.79947262 134.72982828 74.94140625 152.92578125 C74.42513672 154.53779419 74.42513672 154.53779419 73.8984375 156.18237305 C73.56199219 157.17922119 73.22554687 158.17606934 72.87890625 159.203125 C72.57855469 160.101521 72.27820313 160.99991699 71.96875 161.92553711 C71.62972656 162.60624268 71.29070312 163.28694824 70.94140625 163.98828125 C69.95140625 164.31828125 68.96140625 164.64828125 67.94140625 164.98828125 C67.51441849 166.63037847 67.09055872 168.27335713 66.68310547 169.92041016 C65.2028864 174.04728821 62.22230697 177.29189227 59.50390625 180.67578125 C58.62508789 181.79436523 58.62508789 181.79436523 57.72851562 182.93554688 C56.63849514 184.32250825 55.54405541 185.70601736 54.44360352 187.0847168 C53.37861699 188.4342536 52.35961911 189.82066207 51.37475586 191.22973633 C50.90175049 191.81005615 50.42874512 192.39037598 49.94140625 192.98828125 C49.28140625 192.98828125 48.62140625 192.98828125 47.94140625 192.98828125 C47.71710938 193.55289063 47.4928125 194.1175 47.26171875 194.69921875 C42.8180347 202.40335736 32.75714156 207.96014354 25.37890625 212.61328125 C24.3432251 213.26997803 24.3432251 213.26997803 23.28662109 213.93994141 C18.32309391 216.98828125 18.32309391 216.98828125 14.94140625 216.98828125 C14.94140625 217.64828125 14.94140625 218.30828125 14.94140625 218.98828125 C11.31140625 219.97828125 7.68140625 220.96828125 3.94140625 221.98828125 C3.94140625 222.64828125 3.94140625 223.30828125 3.94140625 223.98828125 C2.23693668 224.60326386 0.52746216 225.20436881 -1.18359375 225.80078125 C-2.13492188 226.13722656 -3.08625 226.47367188 -4.06640625 226.8203125 C-15.10475346 230.22737886 -25.65945314 231.4482242 -37.18359375 231.30078125 C-38.45074219 231.30400391 -39.71789062 231.30722656 -41.0234375 231.31054688 C-52.08408632 231.24789644 -62.41975158 229.75242935 -72.99609375 226.55078125 C-74.06827148 226.24430664 -74.06827148 226.24430664 -75.16210938 225.93164062 C-79.2001831 224.73254565 -82.48484204 223.27151151 -86.05859375 220.98828125 C-87.39675334 220.42759986 -88.75078487 219.90252887 -90.12109375 219.42578125 C-92.87279788 218.43745652 -95.48131236 217.38430867 -98.05859375 215.98828125 C-98.05859375 215.32828125 -98.05859375 214.66828125 -98.05859375 213.98828125 C-99.38117188 213.61896484 -99.38117188 213.61896484 -100.73046875 213.2421875 C-106.41769419 211.09946524 -110.5126099 206.93103605 -115.05859375 202.98828125 C-116.30189453 201.94800781 -116.30189453 201.94800781 -117.5703125 200.88671875 C-122.64118137 196.52626146 -127.20357203 191.81002339 -131.62109375 186.80078125 C-132.14630615 186.21852783 -132.67151855 185.63627441 -133.21264648 185.03637695 C-136.30495656 181.43832241 -137.75366604 178.88943639 -138.05859375 173.98828125 C-138.71859375 173.98828125 -139.37859375 173.98828125 -140.05859375 173.98828125 C-143.79461419 166.80240364 -147.06248722 159.51101312 -150.05859375 151.98828125 C-150.50589844 150.95316406 -150.95320313 149.91804687 -151.4140625 148.8515625 C-159.9990002 127.57803653 -159.3318841 100.45724795 -152.05859375 78.98828125 C-151.7440625 77.96605469 -151.42953125 76.94382812 -151.10546875 75.890625 C-146.44636257 61.6016057 -139.07431525 48.22048714 -129.05859375 36.98828125 C-128.07246094 35.82425781 -128.07246094 35.82425781 -127.06640625 34.63671875 C-119.69818196 26.06434885 -110.07340903 16.14922022 -99.4140625 11.9453125 C-97.05029581 11.16280116 -97.05029581 11.16280116 -95.6484375 9.578125 C-76.87971515 -9.19059735 -22.54204367 -12.13123681 0 0 Z M-110.68359375 43.30078125 C-111.18060791 43.79215576 -111.67762207 44.28353027 -112.18969727 44.78979492 C-117.14713393 49.64495117 -117.14713393 49.64495117 -119.05859375 55.98828125 C-119.71859375 55.98828125 -120.37859375 55.98828125 -121.05859375 55.98828125 C-122.53934329 58.04586897 -123.87336224 60.07616777 -125.18359375 62.23828125 C-125.74240234 63.11806641 -125.74240234 63.11806641 -126.3125 64.015625 C-128.37340431 67.37497451 -129.05859375 68.94299129 -129.05859375 72.98828125 C-129.71859375 72.98828125 -130.37859375 72.98828125 -131.05859375 72.98828125 C-131.71859375 76.61828125 -132.37859375 80.24828125 -133.05859375 83.98828125 C-133.71859375 83.98828125 -134.37859375 83.98828125 -135.05859375 83.98828125 C-136.99053748 95.41894834 -138.62296541 106.36801341 -138.05859375 117.98828125 C-138.03925781 118.93058594 -138.01992188 119.87289062 -138 120.84375 C-137.03933787 141.94920589 -128.11479066 162.35374019 -114.05859375 177.98828125 C-113.2696875 178.98794922 -113.2696875 178.98794922 -112.46484375 180.0078125 C-108.89784339 184.440335 -104.84076442 187.9458544 -100.37109375 191.42578125 C-99.81204346 191.86341797 -99.25299316 192.30105469 -98.67700195 192.75195312 C-95.8946313 194.85550368 -93.56418532 196.51916316 -90.05859375 196.98828125 C-90.05859375 197.64828125 -90.05859375 198.30828125 -90.05859375 198.98828125 C-82.32156329 203.63980257 -74.74822679 206.60470681 -66.05859375 208.98828125 C-64.23328125 209.54515625 -64.23328125 209.54515625 -62.37109375 210.11328125 C-54.21362776 212.26808359 -46.56660811 213.32530279 -38.12109375 213.23828125 C-37.14817383 213.23006348 -36.17525391 213.2218457 -35.17285156 213.21337891 C-20.29146589 212.98093536 -6.74969661 208.66108881 6.94140625 202.98828125 C6.94140625 202.32828125 6.94140625 201.66828125 6.94140625 200.98828125 C7.79025391 200.818125 7.79025391 200.818125 8.65625 200.64453125 C25.77022789 195.72974786 41.55144329 177.17165514 49.93359375 162.21826172 C64.06840054 136.08082529 67.87004516 111.28819344 59.60766602 82.45507812 C58.23464323 77.8747683 56.76260335 73.4116869 54.94140625 68.98828125 C54.28140625 68.98828125 53.62140625 68.98828125 52.94140625 68.98828125 C52.83699219 68.27285156 52.73257813 67.55742187 52.625 66.8203125 C51.86618358 63.67664448 50.67646919 61.43612352 49.00390625 58.67578125 C48.47925781 57.79277344 47.95460938 56.90976562 47.4140625 56 C46.92808594 55.33613281 46.44210937 54.67226563 45.94140625 53.98828125 C45.28140625 53.98828125 44.62140625 53.98828125 43.94140625 53.98828125 C43.94140625 53.32828125 43.94140625 52.66828125 43.94140625 51.98828125 C43.28140625 51.98828125 42.62140625 51.98828125 41.94140625 51.98828125 C41.86277344 51.42238281 41.78414062 50.85648437 41.703125 50.2734375 C38.33267442 40.16208577 21.20550257 28.92972542 11.94140625 24.17578125 C10.28341464 23.42709867 8.61582263 22.69947152 6.94140625 21.98828125 C5.83925781 21.48683594 4.73710938 20.98539062 3.6015625 20.46875 C-8.66029358 14.9968468 -19.35186986 12.50076296 -32.81054688 12.65209961 C-35.05505328 12.67574395 -37.2983686 12.6726318 -39.54296875 12.66601562 C-67.63082617 12.71855072 -90.82746927 23.65754216 -110.68359375 43.30078125 Z " fill="#282424" transform="translate(561.05859375,307.01171875)"/>
<path d="M0 0 C0.99 0.33 1.98 0.66 3 1 C3.8046875 3.65625 3.8046875 3.65625 4 7 C2.42708516 9.14656614 1.03301386 10.7058928 -0.875 12.5 C-17.79350699 29.69719022 -27.01130844 52.57596424 -31 76 C-31.18820312 76.84820312 -31.37640625 77.69640625 -31.5703125 78.5703125 C-35.85937837 102.8230304 -28.55524738 130.28384183 -16 151 C-16 151.66 -16 152.32 -16 153 C-15.34 153 -14.68 153 -14 153 C-13.44505859 154.50433594 -13.44505859 154.50433594 -12.87890625 156.0390625 C-10.96789883 160.48207099 -8.14033189 163.79577387 -4.9375 167.375 C-4.35895264 168.02984375 -3.78040527 168.6846875 -3.18432617 169.359375 C5.15415957 178.6695916 14.58210375 187.60387095 26 193 C26 193.66 26 194.32 26 195 C26.54011719 195.11601563 27.08023438 195.23203125 27.63671875 195.3515625 C30.48043595 196.1318221 33.09728143 197.22477904 35.8125 198.375 C37.30716797 199.00535156 37.30716797 199.00535156 38.83203125 199.6484375 C41.02745252 200.58507839 43.21181651 201.5479032 45.38671875 202.53125 C49.22496545 204.09144541 52.98112473 205.16262565 57 206.125 C57.67289062 206.29386719 58.34578125 206.46273437 59.0390625 206.63671875 C78.74869013 211.46900197 103.75435885 211.62621088 122.77734375 203.8671875 C125 203 125 203 128 203 C128 202.34 128 201.68 128 201 C129.26839526 200.49384702 130.53983102 199.99530901 131.8125 199.5 C132.87404297 199.08234375 132.87404297 199.08234375 133.95703125 198.65625 C136 198 136 198 139 198 C139 197.34 139 196.68 139 196 C139.55945313 195.75507812 140.11890625 195.51015625 140.6953125 195.2578125 C150.38449464 190.74034816 167.04657183 181.90685634 172 172 C172.66 172 173.32 172 174 172 C174.22429687 171.47921875 174.44859375 170.9584375 174.6796875 170.421875 C176.49424109 167.09340391 178.78914175 164.22707424 181.125 161.25 C181.82689453 160.34701172 181.82689453 160.34701172 182.54296875 159.42578125 C183.69225007 157.94813384 184.84571235 156.47373995 186 155 C187.9375 155.375 187.9375 155.375 190 156 C191.69535269 159.39070538 191.64828553 162.35751437 191 166 C183.39319848 185.99852657 167.17693602 203.11823696 149 214 C147.35182423 214.71115318 145.69040802 215.39606049 144 216 C144 216.66 144 217.32 144 218 C112.49154983 230.92367873 81.36872214 235.64413935 48 226 C48 225.34 48 224.68 48 224 C47.28457031 223.92523437 46.56914062 223.85046875 45.83203125 223.7734375 C37.39735978 222.66045368 30.54246336 219.86855379 23 216 C23 215.34 23 214.68 23 214 C20.36095629 212.58622659 17.92879371 211.62759865 15 211 C15 210.34 15 209.68 15 209 C14.319375 208.7525 13.63875 208.505 12.9375 208.25 C-0.40220496 202.5735298 -9.54907974 191.62183073 -19 181 C-19.57363281 180.37738281 -20.14726562 179.75476563 -20.73828125 179.11328125 C-25.27957482 174.07913411 -28.84822326 168.45533023 -31 162 C-31.66 162 -32.32 162 -33 162 C-34.25664978 159.09399739 -35 157.20395416 -35 154 C-35.66 154 -36.32 154 -37 154 C-37.83919398 151.73117913 -38.67151724 149.46022973 -39.5 147.1875 C-39.73847656 146.54490234 -39.97695313 145.90230469 -40.22265625 145.24023438 C-41.27068746 142.35066261 -42 140.09923939 -42 137 C-42.66 137 -43.32 137 -44 137 C-44.63654967 134.64847426 -45.25900927 132.29442909 -45.875 129.9375 C-46.04902344 129.30005859 -46.22304688 128.66261719 -46.40234375 128.00585938 C-49.6273916 115.52372972 -50.38079799 102.90156243 -50.3125 90.0625 C-50.31100952 89.36444244 -50.30951904 88.66638489 -50.3079834 87.94717407 C-50.24693576 72.02262491 -48.42003562 57.37838013 -41 43 C-40.34 43 -39.68 43 -39 43 C-39.0825 42.175 -39.165 41.35 -39.25 40.5 C-38.77943983 33.91215768 -35.64297734 29.49788429 -31 25 C-30.03168546 23.28931098 -29.06465007 21.57779411 -28.1171875 19.85546875 C-22.48492122 10.50118035 -11.37564932 -1.07317446 0 0 Z " fill="#FBE7E2" transform="translate(437,328)"/>
<path d="M0 0 C-5.01772703 2.34160595 -9.98489523 3.89301785 -15.3515625 5.25390625 C-18.02758983 5.94871995 -18.02758983 5.94871995 -20.5859375 7.08984375 C-23 8 -23 8 -27 8 C-27 8.66 -27 9.32 -27 10 C-30.47307692 12.10865385 -30.47307692 12.10865385 -33.140625 11.55859375 C-34.06101562 11.28208984 -34.06101562 11.28208984 -35 11 C-33.44424022 10.15415002 -31.8800388 9.32381601 -30.3125 8.5 C-29.44238281 8.0359375 -28.57226562 7.571875 -27.67578125 7.09375 C-24.88211171 5.95181208 -22.98370887 5.78495792 -20 6 C-20 5.34 -20 4.68 -20 4 C-19.01257813 3.72285156 -18.02515625 3.44570312 -17.0078125 3.16015625 C-15.71351203 2.79437568 -14.41924281 2.42848451 -13.125 2.0625 C-12.47402344 1.88009766 -11.82304687 1.69769531 -11.15234375 1.50976562 C-2.83113405 -0.84934022 -2.83113405 -0.84934022 0 0 Z " fill="#FBBCB5" transform="translate(457,249)"/>
<path d="M0 0 C0.33 0.99 0.66 1.98 1 3 C-1.2375915 5.32478781 -3.49204232 7.63250154 -5.75 9.9375 C-6.70132813 10.9265332 -6.70132813 10.9265332 -7.671875 11.93554688 C-8.6 12.87817383 -8.6 12.87817383 -9.546875 13.83984375 C-10.39523926 14.71177368 -10.39523926 14.71177368 -11.26074219 15.60131836 C-13.17525154 17.14093431 -14.59987554 17.59308235 -17 18 C-11.72898586 11.58930713 -5.90871848 5.81409488 0 0 Z " fill="#523631" transform="translate(600,721)"/>
<path d="M0 0 C-0.33 0.99 -0.66 1.98 -1 3 C-1.83144531 2.98839844 -2.66289062 2.97679687 -3.51953125 2.96484375 C-5.14955078 2.95130859 -5.14955078 2.95130859 -6.8125 2.9375 C-8.43091797 2.92009766 -8.43091797 2.92009766 -10.08203125 2.90234375 C-13.06512169 2.86375234 -13.06512169 2.86375234 -16 4 C-17.39439664 4.06665376 -18.79169875 4.08538199 -20.1875 4.0625 C-22.0746875 4.0315625 -22.0746875 4.0315625 -24 4 C-21.16572423 1.16572423 -18.75592507 1.36549512 -14.8125 0.875 C-13.51957031 0.70742187 -12.22664063 0.53984375 -10.89453125 0.3671875 C-7.23360504 0.02202495 -3.67419287 -0.06671686 0 0 Z " fill="#A89D9C" transform="translate(505,214)"/>
<path d="M0 0 C-1 3 -1 3 -2.77734375 4.16796875 C-3.49019531 4.50441406 -4.20304687 4.84085938 -4.9375 5.1875 C-6.00291016 5.70376953 -6.00291016 5.70376953 -7.08984375 6.23046875 C-9 7 -9 7 -11 7 C-11 7.99 -11 8.98 -11 10 C-14 12 -14 12 -16.1875 11.625 C-16.785625 11.41875 -17.38375 11.2125 -18 11 C-14.25 8 -14.25 8 -12 8 C-12 7.34 -12 6.68 -12 6 C-9.8828125 4.4921875 -9.8828125 4.4921875 -7.125 2.875 C-6.22007812 2.33617187 -5.31515625 1.79734375 -4.3828125 1.2421875 C-2 0 -2 0 0 0 Z " fill="#BBB3B0" transform="translate(415,245)"/>
<path d="M0 0 C0.99 0.33 1.98 0.66 3 1 C3 1.66 3 2.32 3 3 C2.34 3 1.68 3 1 3 C0.9175 3.680625 0.835 4.36125 0.75 5.0625 C-0.22332528 8.8746907 -1.95807455 11.64070329 -4 15 C-4.66 15 -5.32 15 -6 15 C-5.67 13.02 -5.34 11.04 -5 9 C-4.01 8.67 -3.02 8.34 -2 8 C-2 7.01 -2 6.02 -2 5 C-1.34 5 -0.68 5 0 5 C-0.33 4.01 -0.66 3.02 -1 2 C-0.67 1.34 -0.34 0.68 0 0 Z " fill="#494647" transform="translate(704,606)"/>
<path d="M0 0 C0 3 0 3 -2.37109375 5.62890625 C-3.38586139 6.61441454 -4.40835389 7.59201649 -5.4375 8.5625 C-9.17489401 11.92358607 -9.17489401 11.92358607 -12 16 C-12.66 15.67 -13.32 15.34 -14 15 C-9.79211991 9.24454091 -5.58490476 4.44512827 0 0 Z " fill="#F9D6CE" transform="translate(423,333)"/>
<path d="M0 0 C-1.2578125 1.4921875 -1.2578125 1.4921875 -3 3 C-5.07838676 3.06704473 -7.16018689 3.11462957 -9.23828125 3.0390625 C-14.50693511 2.96454123 -19.75467964 3.54600009 -25 4 C-25 3.67 -25 3.34 -25 3 C-22.14694871 2.49279088 -19.29283186 1.99406366 -16.4375 1.5 C-15.63763672 1.35691406 -14.83777344 1.21382812 -14.01367188 1.06640625 C-9.26475402 0.25230605 -4.81753923 -0.15519589 0 0 Z " fill="#5B595A" transform="translate(499,197)"/>
<path d="M0 0 C0.66 0.33 1.32 0.66 2 1 C-2.33333333 5.33333333 -6.66666667 9.66666667 -11 14 C-11.66 13.67 -12.32 13.34 -13 13 C-9.57338216 8.28840047 -5.40481284 4.74963472 -1 1 C-0.67 0.67 -0.34 0.34 0 0 Z " fill="#4F4241" transform="translate(449,327)"/>
<path d="M0 0 C0.66 1.32 1.32 2.64 2 4 C-0.31537955 7.72114571 -2.28579473 10.61229661 -6 13 C-5.42198762 9.09841646 -3.41713779 7.02142223 -1 4 C-0.22166466 1.81785432 -0.22166466 1.81785432 0 0 Z " fill="#F3A299" transform="translate(738,426)"/>
<path d="M0 0 C4.25 6.375 4.25 6.375 4.125 10.6875 C4.10695313 11.49574219 4.08890625 12.30398438 4.0703125 13.13671875 C4.03550781 14.05904297 4.03550781 14.05904297 4 15 C3.34 15 2.68 15 2 15 C1.66223316 13.2508503 1.32996329 11.50063855 1 9.75 C0.814375 8.77546875 0.62875 7.8009375 0.4375 6.796875 C0 4 0 4 0 0 Z " fill="#3D3836" transform="translate(739,388)"/>
<path d="M0 0 C0.66 0.99 1.32 1.98 2 3 C0.02 4.98 -1.96 6.96 -4 9 C-4.99 8.67 -5.98 8.34 -7 8 C-4.69 5.36 -2.38 2.72 0 0 Z " fill="#CCC0BB" transform="translate(618,490)"/>
<path d="M0 0 C2.49505962 2.49505962 2.35948376 3.67328888 2.625 7.125 C2.69976563 8.03507812 2.77453125 8.94515625 2.8515625 9.8828125 C2.92503906 10.93082031 2.92503906 10.93082031 3 12 C2.67 11.34 2.34 10.68 2 10 C1.34 10 0.68 10 0 10 C-0.95024979 6.30458414 -0.95024979 3.69541586 0 0 Z " fill="#4D4949" transform="translate(752,365)"/>
<path d="M0 0 C0.33 0.99 0.66 1.98 1 3 C-1.31 5.31 -3.62 7.62 -6 10 C-6.66 9.67 -7.32 9.34 -8 9 C-5.36 6.03 -2.72 3.06 0 0 Z " fill="#D3C4BF" transform="translate(370,281)"/>
<path d="M0 0 C-3.14573677 2.09715785 -5.01456251 2.52004559 -8.6875 3.125 C-9.68136719 3.29257813 -10.67523438 3.46015625 -11.69921875 3.6328125 C-12.45847656 3.75398437 -13.21773438 3.87515625 -14 4 C-11.97803833 1.97803833 -10.74135514 1.32448642 -8.125 0.3125 C-7.44695312 0.04050781 -6.76890625 -0.23148438 -6.0703125 -0.51171875 C-3.68892218 -1.07336741 -2.29569809 -0.76694846 0 0 Z " fill="#6A696A" transform="translate(457,207)"/>
<path d="M0 0 C0.99 0 1.98 0 3 0 C1.75023244 3.65316671 1.32901247 4.78065836 -2 7 C-1.125 1.125 -1.125 1.125 0 0 Z " fill="#2A2929" transform="translate(340,289)"/>
<path d="M0 0 C0.33 0 0.66 0 1 0 C1 1.98 1 3.96 1 6 C-0.32 6.33 -1.64 6.66 -3 7 C-1.125 2.25 -1.125 2.25 0 0 Z " fill="#363333" transform="translate(713,590)"/>
<path d="M0 0 C0.33 0.66 0.66 1.32 1 2 C0.22265625 3.9453125 0.22265625 3.9453125 -0.9375 6.125 C-1.31777344 6.84945312 -1.69804688 7.57390625 -2.08984375 8.3203125 C-2.39019531 8.87460937 -2.69054687 9.42890625 -3 10 C-4.33332095 7.3333581 -3.67102033 5.83319697 -3 3 C-2.34 3 -1.68 3 -1 3 C-0.67 2.01 -0.34 1.02 0 0 Z " fill="#5E5E5E" transform="translate(723,573)"/>
<path d="M0 0 C0.66 0.33 1.32 0.66 2 1 C0.75 3.4375 0.75 3.4375 -1 6 C-2.32 6.33 -3.64 6.66 -5 7 C-3.35 4.69 -1.7 2.38 0 0 Z " fill="#DDD0CA" transform="translate(609,500)"/>
<path d="M0 0 C1.1577506 3.47325181 1.06866652 6.36067448 1 10 C0.01 10.33 -0.98 10.66 -2 11 C-1.85892253 9.54119891 -1.71197585 8.08296449 -1.5625 6.625 C-1.48128906 5.81289063 -1.40007812 5.00078125 -1.31640625 4.1640625 C-1 2 -1 2 0 0 Z " fill="#A75750" transform="translate(320,368)"/>
</svg>
