<?xml version="1.0" encoding="UTF-8"?>
<svg version="1.1" xmlns="http://www.w3.org/2000/svg" width="1056" height="992">
<path d="M0 0 C348.48 0 696.96 0 1056 0 C1056 327.36 1056 654.72 1056 992 C707.52 992 359.04 992 0 992 C0 664.64 0 337.28 0 0 Z " fill="#FDFEFE" transform="translate(0,0)"/>
<path d="M0 0 C3.96138863 2.61500255 7.63090668 5.4770054 11.25341797 8.53173828 C13.78187387 10.65728116 16.35389511 12.72781861 18.92236328 14.8046875 C20.19850903 15.83871497 21.47197147 16.87607037 22.74169922 17.91796875 C23.99204105 18.94334816 25.25249169 19.95650356 26.5218811 20.95820618 C28.36856259 22.47974045 30.15160652 24.07914292 31.89758301 25.71525574 C41.05062048 34.00970831 47.83743536 35.53241733 59.94140625 35.1171875 C61.52364845 35.1063789 63.10593806 35.10121041 64.68821716 35.10134888 C68.80915971 35.09013271 72.92644645 35.01794177 77.04632568 34.9274292 C83.66819004 34.78945027 90.29053061 34.73282145 96.91364861 34.70175552 C99.21529143 34.68005163 101.51417139 34.62371252 103.81507874 34.5632019 C105.22509517 34.54610268 106.63512451 34.53002561 108.04516602 34.51513672 C109.27090836 34.4886203 110.4966507 34.46210388 111.75953674 34.43478394 C116.01204881 35.17652607 117.45332759 36.56125261 120 40 C120.55175781 42.72915649 120.55175781 42.72915649 120.453125 45.71728516 C120.43080811 46.84260651 120.40849121 47.96792786 120.38549805 49.12734985 C120.34078369 50.33571503 120.29606934 51.5440802 120.25 52.7890625 C120.21772256 55.36585729 120.18785117 57.94268313 120.16015625 60.51953125 C120.09580806 64.56920875 120.0043908 68.61668799 119.86669922 72.66455078 C118.53674725 88.22330204 118.53674725 88.22330204 123.79174805 102.15185547 C126.88651899 105.06852816 130.26213519 107.00261241 134 109 C135.6315485 110.25690213 137.24238715 111.54214625 138.8125 112.875 C139.60011719 113.50019531 140.38773438 114.12539063 141.19921875 114.76953125 C146.92024925 119.32560993 152.59235317 123.9406171 158.24707031 128.57861328 C159.65435145 129.71972621 161.08530372 130.83161818 162.5234375 131.93359375 C172.03106516 139.46829472 177.81754269 151.2025458 180 163 C180.72110356 169.95632756 180.53790577 176.97774061 180.50170898 183.96166992 C180.50549829 186.05571352 180.51100336 188.14975461 180.51808167 190.24378967 C180.53197101 195.89651149 180.52091354 201.54892671 180.50437045 207.20163131 C180.49045802 213.13330905 180.49698685 219.06497012 180.50050354 224.99665833 C180.50320014 234.95184231 180.48977522 244.90690534 180.46655273 254.86206055 C180.43992462 266.35642674 180.43820498 277.85059107 180.4499411 289.34497756 C180.46073398 300.4268375 180.45452134 311.50862472 180.44038582 322.5904789 C180.43464135 327.29637696 180.43469652 332.00222154 180.43945122 336.70812035 C180.44423677 342.25111027 180.43405392 347.79388013 180.41249657 353.33682823 C180.40695084 355.36606606 180.40644296 357.39532513 180.41144943 359.42456436 C180.44724948 376.02089555 178.87897041 387.59324754 167.3125 400.25 C157.04934149 410.10106228 143.79905817 411.29957746 130.2936554 411.27415466 C128.90183052 411.27861191 127.51000818 411.28392755 126.11818951 411.29002339 C122.30761061 411.30415534 118.49711346 411.3058676 114.68651211 411.30542648 C110.5711475 411.30707893 106.45581616 411.32015338 102.34046936 411.33161926 C93.3486219 411.35443472 84.3567981 411.36238606 75.36492562 411.36744571 C69.7465017 411.37070655 64.1280846 411.37723134 58.50966454 411.3844471 C42.94222008 411.40400801 27.37478195 411.42041537 11.80732441 411.42332363 C10.81182308 411.4235112 9.81632175 411.42369877 8.79065372 411.42389202 C6.77269153 411.42425827 4.75472934 411.42462196 2.73676715 411.42498314 C1.23426834 411.42525735 1.23426834 411.42525735 -0.29858398 411.42553711 C-1.8029246 411.42580793 -1.8029246 411.42580793 -3.33765594 411.42608423 C-19.58527202 411.4296253 -35.83275552 411.4566458 -52.08032563 411.494035 C-68.77658198 411.53214812 -85.47277259 411.55148132 -102.1690734 411.55178314 C-111.53738509 411.55236701 -120.90553856 411.56081362 -130.27380943 411.58978081 C-138.25126143 411.61433483 -146.2284975 411.62155045 -154.2059771 411.60653328 C-158.27251134 411.59938096 -162.33861955 411.60014882 -166.40510559 411.62294388 C-170.13555491 411.64365404 -173.86525393 411.64082302 -177.59569619 411.62006903 C-179.56806702 411.61496545 -181.54045575 411.63426087 -183.51272696 411.65473074 C-195.42947777 411.54346642 -205.66082933 408.13781424 -214.7734375 400.31640625 C-224.04747426 390.66815397 -227.15016211 380.29817833 -227.14717102 367.27964783 C-227.15268605 365.98102156 -227.15268605 365.98102156 -227.1583125 364.65616041 C-227.16930594 361.76157157 -227.1731858 358.86701867 -227.17700195 355.97241211 C-227.18326992 353.8941232 -227.18991701 351.81583541 -227.19691467 349.73754883 C-227.21791911 342.91748835 -227.22831418 336.09742775 -227.23828125 329.27734375 C-227.24233026 326.92561901 -227.24644722 324.57389438 -227.25063133 322.22216988 C-227.26967561 311.1712929 -227.28390785 300.12042256 -227.2922433 289.06953233 C-227.30201103 276.33155985 -227.32832179 263.59376136 -227.36874419 250.85585016 C-227.39894799 240.99828127 -227.41371625 231.14076213 -227.41702431 221.28314787 C-227.41937003 215.40129688 -227.42826833 209.51963191 -227.45348549 203.63783073 C-227.47684557 198.09984587 -227.4809675 192.56216849 -227.47072411 187.02414703 C-227.47023056 184.99938239 -227.47649722 182.9746022 -227.49028015 180.94988441 C-227.60657302 162.84322647 -224.89286811 147.97806097 -212.2109375 134.10546875 C-208.37420934 130.45176472 -204.16238666 127.2829003 -199.9609375 124.06640625 C-195.63954134 120.74970749 -191.44357167 117.28856688 -187.25 113.8125 C-181.76816228 109.27544638 -176.26529232 104.77436165 -170.6875 100.35546875 C-169.07132413 99.10748095 -169.07132413 99.10748095 -168 98 C-167.89235083 96.17510503 -167.85373732 94.34609782 -167.84228516 92.51806641 C-167.82689194 90.76086777 -167.82689194 90.76086777 -167.81118774 88.96817017 C-167.80388641 87.69218964 -167.79658508 86.41620911 -167.7890625 85.1015625 C-167.76818497 83.11398129 -167.7472902 81.12640009 -167.72536278 79.13883018 C-167.67206835 74.2189255 -167.62796893 69.29901293 -167.59863281 64.37890625 C-167.5817574 61.62325886 -167.55708712 58.86789384 -167.52377319 56.11239624 C-167.49267542 53.51162148 -167.47335706 50.91067507 -167.46670532 48.3097229 C-167.45013885 47.13195282 -167.43357239 45.95418274 -167.41650391 44.74072266 C-167.40841705 43.70227203 -167.4003302 42.66382141 -167.39199829 41.59390259 C-167 39 -167 39 -165.90118408 37.15731812 C-162.99086183 35.38570184 -160.54708045 35.68249756 -157.16455078 35.7421875 C-156.47298386 35.74966507 -155.78141693 35.75714264 -155.06889343 35.7648468 C-153.56613447 35.78184693 -152.06343624 35.80509642 -150.56085587 35.83383179 C-148.17083073 35.87542606 -145.7819319 35.89161217 -143.39157104 35.8996582 C-136.59525144 35.92351319 -129.80012414 35.96377879 -123.00488281 36.09228516 C-118.84455418 36.16910652 -114.68685446 36.19098744 -110.52587509 36.17901611 C-108.95108042 36.18459908 -107.37621162 36.20990889 -105.80209732 36.25653076 C-96.75227613 36.51594252 -90.68659495 35.83801585 -83.73388672 29.671875 C-81.77848104 27.82056693 -79.893854 25.91582387 -78 24 C-76.39531097 22.66274372 -74.77425276 21.3443918 -73.125 20.0625 C-70.21419062 17.76598481 -67.32564074 15.44895085 -64.46875 13.0859375 C-45.59588337 -2.43460771 -23.66839567 -12.71133765 0 0 Z " fill="#172143" transform="translate(546,300)"/>
<path d="M0 0 C84.81 0 169.62 0 257 0 C257.433125 35.7946875 257.433125 35.7946875 257.875 72.3125 C258.00245605 79.83458252 258.12991211 87.35666504 258.26123047 95.10668945 C258.32446289 104.32458496 258.32446289 104.32458496 258.33621216 108.64616394 C258.3492094 111.65216553 258.40144641 114.65467294 258.47805786 117.65971375 C259.12845116 144.33273698 259.12845116 144.33273698 254.03179932 150.29354858 C251.22818639 152.80046656 248.26150758 154.51379553 244.85017967 156.06309891 C241.60696824 157.70540877 238.91002784 160.06272731 236.125 162.375 C235.48191895 162.8788623 234.83883789 163.38272461 234.17626953 163.90185547 C229.0579648 167.93205492 224.00857616 172.04485773 218.96142578 176.16357422 C214.11547458 180.11165074 209.21847906 183.98784811 204.29125977 187.83374023 C199.79333067 191.35377562 195.36124324 194.94988183 190.9375 198.5625 C188.94061659 200.18442488 186.9422829 201.80453301 184.94287109 203.42333984 C183.65659621 204.46716533 182.37301996 205.51432583 181.09228516 206.56494141 C179.32121924 208.01416495 177.53772455 209.44641082 175.75 210.875 C174.73421875 211.69742188 173.7184375 212.51984375 172.671875 213.3671875 C170 215 170 215 168.01953125 215.0546875 C165.02841688 213.49259682 162.52661548 211.3872488 159.9375 209.25 C147.52184189 199.34460193 135.60305392 196.97821379 120 198 C108.8858343 199.73704841 99.41338092 206.20351592 91.19140625 213.55859375 C89 215 89 215 87.08203125 215.02734375 C84.03522735 213.52394895 81.64323681 211.36554892 79.125 209.125 C77.95884478 208.11249082 76.79081571 207.10213652 75.62109375 206.09375 C74.72173096 205.31837891 74.72173096 205.31837891 73.80419922 204.52734375 C70.99304106 202.14755952 68.09633662 199.88355778 65.1875 197.625 C60.07314731 193.64494228 55.01962339 189.59890688 50 185.5 C44.47835938 180.99353705 38.91246645 176.55273133 33.29345703 172.16845703 C28.14380272 168.13949824 23.07426066 164.01506785 18.03125 159.85351562 C17.11472656 159.10231445 17.11472656 159.10231445 16.1796875 158.3359375 C15.57923237 157.83272696 14.97877724 157.32951643 14.3601265 156.81105709 C11.96532644 154.90166768 11.96532644 154.90166768 9.01472092 153.21257114 C0.66819621 147.92979211 0.66819621 147.92979211 -1.09056854 142.85037041 C-1.4747947 139.06203451 -1.48793794 135.3721423 -1.36230469 131.57592773 C-1.35862275 130.11303879 -1.36024072 128.65012856 -1.36668777 127.18724918 C-1.36938262 123.29082852 -1.30017629 119.3988859 -1.21536255 115.50351715 C-1.14669167 111.84014286 -1.14378907 108.17782231 -1.13525391 104.51379395 C-1.0724448 93.82110928 -0.90490815 83.129247 -0.75 72.4375 C-0.5025 48.533125 -0.255 24.62875 0 0 Z " fill="#FDFDFD" transform="translate(394,350)"/>
<path d="M0 0 C4.40066713 2.60495866 8.07412938 5.75496129 11.87329102 9.1418457 C15.08028469 11.9316078 18.47304432 14.45490205 21.875 17 C28.64725914 22.11981294 35.23946535 27.41904056 41.76904297 32.84375 C46.6826776 36.92085224 51.66101981 40.89901414 56.69775391 44.82250977 C61.18109515 48.32243735 65.59623651 51.90063426 70 55.5 C74.75918711 59.38737895 79.55124605 63.21090088 84.4375 66.9375 C90.02586614 71.19957899 95.48378513 75.60389299 100.92578125 80.05078125 C105.22686608 83.56086198 109.56126186 87.02167075 113.9375 90.4375 C118.98604088 94.37935346 123.97498614 98.38791265 128.9375 102.4375 C138.78438554 110.46842006 148.72210541 118.37810801 158.9375 125.9375 C158.6075 126.9275 158.2775 127.9175 157.9375 128.9375 C153.88358644 130.70413944 150.34332921 131.18823809 145.95291901 131.19197559 C144.7707686 131.19780779 143.58861819 131.20363998 142.37064505 131.20964891 C141.08096524 131.20586958 139.79128543 131.20209026 138.46252441 131.19819641 C137.07156243 131.20121809 135.68060211 131.20510765 134.28964472 131.20978898 C130.47242544 131.22007543 126.65530002 131.21788553 122.83807302 131.21360838 C118.7194055 131.21114238 114.60076066 131.2201537 110.48210144 131.22764587 C102.41562979 131.2403978 94.34919142 131.242186 86.28271139 131.23984561 C79.72731428 131.23806306 73.17192727 131.23981074 66.61653137 131.24407005 C65.68377991 131.24466524 64.75102845 131.24526043 63.79001179 131.24587366 C61.89518638 131.24708539 60.00036097 131.24829953 58.10553557 131.24951603 C40.33485728 131.26039321 22.56419796 131.25822808 4.7935186 131.25213119 C-11.46861776 131.24696031 -27.73069425 131.25822166 -43.99281877 131.27722941 C-60.68784658 131.29659371 -77.38284604 131.30486638 -94.07788515 131.30110615 C-103.45210522 131.29919217 -112.82627431 131.30170097 -122.20048523 131.31582069 C-130.1796141 131.32771744 -138.1586606 131.32915849 -146.13779056 131.31703053 C-150.20941489 131.31113019 -154.28088842 131.31007423 -158.35250282 131.32203293 C-162.07942599 131.33285217 -165.80607173 131.32983591 -169.53298169 131.31577124 C-171.52054164 131.31185382 -173.50811373 131.32270358 -175.49564505 131.33406812 C-176.67779545 131.32686158 -177.85994586 131.31965503 -179.07791901 131.31223011 C-180.60521188 131.31231263 -180.60521188 131.31231263 -182.16335917 131.31239682 C-185.60757889 130.86701417 -188.05322479 129.62961544 -191.0625 127.9375 C-187.00991292 123.71901755 -182.65464319 120.0087297 -178.125 116.3125 C-177.37428223 115.69713379 -176.62356445 115.08176758 -175.85009766 114.44775391 C-170.13108593 109.77450432 -164.34623711 105.19123588 -158.5234375 100.6484375 C-154.84490274 97.77569701 -151.20252746 94.85878698 -147.5625 91.9375 C-142.77312432 88.09478254 -137.96244312 84.28200098 -133.125 80.5 C-127.36632072 75.99491077 -121.6882169 71.39633855 -116.02368164 66.77368164 C-111.1769637 62.82508877 -106.27882716 58.94887874 -101.3515625 55.1015625 C-96.87813025 51.59973545 -92.46392446 48.02927321 -88.0625 44.4375 C-80.23905867 38.05596002 -72.31177935 31.81550891 -64.35351562 25.60351562 C-62.63053937 24.25774739 -60.90897135 22.91019251 -59.1875 21.5625 C-58.61644531 21.11737061 -58.04539062 20.67224121 -57.45703125 20.21362305 C-54.27188338 17.71879746 -51.13891881 15.17596671 -48.046875 12.56640625 C-33.70488677 0.49496252 -18.67406304 -9.57533163 0 0 Z " fill="#85D7ED" transform="translate(538.0625,565.0625)"/>
<path d="M0 0 C0.66 0 1.32 0 2 0 C2.04670315 27.14658314 2.08198059 54.29316026 2.10362434 81.43977547 C2.11394064 94.04417386 2.12800776 106.64854731 2.15087891 119.25292969 C2.17080192 130.23781376 2.18371387 141.22267976 2.18817699 152.2075814 C2.1907862 158.02496761 2.19692641 163.84230213 2.21146011 169.65967178 C2.22502679 175.13428454 2.22922447 180.60882426 2.22621536 186.08345222 C2.22676593 188.09340753 2.23074879 190.10336527 2.23841095 192.11330605 C2.2483578 194.85696878 2.24596976 197.60035557 2.24050903 200.34402466 C2.24633472 201.1397558 2.2521604 201.93548695 2.25816262 202.75533116 C2.23410641 207.2255924 1.68786154 210.7862049 0 215 C-6.058289 211.28988503 -11.4821002 207.00196492 -16.85498047 202.37719727 C-20.76395829 199.02127075 -24.74609599 195.78801474 -28.8125 192.625 C-33.95049482 188.62718223 -39.02258293 184.55827777 -44.0625 180.4375 C-48.82161124 176.55003125 -53.61374954 172.72659646 -58.5 169 C-64.08836614 164.73792101 -69.54628513 160.33360701 -74.98828125 155.88671875 C-79.28936608 152.37663802 -83.62376186 148.91582925 -88 145.5 C-93.04853935 141.55814774 -98.03754051 137.54965238 -103 133.5 C-108.11142426 129.33020258 -113.24765321 125.19687024 -118.4375 121.125 C-119.29625732 120.45029663 -119.29625732 120.45029663 -120.17236328 119.76196289 C-122.72275369 117.76350045 -125.28532099 115.78455354 -127.87109375 113.83203125 C-128.69738281 113.20683594 -129.52367187 112.58164062 -130.375 111.9375 C-131.08398438 111.41027344 -131.79296875 110.88304687 -132.5234375 110.33984375 C-133.01070312 109.89769531 -133.49796875 109.45554687 -134 109 C-134 108.34 -134 107.68 -134 107 C-132.0360829 105.31532736 -130.06191296 103.74490234 -128 102.1875 C-126.70732004 101.1927216 -125.41569367 100.19657295 -124.125 99.19921875 C-123.44695313 98.67634277 -122.76890625 98.1534668 -122.0703125 97.61474609 C-118.67027697 94.96287876 -115.33681754 92.23067781 -112 89.5 C-106.47808274 84.99224485 -100.91029434 80.55214145 -95.29125977 76.16625977 C-90.79336154 72.64624854 -86.36014298 69.05143112 -81.9375 65.4375 C-76.1500513 60.71034725 -70.2818091 56.12160224 -64.33984375 51.58984375 C-59.82258932 48.11471951 -55.42459661 44.49267037 -51.01171875 40.88671875 C-46.15064177 36.91963294 -41.23749369 33.02689205 -36.29150391 29.16650391 C-31.11009781 25.11142668 -26.01579451 20.95329191 -20.92138672 16.78979492 C-15.52172117 12.39092376 -10.02646752 8.13296731 -4.4765625 3.92578125 C-1.99758622 2.08034829 -1.99758622 2.08034829 0 0 Z " fill="#86D6EC" transform="translate(709,467)"/>
<path d="M0 0 C2.82094019 1.37132867 5.15375421 2.79144977 7.57421875 4.79296875 C8.23695801 5.33711426 8.89969727 5.88125977 9.58251953 6.44189453 C10.27716309 7.01794434 10.97180664 7.59399414 11.6875 8.1875 C13.13617615 9.37696324 14.58539014 10.56577174 16.03515625 11.75390625 C16.72625488 12.32125488 17.41735352 12.88860352 18.12939453 13.47314453 C20.94546564 15.77172306 23.81323466 17.99891255 26.69140625 20.21875 C35.57649535 27.07425022 44.34292233 34.06744171 53.03735352 41.16259766 C57.32331459 44.65440295 61.64270284 48.09772688 66 51.5 C71.74091461 55.98263195 77.39887777 60.56044024 83.04125977 65.16625977 C87.30310909 68.63893482 91.60131101 72.05826306 95.9375 75.4375 C101.93152945 80.11174315 107.80417576 84.92351013 113.64599609 89.78637695 C117.11098589 92.66116746 120.59770256 95.48247661 124.19140625 98.1953125 C124.84496094 98.69160156 125.49851562 99.18789063 126.171875 99.69921875 C127.40195498 100.62686171 128.6399277 101.54416058 129.88671875 102.44921875 C131.53515625 103.6953125 131.53515625 103.6953125 134 106 C134 110 134 110 131.75390625 112.33984375 C130.70085636 113.21877398 129.63602806 114.08370264 128.5625 114.9375 C127.98701416 115.40986084 127.41152832 115.88222168 126.81860352 116.36889648 C121.3918774 120.78292143 115.81441711 125.00657993 110.23730469 129.2277832 C105.00663242 133.19439598 99.95627789 137.31372643 94.94140625 141.55078125 C91.18762276 144.6764416 87.34549325 147.67869104 83.49365234 150.68188477 C78.92673688 154.25091859 74.42499243 157.89428076 69.9375 161.5625 C64.15014324 166.28976218 58.28180463 170.87840117 52.33984375 175.41015625 C47.82339945 178.88465726 43.42642428 182.50629979 39.01391602 186.11108398 C34.13480554 190.0921341 29.21482214 194.01478344 24.24316406 197.87963867 C21.0886876 200.33678603 17.97646235 202.83419275 14.8984375 205.38671875 C13.87568726 206.22771118 13.87568726 206.22771118 12.83227539 207.08569336 C11.50938807 208.17576019 10.19316058 209.27397197 8.88452148 210.38110352 C7.31770572 211.66609193 5.66430322 212.8440581 4 214 C3.01 213.67 2.02 213.34 1 213 C-0.26870261 209.19389217 -0.13454147 205.63168504 -0.12025452 201.66682434 C-0.12110894 200.80671507 -0.12196337 199.9466058 -0.12284368 199.06043261 C-0.12449568 196.1676275 -0.11898165 193.27487989 -0.11352539 190.38208008 C-0.11324343 188.31269838 -0.11340142 186.24331658 -0.1139679 184.17393494 C-0.11425553 178.54618418 -0.1083642 172.9184546 -0.10139394 167.29070878 C-0.09515484 161.41301979 -0.09455616 155.53533034 -0.09336853 149.65763855 C-0.09025686 138.52295364 -0.08204567 127.38827851 -0.07201904 116.25359792 C-0.06085282 103.57904287 -0.05534617 90.90448735 -0.05032361 78.22992861 C-0.03986294 52.15328031 -0.02226666 26.0766407 0 0 Z " fill="#86D7ED" transform="translate(334,467)"/>
<path d="M0 0 C1.13407893 -0.00935994 1.13407893 -0.00935994 2.29106855 -0.01890898 C4.82623891 -0.03487278 7.36045228 -0.02222205 9.89562988 -0.00964355 C11.71237245 -0.01506319 13.52911063 -0.02218495 15.34584045 -0.03088379 C20.2817745 -0.04913899 25.21737461 -0.04204054 30.15331459 -0.02936745 C35.31510961 -0.01925116 40.47687575 -0.02862931 45.63867188 -0.03491211 C54.30754742 -0.04219251 62.97628673 -0.03259049 71.6451416 -0.0135498 C81.67224976 0.00821966 91.6990326 0.00116857 101.72613287 -0.02085543 C110.33005483 -0.03899822 118.93387876 -0.04157323 127.53781366 -0.03110075 C132.67882273 -0.02485966 137.81967882 -0.02404711 142.9606781 -0.0372467 C147.79362682 -0.04878826 152.62615549 -0.04081051 157.45905876 -0.01766968 C159.23441304 -0.01237351 161.00980257 -0.01391184 162.7851429 -0.02272034 C165.20563034 -0.03362396 167.62476518 -0.0199764 170.04516602 0 C171.1033344 -0.01338433 171.1033344 -0.01338433 172.18287992 -0.02703905 C175.52703814 0.02663306 177.25988223 0.30831507 179.95476532 2.35608673 C181.52258301 4.50793457 181.52258301 4.50793457 182.08508301 7.44543457 C181.32075935 11.60675228 179.8042585 12.88483402 176.52258301 15.50793457 C173.79232902 15.9997204 171.68543989 16.18224677 168.96287537 16.13612366 C167.83364012 16.14676524 167.83364012 16.14676524 166.68159205 16.1576218 C164.16314198 16.17520118 161.64623544 16.15709877 159.12780762 16.13903809 C157.3207682 16.14417691 155.5137338 16.15145792 153.70671082 16.16072083 C148.80174753 16.1792464 143.89732731 16.16628947 138.99238658 16.14663053 C133.86129665 16.13025481 128.7302414 16.1390553 123.59913635 16.14414978 C114.98327957 16.14867153 106.36763984 16.1327948 97.75183105 16.1048584 C87.78660801 16.07279601 77.82177623 16.07282592 67.85652536 16.09007317 C58.2739298 16.10592808 48.69147789 16.09921202 39.10888863 16.08213615 C35.02879584 16.07525833 30.94881793 16.07630558 26.86872673 16.08368111 C22.06611452 16.09133342 17.2639485 16.07925236 12.46141243 16.0518322 C10.69735158 16.04493658 8.93324915 16.04486297 7.16918945 16.05204773 C4.76406147 16.06071588 2.36031893 16.04483291 -0.04469299 16.02259827 C-1.09600178 16.03495942 -1.09600178 16.03495942 -2.16854912 16.04757029 C-5.47875852 15.99094483 -7.22641379 15.69499504 -9.91071224 13.69451809 C-12.20285054 10.49547767 -12.02535225 8.34348135 -11.47741699 4.50793457 C-8.31768469 0.08930364 -5.09140821 -0.0643991 0 0 Z " fill="#1A2243" transform="translate(437.4774169921875,380.4920654296875)"/>
<path d="M0 0 C1.12689526 -0.01041829 1.12689526 -0.01041829 2.27655607 -0.02104706 C4.79555775 -0.03935299 7.31362144 -0.02904324 9.83265686 -0.01878357 C11.63792629 -0.02584027 13.4431898 -0.03458423 15.2484436 -0.04489136 C20.15344137 -0.06742351 25.05811706 -0.06443665 29.96314692 -0.05556989 C34.05623433 -0.05046537 38.14926091 -0.05774822 42.24234205 -0.06504196 C51.89750089 -0.08205324 61.55250173 -0.07846287 71.20765686 -0.06175232 C81.1723119 -0.04482923 91.13652895 -0.06066537 101.10113615 -0.0929752 C109.65327415 -0.11965582 118.20527567 -0.12695124 126.75745112 -0.11846012 C131.86667859 -0.1135265 136.97564248 -0.11577004 142.08483696 -0.13624763 C146.88912813 -0.15458073 151.69278842 -0.14867515 156.49704552 -0.12404823 C158.26069574 -0.11903279 160.02439383 -0.1225491 161.78800583 -0.13519669 C164.19525487 -0.15109489 166.60041823 -0.13620967 169.00756836 -0.11352539 C170.05553106 -0.13127898 170.05553106 -0.13127898 171.12466472 -0.14939123 C174.91031187 -0.07686958 176.5121389 0.47170857 179.53585148 2.82736301 C181.567276 5.5146637 181.567276 5.5146637 181.629776 9.1396637 C180.4347066 12.93576651 179.9717458 13.64783029 176.567276 15.5146637 C174.02013182 15.80716279 171.71823452 15.92853307 169.17251587 15.90907288 C168.42533592 15.91516398 167.67815596 15.92125508 166.9083342 15.92753077 C164.40329921 15.94418708 161.89877106 15.93938133 159.39369202 15.93458557 C157.59827648 15.94192436 155.80286566 15.95051004 154.00746155 15.96025085 C149.12937742 15.98249499 144.25146206 15.98539611 139.37333417 15.98350334 C135.30262177 15.98338378 131.23194532 15.99194201 127.1612429 16.00028086 C117.55885137 16.01952518 107.95654677 16.02239491 98.35414124 16.01564026 C88.44403055 16.00899752 78.53429189 16.03187085 68.62425667 16.06895399 C60.11883856 16.09962768 51.61354026 16.11101358 43.10806793 16.10711718 C38.02677107 16.10504736 32.94576368 16.11056487 27.86451912 16.13500977 C23.08651331 16.15723602 18.30911336 16.15543354 13.53110504 16.13508224 C11.77712219 16.13166493 10.02309887 16.13679227 8.26917076 16.15106583 C5.87507701 16.16920539 3.48305031 16.15655136 1.08901978 16.13612366 C0.39426892 16.14864151 -0.30048193 16.16115935 -1.01628584 16.17405653 C-4.8120873 16.10457714 -6.36400075 15.56962995 -9.36767673 13.1672287 C-11.432724 10.5146637 -11.432724 10.5146637 -11.995224 7.4521637 C-10.69294883 0.65139338 -6.15518968 -0.07237191 0 0 Z " fill="#1B2243" transform="translate(437.43272399902344,482.48533630371094)"/>
<path d="M0 0 C1.12689526 -0.01041829 1.12689526 -0.01041829 2.27655607 -0.02104706 C4.79555775 -0.03935299 7.31362144 -0.02904324 9.83265686 -0.01878357 C11.63792629 -0.02584027 13.4431898 -0.03458423 15.2484436 -0.04489136 C20.15344137 -0.06742351 25.05811706 -0.06443665 29.96314692 -0.05556989 C34.05623433 -0.05046537 38.14926091 -0.05774822 42.24234205 -0.06504196 C51.89750089 -0.08205324 61.55250173 -0.07846287 71.20765686 -0.06175232 C81.1723119 -0.04482923 91.13652895 -0.06066537 101.10113615 -0.0929752 C109.65327415 -0.11965582 118.20527567 -0.12695124 126.75745112 -0.11846012 C131.86667859 -0.1135265 136.97564248 -0.11577004 142.08483696 -0.13624763 C146.88912813 -0.15458073 151.69278842 -0.14867515 156.49704552 -0.12404823 C158.26069574 -0.11903279 160.02439383 -0.1225491 161.78800583 -0.13519669 C164.19525487 -0.15109489 166.60041823 -0.13620967 169.00756836 -0.11352539 C170.05553106 -0.13127898 170.05553106 -0.13127898 171.12466472 -0.14939123 C174.91031187 -0.07686958 176.5121389 0.47170857 179.53585148 2.82736301 C181.567276 5.5146637 181.567276 5.5146637 181.629776 9.1396637 C180.4344403 12.93661238 179.97406305 13.64933254 176.567276 15.5146637 C174.00537418 15.80510965 171.68805974 15.92427667 169.12782288 15.90234375 C168.37585381 15.90772929 167.62388474 15.91311483 166.84912872 15.91866356 C164.3279283 15.9329779 161.80725034 15.92583105 159.286026 15.91871643 C157.47913693 15.92441815 155.67225147 15.93138163 153.8653717 15.93951416 C148.95635385 15.95748147 144.04751439 15.95627062 139.13847351 15.95057178 C135.04281573 15.94748545 130.94719249 15.95356608 126.85153961 15.95961052 C117.19165178 15.97366552 107.53185238 15.972086 97.8719635 15.96070862 C87.89939659 15.94922268 77.92709845 15.96330888 67.95456696 15.99010509 C59.3973628 16.01223919 50.84024315 16.01890476 42.28301239 16.01302868 C37.1699378 16.00965286 32.05703557 16.01211573 26.94398499 16.02927971 C22.13731783 16.04471059 17.33104996 16.04083634 12.5243988 16.02197456 C10.75871356 16.01827814 8.99299899 16.02142769 7.2273407 16.03186035 C4.82000558 16.04500035 2.41400603 16.03358639 0.00672913 16.01586914 C-0.69482552 16.02547415 -1.39638016 16.03507915 -2.11919403 16.04497522 C-5.43231002 15.99467547 -7.17906583 15.70358244 -9.86643982 13.70208836 C-12.15759618 10.50232934 -11.9806803 8.35035778 -11.432724 4.5146637 C-8.27933062 0.113606 -5.0786779 -0.05971443 0 0 Z " fill="#1B2445" transform="translate(437.43272399902344,414.48533630371094)"/>
<path d="M0 0 C1.12689526 -0.01041829 1.12689526 -0.01041829 2.27655607 -0.02104706 C4.79555775 -0.03935299 7.31362144 -0.02904324 9.83265686 -0.01878357 C11.63792629 -0.02584027 13.4431898 -0.03458423 15.2484436 -0.04489136 C20.15344137 -0.06742351 25.05811706 -0.06443665 29.96314692 -0.05556989 C34.05623433 -0.05046537 38.14926091 -0.05774822 42.24234205 -0.06504196 C51.89750089 -0.08205324 61.55250173 -0.07846287 71.20765686 -0.06175232 C81.1723119 -0.04482923 91.13652895 -0.06066537 101.10113615 -0.0929752 C109.65327415 -0.11965582 118.20527567 -0.12695124 126.75745112 -0.11846012 C131.86667859 -0.1135265 136.97564248 -0.11577004 142.08483696 -0.13624763 C146.88912813 -0.15458073 151.69278842 -0.14867515 156.49704552 -0.12404823 C158.26069574 -0.11903279 160.02439383 -0.1225491 161.78800583 -0.13519669 C164.19525487 -0.15109489 166.60041823 -0.13620967 169.00756836 -0.11352539 C170.05553106 -0.13127898 170.05553106 -0.13127898 171.12466472 -0.14939123 C174.91031187 -0.07686958 176.5121389 0.47170857 179.53585148 2.82736301 C181.567276 5.5146637 181.567276 5.5146637 181.629776 9.1396637 C180.43439106 12.93676881 179.97387878 13.64883611 176.567276 15.5146637 C174.00570993 15.80720454 171.68802012 15.92851618 169.12782288 15.90907288 C167.99986927 15.91820953 167.99986927 15.91820953 166.84912872 15.92753077 C164.32794123 15.9441877 161.80725728 15.93938126 159.286026 15.93458557 C157.47913589 15.94192427 155.67225047 15.95050991 153.8653717 15.96025085 C148.95636423 15.98249445 144.04752446 15.98539619 139.13847351 15.98350334 C135.04281366 15.98338379 130.94718954 15.99194135 126.85153961 16.00028086 C117.19165674 16.01952446 107.53186029 16.02239495 97.8719635 16.01564026 C87.89934983 16.00899542 77.92710566 16.03187946 67.95456696 16.06895399 C59.39736035 16.099615 50.84027285 16.11101503 42.28301239 16.10711718 C37.16989009 16.10504628 32.05705538 16.11058156 26.94398499 16.13500977 C22.1372562 16.15721552 17.33112995 16.15545077 12.5243988 16.13508224 C10.75870804 16.13166144 8.9929772 16.13680718 7.2273407 16.15106583 C4.81976099 16.16916965 2.4142449 16.15657821 0.00672913 16.13612366 C-1.04560284 16.15490043 -1.04560284 16.15490043 -2.11919403 16.17405653 C-5.78368961 16.10713545 -7.18848841 15.75024057 -9.86643982 13.1672287 C-11.78194125 9.92325029 -12.06371282 8.22172302 -11.432724 4.5146637 C-8.24423537 0.1361735 -5.08997307 -0.05984724 0 0 Z " fill="#1A2344" transform="translate(437.43272399902344,448.48533630371094)"/>
<path d="M0 0 C5.49913424 2.66205996 9.93854549 6.56471956 14.5625 10.5 C15.95521369 11.62885973 17.3513116 12.75355162 18.75 13.875 C19.84707275 14.7558728 19.84707275 14.7558728 20.96630859 15.65454102 C22.43742841 16.83541462 23.90910102 18.01559991 25.38134766 19.19506836 C26.05214355 19.73784424 26.72293945 20.28062012 27.4140625 20.83984375 C28.02072754 21.32831787 28.62739258 21.81679199 29.25244141 22.32006836 C29.68476074 22.7094458 30.11708008 23.09882324 30.5625 23.5 C30.5625 23.83 30.5625 24.16 30.5625 24.5 C1.8525 24.5 -26.8575 24.5 -56.4375 24.5 C-47.29842066 15.36092066 -37.73474789 6.89539118 -26.4375 0.5 C-25.54804688 -0.07234375 -25.54804688 -0.07234375 -24.640625 -0.65625 C-17.72210372 -3.30589645 -6.90368477 -2.4884095 0 0 Z " fill="#50B1DC" transform="translate(535.4375,311.5)"/>
<path d="M0 0 C8.98096305 6.73572228 8.98096305 6.73572228 12.25390625 9.47265625 C12.96353516 10.06240234 13.67316406 10.65214844 14.40429688 11.25976562 C15.84732181 12.46511586 17.29002839 13.67084732 18.73242188 14.87695312 C22.08551884 17.66255597 25.4315831 20.34119852 29.02734375 22.80859375 C30.00832031 23.53175781 30.98929688 24.25492187 32 25 C32 25.66 32 26.32 32 27 C21.44 27 10.88 27 0 27 C0 18.09 0 9.18 0 0 Z " fill="#58B2D9" transform="translate(666,417)"/>
<path d="M0 0 C0.66 0 1.32 0 2 0 C2 8.58 2 17.16 2 26 C-8.56 26 -19.12 26 -30 26 C-25.50245445 20.37806806 -25.50245445 20.37806806 -22.93359375 18.421875 C-22.37051514 17.9872998 -21.80743652 17.55272461 -21.22729492 17.10498047 C-20.6366626 16.65783691 -20.04603027 16.21069336 -19.4375 15.75 C-18.19198796 14.78999638 -16.94720634 13.82904444 -15.703125 12.8671875 C-14.7740332 12.15127441 -14.7740332 12.15127441 -13.82617188 11.42089844 C-6.66909058 5.98557069 -6.66909058 5.98557069 0 0 Z " fill="#55B3D9" transform="translate(377,418)"/>
<path d="M0 0 C9.57 0 19.14 0 29 0 C24.50140519 5.62324351 24.50140519 5.62324351 21.8984375 7.61328125 C21.33020264 8.05309326 20.76196777 8.49290527 20.17651367 8.94604492 C19.58201416 9.3969751 18.98751465 9.84790527 18.375 10.3125 C17.12853993 11.27296228 15.88244898 12.23390379 14.63671875 13.1953125 C14.0236084 13.66614258 13.41049805 14.13697266 12.77880859 14.62207031 C9.40425986 17.23611822 6.10321933 19.94207758 2.79296875 22.63671875 C1 24 1 24 0 24 C0 16.08 0 8.16 0 0 Z " fill="#5EB5DC" transform="translate(666,459)"/>
<path d="M0 0 C9.57 0 19.14 0 29 0 C29 7.92 29 15.84 29 24 C22.90019132 19.42514349 16.9235726 14.79074338 11 10 C9.98292969 9.18273437 8.96585937 8.36546875 7.91796875 7.5234375 C6.41169922 6.30527344 6.41169922 6.30527344 4.875 5.0625 C3.94429688 4.31097656 3.01359375 3.55945313 2.0546875 2.78515625 C1.37664062 2.19605469 0.69859375 1.60695313 0 1 C0 0.67 0 0.34 0 0 Z " fill="#57B3DA" transform="translate(350,459)"/>
<path d="M0 0 C0.66 1.32 1.32 2.64 2 4 C0.02 6.97 -1.96 9.94 -4 13 C-4.33 12.34 -4.66 11.68 -5 11 C-4.00390625 8.3984375 -4.00390625 8.3984375 -2.5625 5.375 C-2.08941406 4.37210937 -1.61632812 3.36921875 -1.12890625 2.3359375 C-0.75636719 1.56507813 -0.38382812 0.79421875 0 0 Z " fill="#253352" transform="translate(326,444)"/>
<path d="M0 0 C0.66 0 1.32 0 2 0 C1.5020163 3.73487777 1.12508244 5.81237635 -1 9 C-1.66 8.34 -2.32 7.68 -3 7 C-2.01 4.69 -1.02 2.38 0 0 Z " fill="#252F4C" transform="translate(723,678)"/>
<path d="M0 0 C0.66 0.33 1.32 0.66 2 1 C1.67 1.99 1.34 2.98 1 4 C2.32 4.33 3.64 4.66 5 5 C4.67 5.99 4.34 6.98 4 8 C2.35 6.35 0.7 4.7 -1 3 C-0.67 2.01 -0.34 1.02 0 0 Z " fill="#212E50" transform="translate(328,692)"/>
<path d="M0 0 C1.32 0.66 2.64 1.32 4 2 C3.01 3.32 2.02 4.64 1 6 C0.01 5.01 -0.98 4.02 -2 3 C-1.34 2.01 -0.68 1.02 0 0 Z " fill="#1A2453" transform="translate(717,688)"/>
</svg>
