<?xml version="1.0" encoding="UTF-8"?>
<svg version="1.1" xmlns="http://www.w3.org/2000/svg" width="1120" height="928">
<path d="M0 0 C369.6 0 739.2 0 1120 0 C1120 306.24 1120 612.48 1120 928 C750.4 928 380.8 928 0 928 C0 621.76 0 315.52 0 0 Z " fill="#FDFEFE" transform="translate(0,0)"/>
<path d="M0 0 C3.41640609 2.41898696 6.72646334 4.96319634 10.02050781 7.54541016 C14.26500658 10.87099682 18.63949956 13.98015769 23.06347656 17.06103516 C40.50709955 29.26839535 40.50709955 29.26839535 45.02731323 33.46447754 C48.20293565 35.42174581 50.59358824 35.2522304 54.31005859 35.25830078 C55.35485634 35.26635994 55.35485634 35.26635994 56.42076111 35.27458191 C57.93049475 35.28434918 59.44028445 35.28730722 60.95004654 35.28422546 C63.34773569 35.27973563 65.74469119 35.29378322 68.14230347 35.31262207 C73.24101579 35.34938894 78.33965127 35.36309437 83.43847656 35.37353516 C89.32954703 35.38565297 95.22026061 35.40746584 101.11117172 35.45353699 C103.4586304 35.46699754 105.80562529 35.46295483 108.15310669 35.45812988 C123.11476433 35.51326508 132.99102732 38.99104917 144.12597656 49.18603516 C150.44909251 55.80741129 154.64461035 65.49581315 154.45776367 74.64428711 C154.44212875 75.75596756 154.42649384 76.86764801 154.41038513 78.01301575 C154.38742874 79.20061996 154.36447235 80.38822418 154.34082031 81.61181641 C154.32701438 84.14891236 154.31603472 86.68602498 154.30761719 89.22314453 C154.28723546 93.2078941 154.25095183 97.18719842 154.16625977 101.17114258 C154.09055449 105.02781295 154.08493791 108.87951649 154.09082031 112.73681641 C154.04964584 113.91834793 154.00847137 115.09987946 153.96604919 116.31721497 C154.02430266 121.44580003 154.20464824 124.60757684 157.66213989 128.55502319 C160.45329483 130.86335934 163.28488673 132.89036831 166.31347656 134.87353516 C168.04743389 136.13782416 169.77734828 137.4077002 171.50097656 138.68603516 C172.40332031 139.33314453 173.30566406 139.98025391 174.23535156 140.64697266 C177.93941969 143.32631128 181.59688174 146.06412535 185.25097656 148.81103516 C185.94312256 149.33117187 186.63526855 149.85130859 187.34838867 150.38720703 C188.71242 151.41268324 190.07627533 152.4383936 191.43994141 153.46435547 C193.97914514 155.37421785 196.5212187 157.28024072 199.06347656 159.18603516 C202.68847656 161.90478516 206.31347656 164.62353516 209.93847656 167.34228516 C210.7727417 167.96796387 211.60700684 168.59364258 212.46655273 169.23828125 C214.19596031 170.53537758 215.92528992 171.83257788 217.65454102 173.12988281 C221.76169554 176.21092761 225.86985399 179.29060048 229.98144531 182.36572266 C230.70428711 182.90672607 231.42712891 183.44772949 232.171875 184.00512695 C233.51447178 185.00986736 234.8575375 186.01398158 236.20117188 187.01733398 C247.90527105 195.77976954 254.03271489 204.31240164 257.31347656 218.87353516 C257.71953089 223.04199559 257.72346038 227.17848634 257.70115662 231.36430359 C257.70923492 233.19884329 257.70923492 233.19884329 257.71747643 235.07044441 C257.72924893 238.43953693 257.72771272 241.8081306 257.72030962 245.17720258 C257.71555932 248.82086082 257.72810437 252.46446718 257.73832703 256.10810852 C257.75548576 263.23725594 257.7563609 270.36631511 257.75111412 277.49547782 C257.74706467 283.29460488 257.74852518 289.09370597 257.75386238 294.8928318 C257.7546108 295.71975443 257.75535923 296.54667706 257.75613033 297.39865795 C257.75766189 299.07885665 257.75920024 300.75905534 257.76074529 302.43925402 C257.77446049 318.18200774 257.76904021 333.92471172 257.75756008 349.66746429 C257.74763522 364.044766 257.76055718 378.42193887 257.78449427 392.7992207 C257.80892599 407.58583536 257.81848275 422.37239012 257.81184155 437.15902454 C257.80835752 445.45087448 257.81052684 453.74262546 257.82809258 462.03446007 C257.84286587 469.0953919 257.84338376 476.15615513 257.82602166 483.21708383 C257.81754999 486.81396545 257.81526688 490.41054656 257.83067322 494.00741196 C257.91708878 515.80377373 257.41718093 532.75566677 242.06347656 549.68603516 C228.38391311 562.37297722 212.66541797 563.32287049 195.05000305 563.25448608 C193.10327699 563.25794676 191.15655288 563.26271408 189.20983285 563.26866782 C183.8841255 563.2811507 178.55858017 563.27501978 173.23287237 563.26570916 C167.48029017 563.25890805 161.7277354 563.26940508 155.97515869 563.27764893 C144.71607173 563.29097633 133.45704482 563.28811315 122.19795553 563.279411 C113.04785572 563.27263198 103.89777273 563.27171868 94.74767113 563.27498245 C92.79321499 563.275672 92.79321499 563.275672 90.79927489 563.27637548 C88.15223787 563.27733467 85.50520086 563.27830731 82.85816386 563.27929325 C58.75542449 563.28760031 34.65271669 563.27899106 10.54998246 563.26326546 C-11.44464184 563.24902442 -33.43921404 563.25030761 -55.43383789 563.26464844 C-80.16031677 563.28071669 -104.88676566 563.28702502 -129.61324912 563.27781165 C-132.24955451 563.276856 -134.8858599 563.27591289 -137.5221653 563.27498245 C-138.81925497 563.27451963 -140.11634465 563.2740568 -141.45274007 563.27357995 C-150.5933193 563.27098965 -159.73388004 563.27536182 -168.87445641 563.28242111 C-180.01137486 563.29083324 -191.14822989 563.28856175 -202.28514107 563.27257888 C-207.96724762 563.2646931 -213.64924837 563.26160998 -219.33135414 563.27152634 C-224.53295918 563.28046691 -229.73436037 563.27555073 -234.93594692 563.25959368 C-236.8172951 563.25624327 -238.69866052 563.25794579 -240.57999762 563.26522104 C-257.85570759 563.32690177 -257.85570759 563.32690177 -265.68652344 559.87353516 C-266.93949219 559.41720703 -266.93949219 559.41720703 -268.21777344 558.95166016 C-279.23517643 554.31735572 -287.75397088 546.37594671 -292.93652344 535.56103516 C-296.77109591 525.82034364 -298.12976495 516.51295657 -298.07420349 506.09083557 C-298.07958903 504.86060557 -298.08497457 503.63037557 -298.0905233 502.36286587 C-298.10227112 498.98302906 -298.1007716 495.6036913 -298.09335649 492.2238754 C-298.08859699 488.56529409 -298.10115902 484.90676398 -298.1113739 481.24819946 C-298.12851261 474.09459704 -298.12941226 466.94108265 -298.124161 459.78746504 C-298.12010914 453.96977598 -298.12157487 448.15211281 -298.12690926 442.33442497 C-298.12765768 441.50442052 -298.1284061 440.67441606 -298.1291772 439.81925995 C-298.13070878 438.13277586 -298.13224712 436.44629178 -298.13379217 434.7598077 C-298.14749917 418.9679858 -298.14209201 403.17621354 -298.13060696 387.38439279 C-298.12067466 372.95736838 -298.13361838 358.53047222 -298.15754115 344.10346759 C-298.18195985 329.26481876 -298.19153333 314.42622959 -298.18488842 299.58756107 C-298.18140259 291.26674127 -298.18358625 282.94602007 -298.20113945 274.62521553 C-298.21589607 267.54268245 -298.21645177 260.46031744 -298.19906854 253.37778754 C-298.19058483 249.76898852 -298.18834393 246.16048931 -298.20372009 242.55170631 C-298.22022721 238.62872538 -298.20535473 234.70620175 -298.18772888 230.78321838 C-298.19733389 229.65809532 -298.20693889 228.53297226 -298.21683496 227.37375456 C-298.08053103 212.55512954 -293.0954523 200.95740752 -282.6340332 190.65380859 C-279.48584712 187.77596317 -276.05920223 185.36727674 -272.56152344 182.93603516 C-265.68625863 178.06584706 -258.93274796 173.06590802 -252.24902344 167.93603516 C-244.85301644 162.26639376 -237.39917702 156.68897694 -229.87939453 151.18481445 C-222.75070733 145.95297664 -215.7217765 140.5939428 -208.71386719 135.20166016 C-207.88371094 134.56486328 -207.05355469 133.92806641 -206.19824219 133.27197266 C-205.47080811 132.71171387 -204.74337402 132.15145508 -203.99389648 131.57421875 C-201.68652344 129.87353516 -201.68652344 129.87353516 -198.44604492 128.4543457 C-195.17319191 125.39344778 -195.22876999 124.59568957 -194.97705078 120.26977539 C-194.9630761 117.9072194 -194.98033284 115.5443506 -195.02246094 113.18212891 C-195.01613144 111.2986953 -195.01613144 111.2986953 -195.00967407 109.37721252 C-195.0006292 106.03521078 -195.01506615 102.69521615 -195.04412842 99.35345459 C-195.08397027 94.67546192 -195.10219783 89.99800244 -195.09194946 85.31983948 C-195.08740656 82.83325393 -195.10180262 80.34653643 -195.13827515 77.86021423 C-195.13464897 66.05550481 -192.07798165 56.38573378 -183.68652344 47.87353516 C-172.1059466 37.48410337 -161.93342067 35.39767324 -146.67843056 35.73793221 C-144.36675138 35.78487016 -142.05630204 35.80424011 -139.7441864 35.8155365 C-133.1788295 35.8482226 -126.61496021 35.89492226 -120.05102539 36.04125977 C-97.02424318 37.37781032 -97.02424318 37.37781032 -77.18247986 27.56632996 C-76.12303984 26.50400949 -75.0821463 25.42271677 -74.06491089 24.31991577 C-72.14316739 22.30337642 -69.97174265 20.77891181 -67.67871094 19.20947266 C-66.98970703 18.7124585 -66.30070313 18.21544434 -65.59082031 17.70336914 C-64.16248489 16.67937362 -62.73409445 15.65545484 -61.30566406 14.6315918 C-60.55220703 14.09139404 -59.79875 13.55119629 -59.02246094 12.99462891 C-57.92949707 12.21128174 -57.92949707 12.21128174 -56.81445312 11.41210938 C-54.79173586 9.94960774 -52.78748327 8.46535365 -50.78808594 6.97119141 C-36.84888802 -3.39628459 -16.24688036 -10.85163665 0 0 Z " fill="#F3C164" transform="translate(579.6865234375,176.12646484375)"/>
<path d="M0 0 C0.97913902 -0.00706559 1.95827803 -0.01413118 2.96708792 -0.02141088 C4.03516804 -0.0189958 5.10324816 -0.01658071 6.20369434 -0.01409245 C7.34430547 -0.01932912 8.4849166 -0.0245658 9.6600917 -0.02996117 C13.49072664 -0.04498987 17.32122833 -0.04566696 21.15189075 -0.04633427 C23.89499519 -0.05287265 26.63808805 -0.06233211 29.38118458 -0.07155704 C36.83999917 -0.09439613 44.29878529 -0.10232661 51.75763011 -0.10738349 C56.41702208 -0.11064205 61.07640581 -0.11716553 65.73579311 -0.12438488 C78.64211447 -0.14395009 91.54842817 -0.16035453 104.45476532 -0.16326141 C105.28050524 -0.16344898 106.10624517 -0.16363655 106.95700752 -0.16382981 C108.6309133 -0.16419605 110.30481908 -0.16455975 111.97872486 -0.16492092 C113.22508163 -0.16519514 113.22508163 -0.16519514 114.49661732 -0.16547489 C115.7444996 -0.16574572 115.7444996 -0.16574572 117.01759163 -0.16602201 C130.49329755 -0.16956255 143.96884356 -0.19657771 157.44449403 -0.23397278 C171.28736108 -0.2720787 185.13014884 -0.29141906 198.97306949 -0.29172093 C206.74229214 -0.29230501 214.51132407 -0.30076546 222.28049755 -0.32971859 C228.89704869 -0.35426321 235.51333957 -0.3614948 242.12992396 -0.34647106 C245.50357316 -0.33931409 248.87629164 -0.34284053 252.24995136 -0.36288166 C255.91409704 -0.38331888 259.57691878 -0.37280166 263.24104786 -0.35466862 C264.29797437 -0.36786858 265.35490088 -0.38106855 266.44385546 -0.39466852 C275.67666092 -0.29055155 283.25590394 2.90013134 290.03983021 9.26006222 C292.03983021 12.26006222 292.03983021 12.26006222 292.03983021 15.26006222 C292.69983021 15.26006222 293.35983021 15.26006222 294.03983021 15.26006222 C296.05782366 20.31982525 296.3587603 24.69206875 296.40146351 30.049613 C296.41587254 30.92282538 296.43028158 31.79603777 296.44512725 32.69571114 C296.49049076 35.61554769 296.52168078 38.53535124 296.55252552 41.45537472 C296.58143668 43.55175235 296.61095219 45.64812172 296.6410265 47.74448299 C296.90138686 66.87009203 297.03330058 85.9980057 297.13671207 105.12503719 C297.21450642 119.25390389 297.35119615 133.3795792 297.56580758 147.50704479 C297.71177565 157.45289744 297.78842108 167.39787996 297.81476378 177.34475994 C297.83245372 183.28025319 297.88059259 189.21179607 298.00410175 195.14610958 C298.11911924 200.73572514 298.14781093 206.31938192 298.11235523 211.91000462 C298.11410343 213.95234869 298.14630461 215.99494793 298.21244526 218.0362215 C298.67211352 233.00933389 298.67211352 233.00933389 294.25945663 238.45872784 C289.95683966 242.57850377 285.18889463 245.86886231 280.12238932 248.97697163 C277.55194272 250.56065577 275.14081098 252.32323205 272.72733021 254.13506222 C271.89201771 254.73318722 271.05670521 255.33131222 270.19608021 255.94756222 C265.65429236 259.27520876 261.19687594 262.71127936 256.72733021 266.13506222 C250.17964971 271.14722218 243.59420435 276.07372648 236.85379505 280.8230505 C232.56845397 283.85240909 228.40850893 287.0220981 224.26639271 290.24346066 C219.58338031 293.87251717 214.81896444 297.3839151 210.03983021 300.88506222 C203.14895574 305.93666136 196.3244377 311.06667384 189.53983021 316.26006222 C180.45759316 323.20905698 171.28908472 330.03055326 162.05643177 336.77812862 C160.24714132 338.10771616 158.44943182 339.45083028 156.65701771 340.80303097 C148.2917455 347.05988988 142.36999367 349.56279648 131.83279896 349.85381222 C122.54164308 348.39937793 115.30733444 342.51503143 108.10233021 336.82256222 C106.25700224 335.39024954 104.41062589 333.95928666 102.56326771 332.52959347 C101.64126575 331.81368038 100.7192638 331.0977673 99.7693224 330.36015987 C95.6353371 327.17943165 91.43624886 324.09057168 87.22733021 321.01006222 C79.44303223 315.30034551 71.70541222 309.53217897 63.99149036 303.72783566 C60.67690992 301.23505887 57.35813275 298.74788072 54.03983021 296.26006222 C52.70647735 295.26008825 51.373144 294.26008827 50.03983021 293.26006222 C49.04983021 292.51756222 49.04983021 292.51756222 48.03983021 291.76006222 C42.03983021 287.26006222 42.03983021 287.26006222 40.04056263 285.7605505 C38.70486598 284.75881876 37.36909101 283.75719144 36.03323841 282.75566769 C32.73541925 280.283006 29.43890327 277.80864848 26.14529896 275.33037472 C18.88794272 269.87285008 11.60424905 264.45342532 4.28983021 259.07256222 C-10.07104335 248.50756486 -10.07104335 248.50756486 -16.96016979 243.26006222 C-17.68865973 242.91935601 -18.41714968 242.57864981 -19.16771507 242.22761917 C-22.20326124 240.53312072 -23.90294716 239.08993273 -25.96016979 236.26006222 C-27.75949241 229.79733595 -27.13691859 222.71003765 -27.04537487 216.07134151 C-27.04938635 213.98802789 -27.05730342 211.90471868 -27.06882763 209.82143307 C-27.08848788 204.16991923 -27.05203249 198.52002029 -27.0044415 192.86872363 C-26.96300486 186.94905066 -26.96951074 181.02941656 -26.96985912 175.10962582 C-26.96335833 165.16543593 -26.92236467 155.22186543 -26.85885143 145.27788448 C-26.78572744 133.79379828 -26.7575415 122.31032228 -26.75570279 110.82601708 C-26.75345027 98.58703464 -26.72066494 86.34827837 -26.67768931 74.1093781 C-26.66721695 70.58962691 -26.66214715 67.06990151 -26.65817738 63.55013752 C-26.65024076 58.00874175 -26.62160731 52.46781287 -26.57724094 46.92659283 C-26.56400857 44.89738567 -26.55742399 42.86812214 -26.55811596 40.83887196 C-26.55678511 27.54898662 -26.25759419 17.01927315 -16.69063854 6.88115597 C-11.98578071 2.47367064 -6.44465865 0.01491013 0 0 Z " fill="#FDFDFD" transform="translate(423.9601697921753,225.7399377822876)"/>
<path d="M0 0 C3.41640609 2.41898696 6.72646334 4.96319634 10.02050781 7.54541016 C14.26500658 10.87099682 18.63949956 13.98015769 23.06347656 17.06103516 C40.50709955 29.26839535 40.50709955 29.26839535 45.02731323 33.46447754 C48.20293565 35.42174581 50.59358824 35.2522304 54.31005859 35.25830078 C55.35485634 35.26635994 55.35485634 35.26635994 56.42076111 35.27458191 C57.93049475 35.28434918 59.44028445 35.28730722 60.95004654 35.28422546 C63.34773569 35.27973563 65.74469119 35.29378322 68.14230347 35.31262207 C73.24101579 35.34938894 78.33965127 35.36309437 83.43847656 35.37353516 C89.32954703 35.38565297 95.22026061 35.40746584 101.11117172 35.45353699 C103.4586304 35.46699754 105.80562529 35.46295483 108.15310669 35.45812988 C123.11476433 35.51326508 132.99102732 38.99104917 144.12597656 49.18603516 C150.44909251 55.80741129 154.64461035 65.49581315 154.45776367 74.64428711 C154.44212875 75.75596756 154.42649384 76.86764801 154.41038513 78.01301575 C154.38742874 79.20061996 154.36447235 80.38822418 154.34082031 81.61181641 C154.32701438 84.14891236 154.31603472 86.68602498 154.30761719 89.22314453 C154.28723546 93.2078941 154.25095183 97.18719842 154.16625977 101.17114258 C154.09055449 105.02781295 154.08493791 108.87951649 154.09082031 112.73681641 C154.04964584 113.91834793 154.00847137 115.09987946 153.96604919 116.31721497 C154.02430266 121.44580003 154.20464824 124.60757684 157.66213989 128.55502319 C160.45329483 130.86335934 163.28488673 132.89036831 166.31347656 134.87353516 C168.04743389 136.13782416 169.77734828 137.4077002 171.50097656 138.68603516 C172.40332031 139.33314453 173.30566406 139.98025391 174.23535156 140.64697266 C177.93941969 143.32631128 181.59688174 146.06412535 185.25097656 148.81103516 C185.94312256 149.33117187 186.63526855 149.85130859 187.34838867 150.38720703 C188.71242 151.41268324 190.07627533 152.4383936 191.43994141 153.46435547 C193.97914514 155.37421785 196.5212187 157.28024072 199.06347656 159.18603516 C202.68847656 161.90478516 206.31347656 164.62353516 209.93847656 167.34228516 C210.7727417 167.96796387 211.60700684 168.59364258 212.46655273 169.23828125 C214.19596031 170.53537758 215.92528992 171.83257788 217.65454102 173.12988281 C221.76169554 176.21092761 225.86985399 179.29060048 229.98144531 182.36572266 C230.70428711 182.90672607 231.42712891 183.44772949 232.171875 184.00512695 C233.51447178 185.00986736 234.8575375 186.01398158 236.20117188 187.01733398 C247.90527105 195.77976954 254.03271489 204.31240164 257.31347656 218.87353516 C257.71953089 223.04199559 257.72346038 227.17848634 257.70115662 231.36430359 C257.70923492 233.19884329 257.70923492 233.19884329 257.71747643 235.07044441 C257.72924893 238.43953693 257.72771272 241.8081306 257.72030962 245.17720258 C257.71555932 248.82086082 257.72810437 252.46446718 257.73832703 256.10810852 C257.75548576 263.23725594 257.7563609 270.36631511 257.75111412 277.49547782 C257.74706467 283.29460488 257.74852518 289.09370597 257.75386238 294.8928318 C257.7546108 295.71975443 257.75535923 296.54667706 257.75613033 297.39865795 C257.75766189 299.07885665 257.75920024 300.75905534 257.76074529 302.43925402 C257.77446049 318.18200774 257.76904021 333.92471172 257.75756008 349.66746429 C257.74763522 364.044766 257.76055718 378.42193887 257.78449427 392.7992207 C257.80892599 407.58583536 257.81848275 422.37239012 257.81184155 437.15902454 C257.80835752 445.45087448 257.81052684 453.74262546 257.82809258 462.03446007 C257.84286587 469.0953919 257.84338376 476.15615513 257.82602166 483.21708383 C257.81754999 486.81396545 257.81526688 490.41054656 257.83067322 494.00741196 C257.91708878 515.80377373 257.41718093 532.75566677 242.06347656 549.68603516 C228.38391311 562.37297722 212.66541797 563.32287049 195.05000305 563.25448608 C193.10327699 563.25794676 191.15655288 563.26271408 189.20983285 563.26866782 C183.8841255 563.2811507 178.55858017 563.27501978 173.23287237 563.26570916 C167.48029017 563.25890805 161.7277354 563.26940508 155.97515869 563.27764893 C144.71607173 563.29097633 133.45704482 563.28811315 122.19795553 563.279411 C113.04785572 563.27263198 103.89777273 563.27171868 94.74767113 563.27498245 C92.79321499 563.275672 92.79321499 563.275672 90.79927489 563.27637548 C88.15223787 563.27733467 85.50520086 563.27830731 82.85816386 563.27929325 C58.75542449 563.28760031 34.65271669 563.27899106 10.54998246 563.26326546 C-11.44464184 563.24902442 -33.43921404 563.25030761 -55.43383789 563.26464844 C-80.16031677 563.28071669 -104.88676566 563.28702502 -129.61324912 563.27781165 C-132.24955451 563.276856 -134.8858599 563.27591289 -137.5221653 563.27498245 C-138.81925497 563.27451963 -140.11634465 563.2740568 -141.45274007 563.27357995 C-150.5933193 563.27098965 -159.73388004 563.27536182 -168.87445641 563.28242111 C-180.01137486 563.29083324 -191.14822989 563.28856175 -202.28514107 563.27257888 C-207.96724762 563.2646931 -213.64924837 563.26160998 -219.33135414 563.27152634 C-224.53295918 563.28046691 -229.73436037 563.27555073 -234.93594692 563.25959368 C-236.8172951 563.25624327 -238.69866052 563.25794579 -240.57999762 563.26522104 C-257.85570759 563.32690177 -257.85570759 563.32690177 -265.68652344 559.87353516 C-266.93949219 559.41720703 -266.93949219 559.41720703 -268.21777344 558.95166016 C-279.23517643 554.31735572 -287.75397088 546.37594671 -292.93652344 535.56103516 C-296.77109591 525.82034364 -298.12976495 516.51295657 -298.07420349 506.09083557 C-298.07958903 504.86060557 -298.08497457 503.63037557 -298.0905233 502.36286587 C-298.10227112 498.98302906 -298.1007716 495.6036913 -298.09335649 492.2238754 C-298.08859699 488.56529409 -298.10115902 484.90676398 -298.1113739 481.24819946 C-298.12851261 474.09459704 -298.12941226 466.94108265 -298.124161 459.78746504 C-298.12010914 453.96977598 -298.12157487 448.15211281 -298.12690926 442.33442497 C-298.12765768 441.50442052 -298.1284061 440.67441606 -298.1291772 439.81925995 C-298.13070878 438.13277586 -298.13224712 436.44629178 -298.13379217 434.7598077 C-298.14749917 418.9679858 -298.14209201 403.17621354 -298.13060696 387.38439279 C-298.12067466 372.95736838 -298.13361838 358.53047222 -298.15754115 344.10346759 C-298.18195985 329.26481876 -298.19153333 314.42622959 -298.18488842 299.58756107 C-298.18140259 291.26674127 -298.18358625 282.94602007 -298.20113945 274.62521553 C-298.21589607 267.54268245 -298.21645177 260.46031744 -298.19906854 253.37778754 C-298.19058483 249.76898852 -298.18834393 246.16048931 -298.20372009 242.55170631 C-298.22022721 238.62872538 -298.20535473 234.70620175 -298.18772888 230.78321838 C-298.19733389 229.65809532 -298.20693889 228.53297226 -298.21683496 227.37375456 C-298.08053103 212.55512954 -293.0954523 200.95740752 -282.6340332 190.65380859 C-279.48584712 187.77596317 -276.05920223 185.36727674 -272.56152344 182.93603516 C-265.68625863 178.06584706 -258.93274796 173.06590802 -252.24902344 167.93603516 C-244.85301644 162.26639376 -237.39917702 156.68897694 -229.87939453 151.18481445 C-222.75070733 145.95297664 -215.7217765 140.5939428 -208.71386719 135.20166016 C-207.88371094 134.56486328 -207.05355469 133.92806641 -206.19824219 133.27197266 C-205.47080811 132.71171387 -204.74337402 132.15145508 -203.99389648 131.57421875 C-201.68652344 129.87353516 -201.68652344 129.87353516 -198.44604492 128.4543457 C-195.17319191 125.39344778 -195.22876999 124.59568957 -194.97705078 120.26977539 C-194.9630761 117.9072194 -194.98033284 115.5443506 -195.02246094 113.18212891 C-195.01613144 111.2986953 -195.01613144 111.2986953 -195.00967407 109.37721252 C-195.0006292 106.03521078 -195.01506615 102.69521615 -195.04412842 99.35345459 C-195.08397027 94.67546192 -195.10219783 89.99800244 -195.09194946 85.31983948 C-195.08740656 82.83325393 -195.10180262 80.34653643 -195.13827515 77.86021423 C-195.13464897 66.05550481 -192.07798165 56.38573378 -183.68652344 47.87353516 C-172.1059466 37.48410337 -161.93342067 35.39767324 -146.67843056 35.73793221 C-144.36675138 35.78487016 -142.05630204 35.80424011 -139.7441864 35.8155365 C-133.1788295 35.8482226 -126.61496021 35.89492226 -120.05102539 36.04125977 C-97.02424318 37.37781032 -97.02424318 37.37781032 -77.18247986 27.56632996 C-76.12303984 26.50400949 -75.0821463 25.42271677 -74.06491089 24.31991577 C-72.14316739 22.30337642 -69.97174265 20.77891181 -67.67871094 19.20947266 C-66.98970703 18.7124585 -66.30070313 18.21544434 -65.59082031 17.70336914 C-64.16248489 16.67937362 -62.73409445 15.65545484 -61.30566406 14.6315918 C-60.55220703 14.09139404 -59.79875 13.55119629 -59.02246094 12.99462891 C-57.92949707 12.21128174 -57.92949707 12.21128174 -56.81445312 11.41210938 C-54.79173586 9.94960774 -52.78748327 8.46535365 -50.78808594 6.97119141 C-36.84888802 -3.39628459 -16.24688036 -10.85163665 0 0 Z M-176.23139763 60.69872475 C-183.03690379 70.8701378 -182.29385472 81.65142754 -182.29931641 93.43457031 C-182.31457518 95.52157263 -182.33143284 97.60856377 -182.34976196 99.69554138 C-182.39349354 105.34202257 -182.41122641 110.98828732 -182.42141485 116.63491869 C-182.42871624 120.16516063 -182.44120322 123.69534642 -182.45541763 127.22556686 C-182.50433693 139.54770131 -182.53049843 151.86966796 -182.53759766 164.19189453 C-182.54487851 175.67016841 -182.60475752 187.14737617 -182.68840683 198.62532389 C-182.75778408 208.49142352 -182.78869389 218.35716917 -182.79008973 228.2235111 C-182.79167542 234.11165987 -182.8091579 239.99871957 -182.86608505 245.88661575 C-182.91840587 251.42106381 -182.92288459 256.95351774 -182.89077377 262.48810005 C-182.8871421 264.51661464 -182.90055226 266.54524348 -182.93241119 268.57351112 C-183.45151434 279.25173804 -183.45151434 279.25173804 -179.5536232 288.77116013 C-177.01747218 290.83664026 -174.57099918 292.34733229 -171.68652344 293.87353516 C-170.02483512 295.05997047 -168.37690517 296.26612375 -166.74902344 297.49853516 C-165.84023438 298.15337891 -164.93144531 298.80822266 -163.99511719 299.48291016 C-153.17042172 307.28461557 -142.45161316 315.22818195 -131.90136719 323.39697266 C-122.46648927 330.68796007 -112.85964539 337.75454363 -103.24902344 344.81103516 C-97.17836716 349.26896321 -91.15584811 353.78083267 -85.18652344 358.37353516 C-78.52321562 363.49969484 -71.78869551 368.51947371 -65.00317383 373.48266602 C-60.76604901 376.58631999 -56.55908529 379.72232487 -52.38964844 382.91650391 C-51.50962158 383.58762207 -50.62959473 384.25874023 -49.72290039 384.95019531 C-48.04693989 386.23082122 -46.37580828 387.51780366 -44.71069336 388.8125 C-37.4897674 394.31537734 -30.08614849 399.60937979 -20.68652344 399.49853516 C-19.04683594 399.51787109 -19.04683594 399.51787109 -17.37402344 399.53759766 C-8.14963236 397.87642553 -0.94602 392.12221183 6.25097656 386.43603516 C8.10280463 384.99850101 9.95569065 383.56232879 11.80957031 382.12744141 C12.73237793 381.41088379 13.65518555 380.69432617 14.60595703 379.95605469 C18.62747816 376.86285584 22.71616261 373.86518356 26.81347656 370.87353516 C33.62346363 365.88779223 40.36035777 360.81450669 47.06347656 355.68603516 C54.76782468 349.79348801 62.53065574 343.99641932 70.37207031 338.28808594 C81.8309265 329.93891432 93.19169586 321.47361288 104.44970703 312.85546875 C111.18657972 307.70742212 117.98692468 302.65195738 124.83496094 297.65283203 C126.2392586 296.62569578 127.63135083 295.58154889 129.00747204 294.51695919 C131.31347656 292.87353516 131.31347656 292.87353516 133.66480732 291.74983311 C136.67020257 290.09076211 138.30751712 288.68762381 140.31347656 285.87353516 C142.09393343 279.31724983 141.46915067 272.16279882 141.36694336 265.43774414 C141.36767913 263.32824224 141.37235161 261.21873859 141.38066101 259.10925293 C141.3917811 253.38772147 141.34710338 247.66783761 141.29188514 241.94661212 C141.2430183 235.9583655 141.24364257 229.97011941 141.23847961 223.98170471 C141.22283178 213.92656035 141.17406583 203.87203247 141.10229492 193.81713867 C141.00119572 179.63799569 140.96358472 165.45918682 140.93684137 151.27973831 C140.91579545 141.45656347 140.87879079 131.63343864 140.83928323 121.810323 C140.82987443 119.42892827 140.8209981 117.04753137 140.81264853 114.66613269 C140.78854095 107.8774531 140.7545897 101.08897659 140.70433235 94.30043793 C140.69050279 92.24373656 140.67998377 90.18700987 140.67301178 88.13027382 C140.66279114 85.32342361 140.64030569 82.5169344 140.61454773 79.71018982 C140.61423433 78.89588782 140.61392094 78.08158583 140.61359805 77.24260801 C140.55683838 72.73774821 140.0150121 69.11827213 138.31347656 64.87353516 C137.65347656 64.87353516 136.99347656 64.87353516 136.31347656 64.87353516 C136.22066406 64.03822266 136.22066406 64.03822266 136.12597656 63.18603516 C134.24154887 57.82266404 128.98903137 54.69834952 124.31347656 51.87353516 C120.85479942 50.27762332 118.15476816 49.62226786 114.35330677 49.61347294 C112.88459825 49.60287455 112.88459825 49.60287455 111.38621885 49.59206206 C110.31813873 49.59447714 109.25005861 49.59689222 108.14961243 49.59938049 C106.43869574 49.59152548 106.43869574 49.59152548 104.69321507 49.58351177 C100.86258013 49.56848307 97.03207844 49.56780597 93.20141602 49.56713867 C90.45831158 49.56060029 87.71521872 49.55114082 84.97212219 49.54191589 C77.5133076 49.51907681 70.05452148 49.51114633 62.59567666 49.50608945 C57.93628469 49.50283089 53.27690096 49.49630741 48.61751366 49.48908806 C35.7111923 49.46952285 22.8048786 49.45311841 9.89854145 49.45021152 C9.07280153 49.45002396 8.2470616 49.44983639 7.39629925 49.44964313 C5.72239347 49.44927689 4.04848769 49.44891319 2.37458191 49.44855202 C1.5436774 49.44836921 0.71277289 49.4481864 -0.14331055 49.44799805 C-0.97523207 49.4478175 -1.8071536 49.44763695 -2.66428486 49.44745093 C-16.13999078 49.44391039 -29.61553679 49.41689523 -43.09118726 49.37950016 C-56.93405431 49.34139424 -70.77684206 49.32205388 -84.61976272 49.32175201 C-92.38898537 49.32116792 -100.1580173 49.31270748 -107.92719078 49.28375435 C-114.54374192 49.25920972 -121.1600328 49.25197814 -127.77661719 49.26700187 C-131.15026639 49.27415885 -134.52298487 49.2706324 -137.89664459 49.25059128 C-141.56079027 49.23015406 -145.22361201 49.24067128 -148.88774109 49.25880432 C-149.9446676 49.24560435 -151.00159411 49.23240439 -152.09054869 49.21880442 C-162.05793101 49.3312051 -170.01579116 52.74181559 -176.23139763 60.69872475 Z M-283.68652344 226.87353516 C-283.73231128 263.91940737 -283.76754793 300.96527532 -283.7886541 338.01117012 C-283.79115548 342.38578338 -283.79374413 346.76039659 -283.79638672 351.13500977 C-283.79691134 352.00590849 -283.79743596 352.8768072 -283.79797648 353.77409679 C-283.80667668 367.87151958 -283.82244455 381.96892603 -283.84082903 396.06633913 C-283.85953877 410.53393033 -283.87064244 425.00151299 -283.87470043 439.46911579 C-283.87744325 448.39481588 -283.88610318 457.32046981 -283.90235637 466.24615569 C-283.9129365 472.36864284 -283.91612173 478.49110617 -283.91352619 484.6136018 C-283.91224651 488.14478805 -283.91419433 491.6758937 -283.92493439 495.20706558 C-283.93650681 499.0400051 -283.93249036 502.87284023 -283.92703247 506.70579529 C-283.93285815 507.81573662 -283.93868384 508.92567795 -283.94468606 510.06925386 C-283.89646706 522.6028727 -281.39815779 530.59217615 -272.79980469 539.92041016 C-262.45099714 549.7444303 -251.06090296 549.45062193 -237.63232422 549.38146973 C-235.68391008 549.38608194 -233.73549943 549.392437 -231.78709602 549.4003787 C-226.44735765 549.41705106 -221.10790584 549.40883506 -215.76816654 549.39643383 C-210.00393308 549.38737716 -204.23974861 549.40135615 -198.4755249 549.41235352 C-187.18907619 549.43013667 -175.90273391 549.42629961 -164.61628103 549.41470295 C-155.44325481 549.40566813 -146.2702584 549.40444485 -137.097229 549.40879822 C-135.79150063 549.40941115 -134.48577225 549.41002408 -133.14047635 549.41065559 C-130.48788499 549.41193449 -127.83529364 549.41323135 -125.1827023 549.41454595 C-101.02036246 549.42602762 -76.8580764 549.41413704 -52.69574574 549.39317556 C-30.64771869 549.37419373 -8.59978405 549.37589227 13.44824219 549.39501953 C38.23075612 549.41644727 63.01321822 549.42485253 87.79574013 549.41257048 C90.43855412 549.41129628 93.08136812 549.4100388 95.72418213 549.40879822 C97.02448518 549.40818112 98.32478822 549.40756401 99.6644944 549.40692821 C108.82612656 549.40347503 117.98772594 549.409303 127.14935303 549.41871643 C138.31485588 549.42993667 149.48024625 549.42689571 160.64573622 549.40559345 C166.34215708 549.39508352 172.03839042 549.39096047 177.73480988 549.40419006 C182.95079078 549.41612063 188.16641058 549.40954009 193.38235879 549.38827986 C195.26782063 549.38381666 197.15331306 549.38607368 199.03875518 549.39578301 C212.178935 549.45825227 223.40142092 548.57288574 233.31347656 538.87353516 C235.53370579 535.992171 237.44796114 532.99262941 239.31347656 529.87353516 C239.97347656 528.88353516 240.63347656 527.89353516 241.31347656 526.87353516 C243.68868761 520.58295006 243.58867773 514.5759409 243.5539856 507.90834045 C243.55569445 506.70587864 243.5574033 505.50341682 243.55916393 504.26451677 C243.56188259 500.93958257 243.55565507 497.6148853 243.54560781 494.28997982 C243.53695343 490.69974907 243.53989487 487.10952536 243.54141235 483.51928711 C243.54245995 477.30318032 243.53619647 471.08711558 243.52493668 464.87101936 C243.50866762 455.88364563 243.50347223 446.89629218 243.50096069 437.90890532 C243.4965858 423.32670986 243.48328226 408.74453681 243.46435547 394.16235352 C243.44599136 379.9989432 243.43183745 365.83553897 243.42333984 351.67211914 C243.4228144 350.7987685 243.42228895 349.92541786 243.42174758 349.02560205 C243.41913746 344.64416365 243.41661006 340.26272521 243.41412377 335.88128674 C243.39339767 299.54535373 243.35817772 263.20944619 243.31347656 226.87353516 C240.50299724 228.24838923 238.02290409 229.70713767 235.50488281 231.56884766 C234.76842529 232.11186523 234.03196777 232.65488281 233.27319336 233.21435547 C232.08657104 234.09752441 232.08657104 234.09752441 230.87597656 234.99853516 C230.04557861 235.6130957 229.21518066 236.22765625 228.35961914 236.86083984 C221.12448044 242.23200374 213.96740885 247.70373278 206.81298828 253.18164062 C201.38954548 257.32363741 195.91301759 261.36479458 190.33642578 265.29736328 C185.35588011 268.81649847 180.48240138 272.4692599 175.61376953 276.14111328 C170.48043681 280.00914489 165.30941136 283.82299234 160.12597656 287.62353516 C152.27762958 293.38231404 144.53285084 299.26849959 136.80566406 305.18847656 C131.43699934 309.28987277 126.0081583 313.27323782 120.47924805 317.15454102 C115.72446248 320.5192835 111.14340537 324.08814783 106.56347656 327.68603516 C99.92185147 332.90194162 93.16911227 337.91474358 86.29736328 342.82226562 C77.60482644 349.05390163 69.13828129 355.57947652 60.65234375 362.08789062 C57.22313764 364.70597136 53.77143913 367.2936038 50.31347656 369.87353516 C53.80908021 374.92274042 58.3216949 378.04163821 63.25097656 381.56103516 C64.9717908 382.80868255 66.69184083 384.05738463 68.41113281 385.30712891 C69.67014404 386.21954346 69.67014404 386.21954346 70.95458984 387.15039062 C74.0706074 389.4266121 77.13849595 391.75987182 80.18847656 394.12353516 C81.21070313 394.91501953 82.23292969 395.70650391 83.28613281 396.52197266 C84.28515625 397.29798828 85.28417969 398.07400391 86.31347656 398.87353516 C88.41645074 400.50011594 90.52012605 402.12568965 92.62597656 403.74853516 C93.15497559 404.15620117 93.68397461 404.56386719 94.22900391 404.98388672 C99.23823953 408.8339233 104.29667743 412.61724635 109.35595703 416.40112305 C116.50573505 421.75440075 123.61324039 427.1657475 130.62597656 432.69775391 C135.07675973 436.20765461 139.62463737 439.53868642 144.25097656 442.81103516 C148.23388353 445.63092699 152.15215477 448.47836609 155.93847656 451.56103516 C161.57338306 456.14801451 167.40223274 460.46625893 173.22290039 464.81274414 C180.44229566 470.20785862 187.62299725 475.65200181 194.76074219 481.15478516 C198.76405161 484.22913313 202.77858947 487.23095017 206.96972656 490.04541016 C207.67637451 490.52848633 208.38302246 491.0115625 209.11108398 491.50927734 C210.40818554 492.3875281 211.72017691 493.2443729 213.04907227 494.07373047 C215.42300596 495.69383668 217.11240935 497.03096778 217.79541016 499.89306641 C217.88769531 502.06103516 217.88769531 502.06103516 217.31347656 505.87353516 C213.7726112 508.23411206 212.48610564 508.40914158 208.31347656 507.87353516 C206.04909629 506.42901671 204.20011145 505.04887418 202.18847656 503.31103516 C200.9536352 502.29281199 199.71652055 501.27734152 198.47753906 500.26416016 C197.81141602 499.71566406 197.14529297 499.16716797 196.45898438 498.60205078 C192.57890071 495.47608442 188.56390934 492.53027777 184.56347656 489.56103516 C177.89993813 484.59305842 171.29665127 479.55828537 164.75097656 474.43603516 C159.27904707 470.15628425 153.7697952 465.96088436 148.12597656 461.90869141 C136.00964552 453.14117963 124.18052613 443.97339235 112.31347656 434.87353516 C103.63448849 428.22143405 94.9479889 421.58342889 86.18847656 415.03759766 C82.58505701 412.32524109 79.01581328 409.56959197 75.44702148 406.81201172 C70.45591553 402.9641941 65.41265076 399.18764654 60.3503418 395.43408203 C56.95565417 392.90498029 53.62123877 390.33141428 50.36035156 387.63134766 C49.7312085 387.11564209 49.10206543 386.59993652 48.45385742 386.06860352 C47.2642686 385.08747476 46.08471155 384.09401138 44.91723633 383.08666992 C41.80925117 380.46715174 41.80925117 380.46715174 37.91577148 380.05053711 C34.95080692 380.98823254 33.12734506 382.23183115 30.68847656 384.15478516 C29.38970581 385.16496704 29.38970581 385.16496704 28.06469727 386.19555664 C27.15679443 386.91428955 26.2488916 387.63302246 25.31347656 388.37353516 C23.43363007 389.83531289 21.55212159 391.29495586 19.66894531 392.75244141 C18.29875244 393.81422607 18.29875244 393.81422607 16.90087891 394.89746094 C4.83404901 404.11324893 4.83404901 404.11324893 -0.68652344 406.87353516 C-0.68652344 407.53353516 -0.68652344 408.19353516 -0.68652344 408.87353516 C-1.73839844 408.99728516 -2.79027344 409.12103516 -3.87402344 409.24853516 C-7.49956761 409.6679031 -7.49956761 409.6679031 -9.87792969 410.88916016 C-17.17772044 413.44764036 -28.40449372 413.35783168 -35.56152344 410.37353516 C-36.96635911 409.59154655 -38.34004671 408.75221022 -39.68652344 407.87353516 C-40.61464844 407.30248047 -41.54277344 406.73142578 -42.49902344 406.14306641 C-48.66928115 402.20008284 -54.33625864 397.81350334 -59.94433594 393.11572266 C-63.61076725 390.11781443 -67.4262757 387.35583324 -71.27636719 384.60009766 C-73.68652344 382.87353516 -73.68652344 382.87353516 -75.69042969 381.08447266 C-77.63966707 379.62697411 -77.63966707 379.62697411 -80.06103516 380.12011719 C-82.87195465 380.92674705 -84.42412636 381.89460223 -86.69042969 383.71728516 C-87.42495361 384.29961914 -88.15947754 384.88195312 -88.91625977 385.48193359 C-89.68607178 386.10616211 -90.45588379 386.73039063 -91.24902344 387.37353516 C-92.868183 388.66078898 -94.4879752 389.94724745 -96.10839844 391.23291016 C-96.89408203 391.86003906 -97.67976562 392.48716797 -98.48925781 393.13330078 C-101.28863262 395.35040563 -104.13304187 397.49320661 -106.99902344 399.62353516 C-111.00654028 402.60855799 -114.98253712 405.6306276 -118.93652344 408.68603516 C-126.46095652 414.49391468 -134.07421172 420.18163961 -141.68652344 425.87353516 C-152.73931931 434.14004126 -163.77183318 442.4252814 -174.68652344 450.87353516 C-182.97082364 457.27389808 -191.30061938 463.60641005 -199.68652344 469.87353516 C-200.59402344 470.55673828 -201.50152344 471.23994141 -202.43652344 471.94384766 C-208.63454188 476.60957821 -214.87152013 481.21868989 -221.12402344 485.81103516 C-226.77407229 489.96179583 -232.39205122 494.1451602 -237.93652344 498.43603516 C-238.95359375 499.21849609 -239.97066406 500.00095703 -241.01855469 500.80712891 C-242.63110627 502.05608906 -244.2353591 503.3160151 -245.82324219 504.59619141 C-248.62149316 506.77530659 -250.44347624 507.84143458 -253.99902344 508.31103516 C-256.68652344 507.87353516 -256.68652344 507.87353516 -258.68652344 505.87353516 C-259.51903052 500.87849266 -259.51903052 500.87849266 -258.68652344 497.87353516 C-257.14575195 496.35253906 -257.14575195 496.35253906 -255.12792969 494.97509766 C-254.03496582 494.20649414 -254.03496582 494.20649414 -252.91992188 493.42236328 C-252.18290039 492.91125 -251.44587891 492.40013672 -250.68652344 491.87353516 C-249.4267032 490.92561528 -248.17259894 489.97004295 -246.92480469 489.00634766 C-245.97565186 488.27943726 -245.97565186 488.27943726 -245.00732422 487.5378418 C-244.34458496 487.02987061 -243.6818457 486.52189941 -242.99902344 485.99853516 C-241.50300646 484.85390356 -240.00690896 483.70937719 -238.51074219 482.56494141 C-236.06056695 480.6903885 -233.61069229 478.81544829 -231.16162109 476.93945312 C-221.1289953 469.25694857 -211.05653121 461.64117857 -200.86425781 454.17163086 C-189.06391054 445.50467438 -177.46678245 436.56529242 -165.87402344 427.62353516 C-157.89635712 421.47579745 -149.82129168 415.45833669 -141.75390625 409.42919922 C-130.8383407 401.2691279 -119.97023203 393.04815592 -109.15283203 384.75830078 C-106.85407588 383.00157959 -104.54671484 381.25683424 -102.23730469 379.51416016 C-100.94912658 378.53033182 -99.66133578 377.54599604 -98.37402344 376.56103516 C-97.78733887 376.12331787 -97.2006543 375.68560059 -96.59619141 375.23461914 C-94.84006185 373.91459459 -94.84006185 373.91459459 -92.68652344 371.87353516 C-92.33586154 368.92616911 -92.33586154 368.92616911 -93.96484375 367.57421875 C-94.5587793 367.14447754 -95.15271484 366.71473633 -95.76464844 366.27197266 C-96.75428589 365.54421631 -96.75428589 365.54421631 -97.76391602 364.80175781 C-98.48087646 364.28919434 -99.19783691 363.77663086 -99.93652344 363.24853516 C-101.42486609 362.16007744 -102.91314695 361.07153523 -104.40136719 359.98291016 C-105.50520752 359.18336914 -105.50520752 359.18336914 -106.63134766 358.36767578 C-109.27835039 356.44326895 -111.88946738 354.47333433 -114.49902344 352.49853516 C-119.70519052 348.59213421 -124.94404752 344.73103254 -130.18652344 340.87353516 C-137.38273921 335.57844482 -144.5489555 330.24748669 -151.68652344 324.87353516 C-154.35243516 322.87252824 -157.01948185 320.87303578 -159.68652344 318.87353516 C-163.36163353 316.11827819 -167.03659272 313.36287497 -170.70605469 310.60009766 C-176.83822865 305.98595836 -183.00535644 301.42177058 -189.18652344 296.87353516 C-195.79906693 292.00759218 -202.39275911 287.11896769 -208.95117188 282.18017578 C-219.30637839 274.38317729 -229.67170002 266.6025347 -240.12402344 258.93603516 C-249.63061604 251.95895703 -258.9990082 244.80512018 -268.36767578 237.64453125 C-271.55139258 235.21300023 -274.73927091 232.78723985 -277.93652344 230.37353516 C-278.84917969 229.68259766 -279.76183594 228.99166016 -280.70214844 228.27978516 C-282.41715055 226.77716923 -282.41715055 226.77716923 -283.68652344 226.87353516 Z " fill="#252120" transform="translate(579.6865234375,176.12646484375)"/>
<path d="M0 0 C1.37168511 -0.00573832 1.37168511 -0.00573832 2.77108103 -0.01159257 C5.84806056 -0.02194575 8.9248543 -0.01792602 12.00184631 -0.01396179 C14.202669 -0.01830698 16.40349017 -0.02348947 18.60430908 -0.02944946 C24.59182933 -0.04287137 30.57928658 -0.0434146 36.56681895 -0.04088616 C41.55962211 -0.03981863 46.5524124 -0.0446942 51.54521281 -0.04949158 C63.99469628 -0.06123335 76.44415162 -0.06035538 88.89363611 -0.05393478 C99.70927785 -0.04876513 110.52482952 -0.06002125 121.34045344 -0.07903299 C132.44181583 -0.09839765 143.54314159 -0.10637816 154.64452177 -0.10290974 C160.87875832 -0.10109327 167.11291239 -0.10376934 173.34713554 -0.11762428 C179.20840918 -0.13016228 185.06950206 -0.12829676 190.93077278 -0.11521339 C193.08508489 -0.11283928 195.23940956 -0.11561199 197.39370728 -0.12383652 C200.32852041 -0.1342351 203.26271928 -0.12625884 206.19750977 -0.11352539 C207.05538446 -0.12089968 207.91325915 -0.12827396 208.79713005 -0.13587171 C212.14392846 -0.10520155 214.68967511 0.01618475 217.69129276 1.56924152 C219.1622467 3.26069641 219.1622467 3.26069641 219.6622467 6.69819641 C219.1622467 10.26069641 219.1622467 10.26069641 217.69087219 12.45118618 C213.9533547 15.12579188 210.69727536 14.81855468 206.20423889 14.77536011 C205.28892773 14.78230564 204.37361656 14.78925116 203.4305687 14.79640716 C200.35650682 14.81473692 197.28321147 14.80439617 194.2091217 14.79414368 C192.00814738 14.80119907 189.80717792 14.80994248 187.60621643 14.82025146 C181.62282529 14.84279648 175.63969802 14.83979389 169.65628052 14.83092999 C164.66589935 14.82582858 159.67556813 14.8331057 154.68519211 14.84040207 C142.24246262 14.85839042 129.79985062 14.85197375 117.35713148 14.83423226 C106.54795124 14.81953287 95.73904891 14.8341663 84.92990446 14.86300243 C73.83301279 14.89238594 62.73623256 14.90286344 51.6393013 14.89382023 C45.40838404 14.88888203 39.17768289 14.89115516 32.9467926 14.91160774 C27.08948874 14.92991292 21.23270297 14.9240691 15.37542725 14.89940834 C13.22273011 14.89438431 11.06999385 14.89793118 8.91732788 14.91055679 C5.98436784 14.92640136 3.05313189 14.91161762 0.12025452 14.8888855 C-1.16553434 14.90663909 -1.16553434 14.90663909 -2.47729874 14.92475134 C-6.61199475 14.85938765 -8.23364423 14.80472199 -11.40153503 11.95190334 C-13.35417453 8.2930187 -12.9508647 6.19369003 -11.8377533 2.26069641 C-7.90505441 -0.36110285 -4.56330972 -0.02005129 0 0 Z " fill="#272525" transform="translate(455.83775329589844,346.7393035888672)"/>
<path d="M0 0 C0.91531116 -0.0055344 1.83062233 -0.01106879 2.7736702 -0.0167709 C5.84776016 -0.03040905 8.92104267 -0.01539085 11.99511719 -0.00050354 C14.19608913 -0.00428556 16.39705869 -0.00978463 18.59802246 -0.01687622 C24.58143522 -0.0308633 30.56456146 -0.01963809 36.54795837 -0.00316501 C42.80280801 0.0106622 49.05764061 0.00422807 55.3125 0.0007019 C65.8174246 -0.00200206 76.32225443 0.01140407 86.82714844 0.03465271 C97.63708737 0.05857379 108.44687529 0.06565711 119.25683594 0.05516052 C132.2810735 0.04253651 145.30523158 0.0450398 158.32946777 0.06081963 C163.3054772 0.0665857 168.2814361 0.06649185 173.25744629 0.06175423 C179.11465125 0.05699006 184.97164658 0.06706303 190.82881165 0.08870888 C192.98150424 0.09428454 195.13421695 0.09473494 197.28691101 0.08975601 C200.21950326 0.08382275 203.15145035 0.09627085 206.08398438 0.11352539 C207.36977324 0.10451032 207.36977324 0.10451032 208.68153763 0.09531313 C212.02592614 0.13123478 214.57183751 0.25774746 217.57061768 1.8105917 C219.04199219 3.50120544 219.04199219 3.50120544 219.54199219 6.93870544 C219.04199219 10.50120544 219.04199219 10.50120544 217.57061768 12.69211578 C213.83241621 15.36658919 210.57722717 15.05591211 206.08398438 15.00914001 C205.16867321 15.01537998 204.25336205 15.02161994 203.31031418 15.02804899 C200.23623825 15.04403296 197.16294932 15.03135347 194.08886719 15.01878357 C191.88789405 15.02420227 189.68692453 15.03132351 187.48596191 15.0400238 C181.50255983 15.05828986 175.51943302 15.05117596 169.536026 15.03850746 C163.28117111 15.02839685 157.02634016 15.03776774 150.77148438 15.04405212 C139.59324007 15.05180092 128.41509703 15.03935204 117.23687696 15.01901478 C107.10023861 15.00114353 96.96378348 15.00424758 86.82714844 15.02268982 C75.05775813 15.04409259 63.28845711 15.05206573 51.51904678 15.04024076 C45.28816578 15.03399709 39.05741103 15.03319427 32.82653809 15.04638672 C26.96928818 15.05792132 21.11238508 15.04996295 15.25517273 15.02680969 C13.10247881 15.02150985 10.94975581 15.02305805 8.79707336 15.03186035 C5.86431836 15.04274888 2.93268314 15.02913303 0 15.00914001 C-1.28578886 15.02252434 -1.28578886 15.02252434 -2.59755325 15.03617907 C-6.4147858 14.98550634 -8.33649862 14.95450143 -11.4866333 12.65695953 C-13.50232422 9.70371145 -13.54193202 8.00475067 -12.95800781 4.50120544 C-9.52725961 -0.52626532 -5.56467813 -0.06235328 0 0 Z " fill="#272525" transform="translate(455.9580078125,290.49879455566406)"/>
<path d="M0 0 C0 22.44 0 44.88 0 68 C-28.05 68 -56.1 68 -85 68 C-82.22771416 56.91085664 -65.63954152 48.19972464 -56.67529297 41.64672852 C-50.55988903 37.17046211 -44.51646036 32.60822234 -38.5 28 C-29.44734545 21.07096307 -20.30024604 14.2800393 -11.09912109 7.54980469 C-8.22347618 5.42668374 -5.38084326 3.26070707 -2.54223633 1.08837891 C-1 0 -1 0 0 0 Z " fill="#E3A844" transform="translate(385,319)"/>
<path d="M0 0 C3.19341019 1.5967051 5.53686877 3.0533004 8.31640625 5.203125 C9.15300781 5.84636719 9.98960937 6.48960937 10.8515625 7.15234375 C12.19347656 8.19068359 12.19347656 8.19068359 13.5625 9.25 C20.49046352 14.57258714 27.44850741 19.84212308 34.5 25 C42.30703901 30.71632368 50.01306044 36.55688851 57.69580078 42.43896484 C62.21518371 45.89466322 66.75325938 49.3074766 71.375 52.625 C82.7037172 60.8148688 82.7037172 60.8148688 84 66 C56.28 66 28.56 66 0 66 C0 44.22 0 22.44 0 0 Z " fill="#E9AF49" transform="translate(734,320)"/>
<path d="M0 0 C22.77 0 45.54 0 69 0 C69 16.83 69 33.66 69 51 C64.66892726 49.26757091 62.11425764 47.78019818 58.5 45 C57.98228027 44.60482178 57.46456055 44.20964355 56.93115234 43.80249023 C55.28231814 42.54148599 53.64025296 41.27214179 52 40 C49.87573812 38.35320983 47.75111035 36.70690336 45.625 35.0625 C45.08520508 34.64460205 44.54541016 34.2267041 43.98925781 33.79614258 C39.58201438 30.40350229 35.07118967 27.17559204 30.52539062 23.97216797 C24.90846177 19.98911372 19.45922756 15.7957264 14.03613281 11.5534668 C9.99150418 8.41678622 5.90346616 5.62565191 1.46435547 3.0715332 C0.73949951 2.54112427 0.73949951 2.54112427 0 2 C0 1.34 0 0.68 0 0 Z " fill="#DFA643" transform="translate(316,400)"/>
<path d="M0 0 C1.13532669 -0.00540298 2.27065338 -0.01080597 3.44038391 -0.01637268 C7.19815026 -0.02889334 10.95515547 -0.01234573 14.71289062 0.00561523 C17.3207605 0.00546033 19.92863061 0.00397269 22.53649902 0.00120544 C28.00407826 -0.00149587 33.47143787 0.0119719 38.93896484 0.03515625 C45.257925 0.06176572 51.57651798 0.06351292 57.89551497 0.05176789 C63.97709428 0.04098415 70.05851962 0.04728271 76.14009094 0.06132317 C78.72690952 0.0658453 81.3137389 0.06616785 83.90055847 0.06225777 C87.51335934 0.05935337 91.12555657 0.07581669 94.73828125 0.09765625 C95.81165237 0.0931546 96.8850235 0.08865295 97.99092102 0.08401489 C98.97509506 0.09391953 99.9592691 0.10382416 100.9732666 0.11402893 C102.25414028 0.11767377 102.25414028 0.11767377 103.5608902 0.12139225 C106.39020567 0.58756178 107.77959016 1.56985041 109.86914062 3.50170898 C110.40039062 5.43920898 110.40039062 5.43920898 110.36914062 7.50170898 C110.38460937 8.52264648 110.38460937 8.52264648 110.40039062 9.56420898 C109.63896598 12.34116945 108.28778977 13.01035695 105.86914062 14.50170898 C103.54247952 14.88202572 103.54247952 14.88202572 100.92857361 14.88938904 C99.93454025 14.89929367 98.9405069 14.9091983 97.91635132 14.91940308 C96.28991196 14.9126506 96.28991196 14.9126506 94.63061523 14.90576172 C92.9105854 14.91605659 92.9105854 14.91605659 91.1558075 14.92655945 C87.36090763 14.94487944 83.56641902 14.94098301 79.77148438 14.93530273 C77.13879765 14.93986139 74.50611213 14.94516601 71.87342834 14.95118713 C66.35462497 14.96121633 60.83593878 14.95791627 55.31713867 14.94775391 C48.93562628 14.93626271 42.55453366 14.95036531 36.17307657 14.97715038 C30.03383255 15.00195473 23.89478262 15.00449008 17.75549507 14.99803352 C15.14271915 14.99787976 12.52993535 15.00396949 9.91718864 15.016325 C6.27056149 15.03114151 2.62486866 15.02062639 -1.02172852 15.00341797 C-2.10804565 15.01308594 -3.19436279 15.02275391 -4.31359863 15.03271484 C-5.30481216 15.02288071 -6.2960257 15.01304657 -7.317276 15.00291443 C-8.61059389 15.0026005 -8.61059389 15.0026005 -9.93003941 15.00228024 C-12.13085938 14.50170898 -12.13085938 14.50170898 -13.90436459 12.65788364 C-15.58488458 9.70353385 -15.61896346 7.84870841 -15.13085938 4.50170898 C-11.65202314 -1.13099055 -5.90161119 -0.05315644 0 0 Z " fill="#282727" transform="translate(458.130859375,401.498291015625)"/>
<path d="M0 0 C21.78 0 43.56 0 66 0 C66 0.66 66 1.32 66 2 C64.26171875 3.453125 64.26171875 3.453125 61.6875 5.25 C60.67816406 5.96671875 59.66882813 6.6834375 58.62890625 7.421875 C57.76676514 8.03192383 57.76676514 8.03192383 56.88720703 8.65429688 C53.27235341 11.231926 49.69991525 13.86740179 46.125 16.5 C45.320625 17.09167969 44.51625 17.68335938 43.6875 18.29296875 C37.47059619 22.88048123 31.32156084 27.55251599 25.1875 32.25 C19.09652263 36.911428 12.98707108 41.53522486 6.75 46 C6.17145264 46.41540039 5.59290527 46.83080078 4.99682617 47.25878906 C1.1290327 50 1.1290327 50 0 50 C0 33.5 0 17 0 0 Z " fill="#E7AB46" transform="translate(734,401)"/>
<path d="M0 0 C1.89105469 -0.05607422 1.89105469 -0.05607422 3.8203125 -0.11328125 C11.98495491 0.30649987 18.54189497 5.17338425 24.75 10.0625 C26.13214296 11.12847286 27.51495913 12.19357339 28.8984375 13.2578125 C29.56842773 13.77633789 30.23841797 14.29486328 30.92871094 14.82910156 C34.55194502 17.59061314 38.29433263 20.18421127 42.03125 22.7890625 C42.6396875 23.29179687 43.248125 23.79453125 43.875 24.3125 C43.875 24.9725 43.875 25.6325 43.875 26.3125 C15.165 26.3125 -13.545 26.3125 -43.125 26.3125 C-39.88382658 23.07132658 -37.1267245 20.4057129 -33.54296875 17.71875 C-32.69283203 17.08066406 -31.84269531 16.44257813 -30.96679688 15.78515625 C-30.09087891 15.13417969 -29.21496094 14.48320312 -28.3125 13.8125 C-27.44818359 13.16152344 -26.58386719 12.51054687 -25.69335938 11.83984375 C-10.10670627 0.19396709 -10.10670627 0.19396709 0 0 Z " fill="#E6AD47" transform="translate(558.125,185.6875)"/>
<path d="M0 0 C-1.66518311 4.08366335 -4.54692877 7.06037785 -7.5 10.25 C-7.99886719 10.80429688 -8.49773437 11.35859375 -9.01171875 11.9296875 C-10.2968354 13.3285008 -11.64433768 14.66944254 -13 16 C-13.66 16 -14.32 16 -15 16 C-13.42254867 10.39128416 -6.51337221 0 0 0 Z " fill="#313232" transform="translate(404,219)"/>
<path d="M0 0 C0.66 0.33 1.32 0.66 2 1 C0.79618552 3.49361571 -0.45428722 5.68143083 -2 8 C-5.125 8.1875 -5.125 8.1875 -8 8 C-8 7.34 -8 6.68 -8 6 C-6.25 4.4921875 -6.25 4.4921875 -4 2.875 C-3.2575 2.33617187 -2.515 1.79734375 -1.75 1.2421875 C-1.1725 0.83226562 -0.595 0.42234375 0 0 Z " fill="#DCA347" transform="translate(525,203)"/>
<path d="M0 0 C0 4.02046842 -1.26140024 5.11726341 -4 8 C-7.125 9.875 -7.125 9.875 -10 11 C-10.66 10.67 -11.32 10.34 -12 10 C-8.04 6.7 -4.08 3.4 0 0 Z " fill="#3A3226" transform="translate(488,546)"/>
<path d="M0 0 C0.66 0.33 1.32 0.66 2 1 C0.92492371 2.29854721 -0.16043736 3.58858361 -1.25 4.875 C-1.85328125 5.59429687 -2.4565625 6.31359375 -3.078125 7.0546875 C-4.97087634 8.97052118 -6.53657727 9.96449045 -9 11 C-7.59155282 7.78475695 -5.89655214 5.67816132 -3.375 3.25 C-2.74335938 2.63640625 -2.11171875 2.0228125 -1.4609375 1.390625 C-0.73777344 0.70226562 -0.73777344 0.70226562 0 0 Z " fill="#343434" transform="translate(299,365)"/>
<path d="M0 0 C0.66 0.33 1.32 0.66 2 1 C0.40629329 2.36646148 -1.20032982 3.71787166 -2.8125 5.0625 C-4.15248047 6.19365234 -4.15248047 6.19365234 -5.51953125 7.34765625 C-6.74736328 8.16556641 -6.74736328 8.16556641 -8 9 C-8.99 8.67 -9.98 8.34 -11 8 C-7.37 5.36 -3.74 2.72 0 0 Z " fill="#D29742" transform="translate(546,188)"/>
<path d="M0 0 C0.66 0.33 1.32 0.66 2 1 C0.27256146 4.61939504 -1.47650757 7.87567603 -4 11 C-4.99 10.67 -5.98 10.34 -7 10 C-6.401875 9.278125 -5.80375 8.55625 -5.1875 7.8125 C-3.22577804 5.29028605 -1.58276017 2.7698303 0 0 Z " fill="#3D3629" transform="translate(820,703)"/>
<path d="M0 0 C0.66 0.33 1.32 0.66 2 1 C-5.11389522 7.51936219 -5.11389522 7.51936219 -10 9 C-6.83047153 5.73991357 -3.60062011 2.77762123 0 0 Z " fill="#CE9742" transform="translate(341,351)"/>
<path d="M0 0 C2.625 -0.1875 2.625 -0.1875 5 0 C4.38125 0.556875 3.7625 1.11375 3.125 1.6875 C0.93893621 4.06645178 0.01214301 5.96357096 -1 9 C-1.33 9 -1.66 9 -2 9 C-2.25 3.375 -2.25 3.375 0 0 Z " fill="#363433" transform="translate(445,292)"/>
<path d="M0 0 C1.32 0.33 2.64 0.66 4 1 C1.36 2.98 -1.28 4.96 -4 7 C-4 4 -4 4 -2.25 1.75 C-1.5075 1.1725 -0.765 0.595 0 0 Z " fill="#2F2E20" transform="translate(529,197)"/>
<path d="M0 0 C-1.875 3.875 -1.875 3.875 -3 5 C-4.66617115 5.04063832 -6.33388095 5.042721 -8 5 C-3.375 0 -3.375 0 0 0 Z " fill="#322C23" transform="translate(366,641)"/>
<path d="M0 0 C0.33 1.32 0.66 2.64 1 4 C-0.21484375 5.703125 -0.21484375 5.703125 -1.9375 7.25 C-2.50339844 7.77078125 -3.06929687 8.2915625 -3.65234375 8.828125 C-4.09707031 9.21484375 -4.54179688 9.6015625 -5 10 C-5.66 9.67 -6.32 9.34 -7 9 C-4.69 6.03 -2.38 3.06 0 0 Z " fill="#D2D3D1" transform="translate(829,715)"/>
<path d="M0 0 C2.56616632 3.84924948 2.55097676 6.4349304 3 11 C2.01 10.34 1.02 9.68 0 9 C-0.29296875 6.8359375 -0.29296875 6.8359375 -0.1875 4.375 C-0.16042969 3.55773437 -0.13335938 2.74046875 -0.10546875 1.8984375 C-0.05326172 0.95871094 -0.05326172 0.95871094 0 0 Z " fill="#3E3B3B" transform="translate(730,236)"/>
<path d="M0 0 C0.66 0.33 1.32 0.66 2 1 C-1.465 3.97 -1.465 3.97 -5 7 C-5 6.01 -5 5.02 -5 4 C-2.5 1.8125 -2.5 1.8125 0 0 Z " fill="#D0A150" transform="translate(723,476)"/>
</svg>
