<?xml version="1.0" encoding="UTF-8"?>
<svg version="1.1" xmlns="http://www.w3.org/2000/svg" width="1056" height="992">
<path d="M0 0 C348.48 0 696.96 0 1056 0 C1056 327.36 1056 654.72 1056 992 C707.52 992 359.04 992 0 992 C0 664.64 0 337.28 0 0 Z " fill="#FDFDFD" transform="translate(0,0)"/>
<path d="M0 0 C2.04272406 1.57863803 2.04272406 1.57863803 4.31274414 2.8137207 C7.53451873 4.82494095 10.39016865 7.14266926 13.26171875 9.61328125 C13.86287003 10.13013489 14.4640213 10.64698853 15.08338928 11.17950439 C22.61858843 17.76118467 29.65314217 24.85449365 36.69555664 31.95458984 C39.02364639 34.30111553 41.35981951 36.6393603 43.69726562 38.9765625 C45.2062041 40.49041217 46.71468423 42.00471887 48.22265625 43.51953125 C48.90819077 44.20617859 49.59372528 44.89282593 50.30003357 45.60028076 C54.22116311 49.55960244 57.96920136 53.62075023 61.60133362 57.847229 C63.33613789 59.84060239 65.16965 61.70003384 67.0703125 63.53515625 C70.31880086 66.73366787 73.31575893 70.07151042 76.28125 73.53125 C78.17170491 75.6487246 80.16002358 77.61953837 82.1953125 79.59765625 C87.68963461 85.03884178 91.27010445 90.28007176 94.0703125 97.53515625 C94.58722656 98.74429688 95.10414063 99.9534375 95.63671875 101.19921875 C97.30943256 105.68058611 97.49213309 109.72834521 97.3828125 114.47265625 C97.37443359 115.25882324 97.36605469 116.04499023 97.35742188 116.85498047 C97.24436083 122.31017592 96.62616172 127.28416512 95.0703125 132.53515625 C94.4103125 132.53515625 93.7503125 132.53515625 93.0703125 132.53515625 C93.0496875 133.79328125 93.0290625 135.05140625 93.0078125 136.34765625 C91.69234082 147.55547499 82.22143836 156.45753242 74.0703125 163.53515625 C73.40386719 163.86386719 72.73742187 164.19257813 72.05078125 164.53125 C69.15701002 165.99811234 67.29763198 168.19544909 65.0703125 170.53515625 C60.02959259 175.64881262 55.03233296 180.71412296 49.51171875 185.3125 C47.94480511 186.60781121 47.94480511 186.60781121 46.1328125 188.47265625 C44.2584635 190.34700525 42.3287521 192.05750821 40.3203125 193.78515625 C37.45392215 196.26936122 34.73127673 198.83228707 32.0703125 201.53515625 C28.90330296 204.74529627 25.62074234 207.74325802 22.20703125 210.6875 C16.86495523 215.306882 11.54580459 219.95761419 6.6328125 225.03515625 C2.98389378 228.76134619 -1.07173645 231.92209479 -5.13671875 235.1796875 C-8.71527777 238.19768902 -11.93888594 241.48340414 -15.15234375 244.8828125 C-16.9296875 246.53515625 -16.9296875 246.53515625 -18.9296875 246.53515625 C-19.2596875 247.52515625 -19.5896875 248.51515625 -19.9296875 249.53515625 C-21.58814715 250.98989508 -23.30654473 252.37701502 -25.0546875 253.72265625 C-33.87896944 260.3549788 -33.87896944 260.3549788 -38.5546875 269.84765625 C-38.18145351 272.5256462 -38.18145351 272.5256462 -36.5546875 273.91015625 C-33.8877886 276.57705515 -33.70427329 279.90056139 -32.9296875 283.53515625 C-32.2696875 283.53515625 -31.6096875 283.53515625 -30.9296875 283.53515625 C-30.2696875 286.17515625 -29.6096875 288.81515625 -28.9296875 291.53515625 C-28.2696875 291.53515625 -27.6096875 291.53515625 -26.9296875 291.53515625 C-18.298708 307.09552071 -18.298708 307.09552071 -15.9296875 315.53515625 C-15.2696875 315.53515625 -14.6096875 315.53515625 -13.9296875 315.53515625 C-12.86401367 316.96875 -12.86401367 316.96875 -11.72265625 318.97265625 C-11.30048828 319.70355469 -10.87832031 320.43445313 -10.44335938 321.1875 C-10.00572266 321.96222656 -9.56808594 322.73695313 -9.1171875 323.53515625 C-8.25763332 325.0358 -7.39695869 326.53580253 -6.53515625 328.03515625 C-6.10895996 328.78152344 -5.68276367 329.52789062 -5.24365234 330.296875 C-3.5630355 333.15973178 -1.76661875 335.94022888 0.0612793 338.7109375 C1.128189 340.63979046 1.53923407 342.4083557 2.0703125 344.53515625 C3.40066633 345.87146244 4.73466636 347.20413974 6.0703125 348.53515625 C7.87465049 351.10936444 9.5000357 353.78726472 11.1328125 356.47265625 C11.7834668 357.52743164 11.7834668 357.52743164 12.44726562 358.60351562 C13.28546772 359.96479665 14.11979325 361.32847438 14.94970703 362.69482422 C15.91262528 364.27619191 16.89399955 365.84629525 17.87890625 367.4140625 C19.0703125 369.53515625 19.0703125 369.53515625 19.0703125 371.53515625 C19.7303125 371.53515625 20.3903125 371.53515625 21.0703125 371.53515625 C22.55078125 373.37109375 22.55078125 373.37109375 24.2578125 375.91015625 C24.88300781 376.82796875 25.50820313 377.74578125 26.15234375 378.69140625 C26.78527344 379.62984375 27.41820312 380.56828125 28.0703125 381.53515625 C32.80660482 388.41639016 37.7246824 395.13671914 42.76220703 401.80029297 C44.20183381 403.70958522 45.63466399 405.62385115 47.06640625 407.5390625 C57.70467569 421.76841443 68.62095199 435.65841938 80.32470703 449.03076172 C84.15346137 453.42180437 87.79727777 457.91573711 91.2890625 462.58203125 C93.4171278 464.91543619 95.1727867 466.25683604 98.0703125 467.53515625 C103.09766594 467.45016848 105.46264211 465.77791026 109.0078125 462.34765625 C109.86246094 461.54070312 110.71710938 460.73375 111.59765625 459.90234375 C112.41363281 459.12117188 113.22960937 458.34 114.0703125 457.53515625 C120.6897457 451.53515625 120.6897457 451.53515625 123.0703125 451.53515625 C123.0703125 450.87515625 123.0703125 450.21515625 123.0703125 449.53515625 C124.328125 448.23046875 124.328125 448.23046875 126.1953125 446.66015625 C126.92363281 446.04011719 127.65195312 445.42007812 128.40234375 444.78125 C129.28277344 444.04003906 130.16320312 443.29882812 131.0703125 442.53515625 C133.34474159 440.60185629 135.61426939 438.6628576 137.8828125 436.72265625 C138.78725098 435.9500647 138.78725098 435.9500647 139.70996094 435.16186523 C144.43434756 431.11302293 149.04809236 426.96016845 153.63671875 422.7578125 C157.06595448 419.6258139 160.55546083 416.57043403 164.0703125 413.53515625 C164.54774902 413.12072266 165.02518555 412.70628906 165.51708984 412.27929688 C193.26460578 388.20711725 193.26460578 388.20711725 204.0703125 382.53515625 C205.6790625 381.66890625 205.6790625 381.66890625 207.3203125 380.78515625 C219.32781895 375.32719877 238.45083355 374.70585915 251.14453125 378.90234375 C259.79690146 382.58502275 266.79395785 389.12100438 273.30761719 395.75048828 C275.28896545 397.75653479 277.30643253 399.72214091 279.328125 401.6875 C280.78506334 403.11465205 282.24080676 404.54302505 283.6953125 405.97265625 C284.38302734 406.64683594 285.07074219 407.32101562 285.77929688 408.015625 C289.11550695 411.3485022 291.72984904 414.41217263 294.0703125 418.53515625 C295.74235511 420.20069861 295.74235511 420.20069861 297.6328125 421.66015625 C305.6917493 428.47925662 312.3110249 436.72979301 318.921875 444.91796875 C320.91627546 447.34751113 322.96738231 449.6994907 325.0703125 452.03515625 C327.91247994 455.19622831 330.64130895 458.42208532 333.3203125 461.72265625 C340.02780462 469.98517249 346.98826798 478.0368517 354.0078125 486.03515625 C354.53375 486.64359375 355.0596875 487.25203125 355.6015625 487.87890625 C356.5696415 488.9705698 357.56983912 490.03468287 358.6015625 491.06640625 C361.30930104 493.89448872 362.06167462 495.46151085 362.5234375 499.3984375 C362.41911846 502.75269594 362.15560598 503.42707564 359.96484375 506.203125 C358.94777344 507.03457031 357.93070313 507.86601563 356.8828125 508.72265625 C355.69826757 509.73130232 354.51898375 510.74614512 353.34375 511.765625 C352.67698242 512.34103027 352.01021484 512.91643555 351.32324219 513.50927734 C346.70465484 517.66240238 342.37849012 522.12445256 338.0078125 526.53515625 C337.09169189 527.45578857 336.17557129 528.3764209 335.23168945 529.32495117 C333.56856242 530.99671062 331.90647516 532.6695057 330.24584961 534.34375 C323.93880382 540.69680163 323.93880382 540.69680163 320.6328125 543.47265625 C316.19465545 547.31352861 312.08975042 551.45653821 307.99047852 555.65209961 C304.5014211 559.19735371 300.86845683 562.50176359 297.10546875 565.75390625 C293.7635501 568.67888688 290.54735129 571.73470564 287.3203125 574.78515625 C285.91575373 576.10588272 284.51080258 577.42619202 283.10546875 578.74609375 C282.07897217 579.71047363 282.07897217 579.71047363 281.03173828 580.69433594 C273.82892278 587.45425987 266.55810455 594.0291566 258.8515625 600.21875 C255.81938568 602.74414446 252.94642185 605.39829622 250.0703125 608.09765625 C245.47709866 612.40566078 240.66467092 616.15742006 235.4453125 619.68359375 C232.84781145 621.70861924 231.09963654 623.95465777 229.0703125 626.53515625 C225.0941861 629.62164706 221.09491609 631.04495102 216.0703125 631.53515625 C216.0703125 632.19515625 216.0703125 632.85515625 216.0703125 633.53515625 C214.80191724 634.04130923 213.53048148 634.53984724 212.2578125 635.03515625 C211.19626953 635.4528125 211.19626953 635.4528125 210.11328125 635.87890625 C208.0703125 636.53515625 208.0703125 636.53515625 205.0703125 636.53515625 C205.0703125 637.19515625 205.0703125 637.85515625 205.0703125 638.53515625 C203.21743679 639.12257722 201.36289596 639.70474506 199.5078125 640.28515625 C198.47527344 640.61 197.44273437 640.93484375 196.37890625 641.26953125 C195.74734619 641.45499512 195.11578613 641.64045898 194.46508789 641.83154297 C192.57565143 642.38668171 190.69345889 642.96647472 188.81420898 643.55517578 C179.51765395 646.29674139 170.99135417 647.11677477 161.2578125 646.91015625 C159.8357784 646.89100207 158.41374055 646.87212502 156.99169922 646.85351562 C153.01598658 646.78955122 149.04422857 646.67066097 145.0703125 646.53515625 C144.14718262 646.50711914 143.22405273 646.47908203 142.27294922 646.45019531 C127.60655702 645.86220604 109.76574252 641.96452046 97.0703125 634.53515625 C96.7403125 633.87515625 96.4103125 633.21515625 96.0703125 632.53515625 C93.76844055 631.53979701 93.76844055 631.53979701 91.0078125 630.66015625 C86.11621295 628.9615068 81.64525571 626.95210738 77.0703125 624.53515625 C77.0703125 623.87515625 77.0703125 623.21515625 77.0703125 622.53515625 C76.26980469 622.34953125 76.26980469 622.34953125 75.453125 622.16015625 C69.3325273 620.46587315 65.37764356 617.62445687 60.57421875 613.53515625 C57.50304774 611.08205242 54.287173 609.30320916 50.78515625 607.54296875 C49.0703125 606.53515625 49.0703125 606.53515625 48.0703125 604.53515625 C46.96623047 604.10976562 46.96623047 604.10976562 45.83984375 603.67578125 C42.58680132 602.3360233 40.43384719 600.56230299 37.7578125 598.28515625 C34.66676466 595.69081065 31.59868591 593.13812448 28.3203125 590.78515625 C22.1522668 586.23558535 16.48419357 581.03429725 10.7265625 575.984375 C9.44068623 574.85923326 8.14756292 573.7423714 6.8515625 572.62890625 C-3.78448224 563.48563972 -13.85235762 553.8218024 -23.35791016 543.51147461 C-27.58110891 538.93754314 -31.92472 534.52067706 -36.3671875 530.16015625 C-40.99302841 525.60632526 -45.17647041 520.94005438 -49.12890625 515.77734375 C-51.57355451 512.733465 -54.31675199 510.0651885 -57.109375 507.34375 C-60.28795004 504.18563789 -63.12397034 500.93640349 -65.3671875 497.03515625 C-67.08758915 494.28251361 -69.04937765 492.34210695 -71.4296875 490.16015625 C-72.9296875 488.53515625 -72.9296875 488.53515625 -74.33984375 486.15234375 C-76.07846402 483.29024159 -78.06642944 481.08894976 -80.3671875 478.66015625 C-82.99666664 475.80128797 -85.35357511 473.15694992 -87.1796875 469.72265625 C-89.05410487 466.3085389 -91.15341779 464.2453243 -93.9296875 461.53515625 C-97.51980292 457.1472374 -100.62717282 452.5151318 -103.57421875 447.6796875 C-105.68419478 444.3414257 -107.98683923 441.14290078 -110.28125 437.9296875 C-111.42575659 436.26716963 -112.50967601 434.56195519 -113.54296875 432.828125 C-114.79431837 430.53555235 -114.79431837 430.53555235 -116.4921875 429.03515625 C-117.9296875 427.53515625 -117.9296875 427.53515625 -118.8671875 425.03515625 C-119.69683447 422.4376005 -119.69683447 422.4376005 -121.8125 421.30859375 C-125.55251921 418.17581013 -126.56889963 413.44285033 -128.26953125 408.98046875 C-130.03220034 405.32241195 -132.0432834 403.33829869 -134.9296875 400.53515625 C-136.15234375 398.03515625 -136.15234375 398.03515625 -136.9921875 395.53515625 C-138.45868707 391.51564124 -140.22970508 388.86513456 -142.9296875 385.53515625 C-143.80074807 383.21559046 -144.36021096 380.95543155 -144.9296875 378.53515625 C-145.5896875 378.53515625 -146.2496875 378.53515625 -146.9296875 378.53515625 C-147.3834375 377.42140625 -147.8371875 376.30765625 -148.3046875 375.16015625 C-149.65434736 371.57316617 -149.65434736 371.57316617 -151.9296875 369.53515625 C-152.59954729 367.97027373 -153.21868868 366.38333485 -153.8046875 364.78515625 C-155.41938772 360.61085717 -157.36695522 357.21908391 -159.9296875 353.53515625 C-162.45473867 348.98269174 -164.29583362 344.4787656 -165.9296875 339.53515625 C-166.86934845 337.04639711 -167.82385396 334.56985977 -168.8046875 332.09765625 C-169.17013672 331.1530957 -169.17013672 331.1530957 -169.54296875 330.18945312 C-170.84161907 326.91591229 -172.2598987 323.86926882 -174.0546875 320.8359375 C-175.60999693 318.09794485 -176.49109488 316.19396332 -177.0546875 313.16015625 C-177.3434375 311.96390625 -177.6321875 310.76765625 -177.9296875 309.53515625 C-178.5896875 309.20515625 -179.2496875 308.87515625 -179.9296875 308.53515625 C-180.78125 305.91796875 -180.78125 305.91796875 -181.5546875 302.66015625 C-181.81507813 301.59023438 -182.07546875 300.5203125 -182.34375 299.41796875 C-182.9296875 296.53515625 -182.9296875 296.53515625 -182.9296875 293.53515625 C-183.5896875 293.53515625 -184.2496875 293.53515625 -184.9296875 293.53515625 C-185.11144531 292.76171875 -185.29320312 291.98828125 -185.48046875 291.19140625 C-187.08431209 284.37069946 -187.08431209 284.37069946 -189.4296875 277.78515625 C-191.32405733 273.10378159 -192.02516645 268.12795012 -192.83984375 263.16894531 C-193.50649263 259.20922839 -193.50649263 259.20922839 -194.953125 255.48828125 C-196.396932 252.60066725 -196.59019204 249.72409499 -196.9921875 246.53515625 C-197.50504533 242.08772292 -197.50504533 242.08772292 -198.42431641 237.71801758 C-200.6765969 227.98968911 -200.11617307 217.36969474 -200.11499023 207.41137695 C-200.11719725 205.33850139 -200.13551326 203.26614314 -200.15429688 201.19335938 C-200.19640899 191.23513976 -199.53030865 182.20867615 -195.70703125 172.9453125 C-194.63480578 169.62087474 -194.12861674 166.22193251 -193.5546875 162.78515625 C-192.29305801 155.5176011 -190.14558938 149.20163394 -186.9296875 142.53515625 C-186.12144531 140.82005859 -186.12144531 140.82005859 -185.296875 139.0703125 C-175.89703966 119.65944176 -162.8397352 103.9295585 -147.9296875 88.53515625 C-147.31641602 87.8999707 -146.70314453 87.26478516 -146.07128906 86.61035156 C-144.28217326 84.76464802 -142.48370292 82.92879019 -140.6796875 81.09765625 C-140.13070801 80.53554443 -139.58172852 79.97343262 -139.01611328 79.39428711 C-137.69267696 78.06812249 -136.31571494 76.79576096 -134.9296875 75.53515625 C-134.2696875 75.53515625 -133.6096875 75.53515625 -132.9296875 75.53515625 C-132.9296875 74.87515625 -132.9296875 74.21515625 -132.9296875 73.53515625 C-131.35546875 71.984375 -131.35546875 71.984375 -129.2421875 70.22265625 C-126.73166456 68.09870941 -124.32145329 65.98014281 -122.0546875 63.59765625 C-119.9296875 61.53515625 -119.9296875 61.53515625 -117.9296875 61.53515625 C-117.9296875 60.87515625 -117.9296875 60.21515625 -117.9296875 59.53515625 C-116.6015625 58.1953125 -116.6015625 58.1953125 -114.6796875 56.59765625 C-111.01994738 53.48947271 -107.45639486 50.29267049 -103.9296875 47.03515625 C-99.97099129 43.38963635 -95.97838933 39.79253722 -91.91015625 36.26953125 C-89.61835595 34.26251087 -87.36971998 32.21112774 -85.1171875 30.16015625 C-81.67590545 27.04986774 -78.16647452 24.07037313 -74.5546875 21.16015625 C-70.4939044 17.87941058 -66.62291808 14.46449577 -62.8046875 10.91015625 C-49.44269793 -1.46484375 -49.44269793 -1.46484375 -43.9296875 -1.46484375 C-43.9296875 -2.12484375 -43.9296875 -2.78484375 -43.9296875 -3.46484375 C-31.20085775 -9.62395492 -11.22472939 -8.34385778 0 0 Z " fill="#142D4B" transform="translate(438.9296875,155.46484375)"/>
<path d="M0 0 C3.98411012 1.39393032 6.53017237 4.04841917 9.48999023 6.94360352 C10.51116188 7.92200951 10.51116188 7.92200951 11.55296326 8.92018127 C13.97554327 11.25533794 16.37738067 13.61031762 18.77514648 15.97094727 C19.23664345 16.42514793 19.69814041 16.8793486 20.17362213 17.34731293 C27.70316736 24.76302763 35.17863685 32.23233164 42.64385986 39.71270752 C44.91731779 41.988787 47.19450129 44.26112147 49.47165012 46.53350735 C51.69124631 48.74947173 53.90843322 50.96783447 56.1249218 53.18690681 C57.17063311 54.23327727 58.2170656 55.27892759 59.26428413 56.3237896 C64.35651298 61.40704733 69.33614357 66.52922789 74.02186584 71.99305725 C77.57310989 75.99924427 81.4129167 79.72972949 85.20874023 83.50219727 C86.0866774 84.37871948 86.96461456 85.2552417 87.86915588 86.1583252 C90.64796145 88.93157522 93.43024045 91.70131009 96.21264648 94.47094727 C98.10834513 96.36105532 100.00324431 98.25196245 101.89819336 100.14282227 C106.52119837 104.75485731 111.14705305 109.36401868 115.77514648 113.97094727 C114.53666403 117.68639463 113.04668686 118.55590695 109.96264648 120.90844727 C107.33629574 122.92185353 104.88862789 124.85464394 102.57592773 127.22485352 C100.77514648 128.97094727 100.77514648 128.97094727 98.77514648 128.97094727 C98.77514648 129.63094727 98.77514648 130.29094727 98.77514648 130.97094727 C97.51733398 132.24047852 97.51733398 132.24047852 95.65014648 133.78344727 C91.63522158 137.18725086 87.79482868 140.7405645 83.96264648 144.34594727 C78.79967783 149.18410488 73.52377119 153.76289465 67.98217773 158.16625977 C65.7926521 159.88353052 65.7926521 159.88353052 64.09936523 161.71313477 C62.77514648 162.97094727 62.77514648 162.97094727 60.77514648 162.97094727 C60.77514648 163.63094727 60.77514648 164.29094727 60.77514648 164.97094727 C59.74782395 165.84728003 58.67647346 166.67231938 57.58764648 167.47094727 C52.63222334 171.69111454 49.21680367 176.43611174 48.5690918 183.08666992 C48.35676194 188.05960342 48.51578383 193.0027115 48.77514648 197.97094727 C49.43514648 197.97094727 50.09514648 197.97094727 50.77514648 197.97094727 C52.12954316 200.67974062 51.84016099 202.98027994 51.77514648 205.97094727 C52.43514648 205.97094727 53.09514648 205.97094727 53.77514648 205.97094727 C61.55952492 219.75312548 61.55952492 219.75312548 63.83764648 225.78344727 C64.60844079 227.97835032 64.60844079 227.97835032 66.10327148 229.23657227 C68.34552462 231.56264795 69.82322201 234.12795585 71.46264648 236.90844727 C72.08526367 237.9487207 72.70788086 238.98899414 73.34936523 240.06079102 C74.77514648 242.97094727 74.77514648 242.97094727 74.77514648 246.97094727 C75.43514648 246.97094727 76.09514648 246.97094727 76.77514648 246.97094727 C78.77514648 249.97094727 78.77514648 249.97094727 78.77514648 253.97094727 C79.43514648 253.97094727 80.09514648 253.97094727 80.77514648 253.97094727 C81.0290918 254.58583008 81.28303711 255.20071289 81.54467773 255.83422852 C82.06094727 257.0465918 82.06094727 257.0465918 82.58764648 258.28344727 C83.09231445 259.48420898 83.09231445 259.48420898 83.60717773 260.70922852 C84.77038737 262.96173145 85.98415551 264.21847223 87.77514648 265.97094727 C88.24952148 267.10532227 88.72389648 268.23969727 89.21264648 269.40844727 C90.48356891 272.91836744 90.48356891 272.91836744 92.65014648 274.78344727 C95.45356637 277.66932067 96.81579126 280.89060112 98.54858398 284.49438477 C100.70361065 288.84561694 102.65887994 292.22676957 106.77514648 294.97094727 C107.46753768 296.6389806 108.15920188 298.31031161 108.73608398 300.02172852 C110.23862718 302.84040916 112.51455966 304.72700688 114.77514648 306.97094727 C116.17489022 308.87578087 117.52701453 310.81623668 118.83764648 312.78344727 C122.73472489 318.54531914 126.84104815 324.11680262 131.04199219 329.65991211 C134.37893352 334.07578551 137.63133355 338.54309255 140.84375 343.05029297 C145.29669805 349.29554129 149.72946821 355.36090562 154.96264648 360.98657227 C156.94514822 363.15706986 158.7657477 365.41418832 160.58764648 367.72094727 C167.46310914 376.39233974 174.6177256 384.80672182 182.08764648 392.97094727 C182.56685547 393.49857666 183.04606445 394.02620605 183.53979492 394.56982422 C185.93957997 397.16516268 188.37041838 399.5082609 191.13061523 401.72094727 C192.00331055 402.46344727 192.87600586 403.20594727 193.77514648 403.97094727 C193.77514648 404.63094727 193.77514648 405.29094727 193.77514648 405.97094727 C201.07496269 408.26108568 209.55350173 409.67465852 216.98999023 407.24829102 C220.86457371 405.15415071 223.79740441 402.16138521 226.77514648 398.97094727 C232.27165374 393.23983299 237.96170771 388.0341884 244.19702148 383.11157227 C246.88960734 380.97624383 246.88960734 380.97624383 249.35327148 378.14282227 C250.15249023 377.42610352 250.95170898 376.70938477 251.77514648 375.97094727 C254.35101687 376.16574746 255.50216675 376.71437773 257.38745117 378.48632812 C257.90210938 379.12965088 258.41676758 379.77297363 258.94702148 380.43579102 C259.52500488 381.14856201 260.10298828 381.86133301 260.69848633 382.59570312 C261.30128418 383.35890869 261.90408203 384.12211426 262.52514648 384.90844727 C263.1498584 385.68389893 263.77457031 386.45935059 264.41821289 387.25830078 C266.21258595 389.48903592 267.99483027 391.7289897 269.77514648 393.97094727 C270.57178711 394.96094727 271.36842773 395.95094727 272.18920898 396.97094727 C274.06051109 399.29702797 275.91962998 401.63226564 277.77514648 403.97094727 C285.19310093 413.28443534 292.68286356 422.52850243 300.40014648 431.59594727 C311.38891208 444.53117471 311.38891208 444.53117471 314.33764648 449.72094727 C315.74911132 452.19207997 315.74911132 452.19207997 318.54858398 454.21313477 C321.81583092 456.88219479 324.3221489 459.97792503 326.83764648 463.34594727 C330.87949166 468.62791204 335.07671654 473.72110176 339.46264648 478.72094727 C344.39368132 484.34949018 349.19580688 490.04938743 353.77514648 495.97094727 C354.36038086 496.65801758 354.94561523 497.34508789 355.54858398 498.05297852 C355.95334961 498.6859082 356.35811523 499.31883789 356.77514648 499.97094727 C355.672661 503.27840371 355.25429577 503.590357 352.52514648 505.47094727 C348.6940706 508.22795366 345.10026124 511.20672999 341.52514648 514.28344727 C319.6609308 532.97094727 319.6609308 532.97094727 313.77514648 532.97094727 C313.77514648 533.63094727 313.77514648 534.29094727 313.77514648 534.97094727 C312.50675123 535.47710024 311.23531547 535.97563826 309.96264648 536.47094727 C308.90110352 536.88860352 308.90110352 536.88860352 307.81811523 537.31469727 C305.77514648 537.97094727 305.77514648 537.97094727 302.77514648 537.97094727 C302.44514648 538.96094727 302.11514648 539.95094727 301.77514648 540.97094727 C299.25796748 542.00778528 296.87538102 542.83558987 294.27514648 543.59594727 C293.59194336 543.81250977 292.90874023 544.02907227 292.20483398 544.25219727 C283.49746402 546.89375894 274.82302658 547.16532255 265.77514648 547.15844727 C264.77708984 547.1583667 263.7790332 547.15828613 262.75073242 547.15820312 C253.24910772 547.08603696 242.8693949 547.0023634 233.77514648 543.97094727 C233.77514648 543.31094727 233.77514648 542.65094727 233.77514648 541.97094727 C232.49639648 541.72344727 231.21764648 541.47594727 229.90014648 541.22094727 C225.4243845 540.23726331 221.3921304 538.67741739 217.17749023 536.90454102 C215.03009753 536.0700258 213.02276974 535.50829725 210.77514648 535.03344727 C205.72261269 533.90491 201.3072287 531.40415534 196.77514648 528.97094727 C196.77514648 528.31094727 196.77514648 527.65094727 196.77514648 526.97094727 C195.82639648 526.68219727 194.87764648 526.39344727 193.90014648 526.09594727 C190.77514648 524.97094727 190.77514648 524.97094727 188.77514648 522.97094727 C187.84702148 522.78532227 187.84702148 522.78532227 186.90014648 522.59594727 C184.77514648 521.97094727 184.77514648 521.97094727 182.96264648 520.09594727 C180.66198387 517.86101787 178.63586833 517.09091981 175.68920898 515.94360352 C172.6369372 514.39255112 170.37366347 512.03296969 167.87280273 509.72485352 C165.77560225 507.97132835 163.7642146 506.77838221 161.33764648 505.53344727 C157.07230981 503.29196932 153.84784834 500.51675764 150.32983398 497.24829102 C147.40623442 494.64208529 144.32380269 492.28211213 141.21264648 489.90844727 C130.28259874 481.48708283 120.48481545 471.7490256 110.77514648 461.97094727 C107.86916883 459.06032748 104.95534114 456.1580451 102.03295898 453.26391602 C100.65530254 451.89547906 99.27769954 450.5269883 97.90014648 449.15844727 C96.87727539 448.14814453 96.87727539 448.14814453 95.83374023 447.11743164 C91.83057536 443.13332946 88.01473294 439.05516221 84.3503418 434.7565918 C82.77279384 432.9682803 81.11995366 431.30937803 79.40014648 429.65844727 C75.67344872 425.9980019 72.48072749 421.97308105 69.21264648 417.90454102 C66.7504966 414.9412805 64.16910979 412.14747234 61.52514648 409.34594727 C55.81448316 403.254708 50.84361421 396.66128081 45.82983398 389.99438477 C43.39652692 386.7644504 40.87669006 383.63052295 38.27514648 380.53344727 C25.13425778 364.64885652 13.5498043 347.15723198 2.56567383 329.72851562 C0.5555844 326.57029556 -1.46822318 323.6066266 -3.93188477 320.78344727 C-6.08778132 318.1390767 -7.10684542 316.32823854 -8.03735352 313.09594727 C-8.27067383 312.31477539 -8.50399414 311.53360352 -8.74438477 310.72875977 C-8.90293945 310.14868164 -9.06149414 309.56860352 -9.22485352 308.97094727 C-9.88485352 308.97094727 -10.54485352 308.97094727 -11.22485352 308.97094727 C-11.89640284 307.68181239 -12.56194211 306.38954523 -13.22485352 305.09594727 C-13.59610352 304.37665039 -13.96735352 303.65735352 -14.34985352 302.91625977 C-15.22485352 300.97094727 -15.22485352 300.97094727 -15.22485352 298.97094727 C-15.88485352 298.97094727 -16.54485352 298.97094727 -17.22485352 298.97094727 C-18.35325979 296.9102481 -19.47764122 294.8475163 -20.59985352 292.78344727 C-21.53958008 291.06061523 -21.53958008 291.06061523 -22.49829102 289.30297852 C-23.9242577 286.55105639 -25.09435345 283.84858379 -26.22485352 280.97094727 C-26.88698436 279.76911731 -27.57261232 278.57975317 -28.28735352 277.40844727 C-29.82544815 274.67956968 -30.54631704 272.91127199 -31.22485352 269.97094727 C-31.88485352 269.64094727 -32.54485352 269.31094727 -33.22485352 268.97094727 C-33.91335909 267.1464075 -34.59419823 265.31868017 -35.24047852 263.47875977 C-36.38823021 260.55472569 -37.78320758 257.82395995 -39.22485352 255.03344727 C-41.35347404 250.85968154 -43.01725867 246.84464464 -44.38500977 242.37719727 C-45.81820064 238.27093875 -47.75035612 234.39369782 -49.62719727 230.47485352 C-54.04911331 220.7769105 -57.25733293 210.80496833 -60.40063477 200.63305664 C-60.73708008 199.55991211 -61.07352539 198.48676758 -61.42016602 197.38110352 C-61.71938965 196.41309814 -62.01861328 195.44509277 -62.3269043 194.44775391 C-63.18610519 191.77135075 -63.18610519 191.77135075 -65.22485352 188.97094727 C-71.65688105 169.31029631 -72.50277236 148.72476675 -72.53735352 128.22094727 C-72.54093872 127.35655029 -72.54452393 126.49215332 -72.54821777 125.6015625 C-72.56993529 115.8730404 -72.33293943 106.51622673 -70.22485352 96.97094727 C-70.06299561 96.21652344 -69.9011377 95.46209961 -69.734375 94.68481445 C-68.0647155 87.27747279 -66.14880928 79.98844111 -63.22485352 72.97094727 C-62.56485352 72.97094727 -61.90485352 72.97094727 -61.22485352 72.97094727 C-61.08047852 71.69219727 -60.93610352 70.41344727 -60.78735352 69.09594727 C-60.51842605 66.71401832 -60.30259006 65.12642035 -59.22485352 62.97094727 C-58.56485352 62.97094727 -57.90485352 62.97094727 -57.22485352 62.97094727 C-57.05469727 62.35606445 -56.88454102 61.74118164 -56.70922852 61.10766602 C-55.29126101 56.37859354 -54.48704609 53.72074893 -50.22485352 50.97094727 C-49.93473389 50.23440918 -49.64461426 49.49787109 -49.34570312 48.73901367 C-45.31866665 38.79378616 -36.26176964 30.55043376 -28.73144531 23.14135742 C-27.15115388 21.58491666 -25.58488667 20.01529396 -24.01977539 18.44360352 C-19.20717739 13.64530013 -14.39750736 9.02958302 -8.81762695 5.11279297 C-6.97533217 3.83805698 -6.97533217 3.83805698 -4.53735352 1.53344727 C-2.22485352 -0.02905273 -2.22485352 -0.02905273 0 0 Z " fill="#8B6FAC" transform="translate(332.224853515625,236.029052734375)"/>
<path d="M0 0 C0 0.66 0 1.32 0 2 C0.58974609 2.27239502 1.17949219 2.54479004 1.78710938 2.82543945 C10.18252087 7.2815653 17.02506769 15.83885437 23.69970703 22.5144043 C25.49102185 24.30353281 27.29019674 26.08449225 29.08984375 27.86523438 C35.52734717 34.27187142 41.44914936 40.79546908 47 48 C48.49983451 49.72679855 50.01564614 51.44019143 51.5625 53.125 C52.30886719 53.94613281 53.05523438 54.76726563 53.82421875 55.61328125 C54.54222656 56.40089844 55.26023437 57.18851563 56 58 C62.57638797 65.26328342 62.57638797 65.26328342 64.4375 68.5 C66.51585619 71.8253699 69.20681219 74.28525062 72.00390625 77.015625 C75.22934142 80.22212415 78.11709191 83.50289498 80.4375 87.4375 C82.2561659 90.42011208 84.46459289 92.75278267 86.890625 95.25390625 C88 97 88 97 87.8125 99.09765625 C86.60344567 101.92847095 84.41737405 103.13202915 82 105 C80.79866244 106.46108622 79.59848958 107.92322153 78.41333008 109.39746094 C76.91006325 111.101977 75.31773854 112.49581309 73.57421875 113.953125 C69.97979907 117.05845783 66.59493605 120.33761731 63.2578125 123.71484375 C62.75895035 124.21925491 62.2600882 124.72366608 61.74610901 125.24336243 C59.67274994 127.34427045 57.60338646 129.44903062 55.53808594 131.55786133 C54.01146331 133.11449651 52.47882953 134.66500464 50.9453125 136.21484375 C50.04312988 137.13386475 49.14094727 138.05288574 48.21142578 138.99975586 C46 141 46 141 44 141 C44 141.66 44 142.32 44 143 C42.42578125 144.55078125 42.42578125 144.55078125 40.3125 146.3125 C37.80197706 148.43644684 35.39176579 150.55501344 33.125 152.9375 C31 155 31 155 29 155 C29 155.66 29 156.32 29 157 C26.00995456 160.33176491 23.08748447 163.11346871 19 165 C15.23968253 164.84535491 13.39551337 162.66052546 10.94067383 160.0012207 C10.44462646 159.44394287 9.9485791 158.88666504 9.4375 158.3125 C8.91373779 157.7352417 8.38997559 157.1579834 7.8503418 156.56323242 C3.65926519 151.88316537 -0.2349357 146.9998336 -4.06469727 142.02270508 C-6.74809751 138.54633901 -9.52120174 135.2327633 -12.5 132 C-16.04903839 128.14675832 -19.29778358 124.13965283 -22.5 120 C-26.4129245 114.94382929 -30.48981473 110.13798699 -34.81640625 105.42578125 C-40.10261148 99.55327061 -44.96160943 93.30926757 -49.875 87.125 C-53.45026881 82.63992124 -57.14151787 78.2630744 -60.85620117 73.89379883 C-65.30781985 68.6525634 -69.66873105 63.34110943 -74 58 C-74.75925781 57.07574219 -75.51851562 56.15148437 -76.30078125 55.19921875 C-77.02652344 54.30847656 -77.75226562 53.41773438 -78.5 52.5 C-79.1496875 51.7059375 -79.799375 50.911875 -80.46875 50.09375 C-82 48 -82 48 -83 45 C-83.66 45 -84.32 45 -85 45 C-84.70546788 40.71378262 -83.15858913 38.77997436 -79.99951172 35.95239258 C-79.46342285 35.49372803 -78.92733398 35.03506348 -78.375 34.5625 C-77.56119873 33.84453247 -77.56119873 33.84453247 -76.73095703 33.11206055 C-75.65321943 32.16401788 -74.57111537 31.22091236 -73.484375 30.28320312 C-72.21675166 29.18737611 -70.96592688 28.07216727 -69.71875 26.953125 C-65.27619048 23 -65.27619048 23 -63 23 C-63 22.34 -63 21.68 -63 21 C-61.41005885 19.54082037 -59.75012428 18.15750645 -58.0625 16.8125 C-57.0621875 16.01199219 -56.061875 15.21148438 -55.03125 14.38671875 C-54.0309375 13.59910156 -53.030625 12.81148437 -52 12 C-51.1440625 11.32582031 -50.288125 10.65164063 -49.40625 9.95703125 C-47.27869805 8.29399481 -45.14543875 6.63987991 -43 5 C-42.33355469 4.46503906 -41.66710937 3.93007813 -40.98046875 3.37890625 C-38.19601884 1.44022613 -35.26427308 0.81606827 -32 0 C-32 -0.66 -32 -1.32 -32 -2 C-21.72984068 -4.69381228 -9.29689395 -6.1979293 0 0 Z " fill="#FCFCFC" transform="translate(687,556)"/>
<path d="M0 0 C1.010625 0.433125 2.02125 0.86625 3.0625 1.3125 C6.3366445 3.19339152 8.3673892 5.28863589 11 8 C12.08848434 9.10290579 13.17840727 10.20439308 14.26953125 11.3046875 C15.13094727 12.17383789 15.13094727 12.17383789 16.00976562 13.06054688 C22.32706002 19.46943374 22.32706002 19.46943374 29 25.5 C32.94544599 28.84505204 36.58903869 32.47529164 40.25 36.125 C40.85328125 36.72376953 41.4565625 37.32253906 42.078125 37.93945312 C45.28098236 41.15303434 48.17733812 44.44251292 51 48 C52.64065228 49.6922812 54.31201402 51.35492891 56 53 C74.32976895 70.9709322 74.32976895 70.9709322 82 81 C82.67804688 81.85722656 83.35609375 82.71445313 84.0546875 83.59765625 C90.29329805 91.50240175 91.06580357 97.70840393 90.34667969 107.70263672 C88.34057173 120.99663384 73.44921328 132.84517772 64 141.6875 C63.44803955 142.20513916 62.8960791 142.72277832 62.32739258 143.25610352 C59.8950278 145.48141046 58.16462531 146.9451249 55 148 C55 148.66 55 149.32 55 150 C53.35546875 151.69140625 53.35546875 151.69140625 51.1875 153.5625 C50.47980469 154.18253906 49.77210938 154.80257812 49.04296875 155.44140625 C47 157 47 157 44 158 C44 158.66 44 159.32 44 160 C41.75 162.1875 41.75 162.1875 39 164 C35.16128685 163.71459623 33.11125271 161.5949944 30.37052917 159.05192566 C29.48869146 158.23436987 28.60685375 157.41681408 27.69829369 156.57448387 C23.42738189 152.49954066 19.23300027 148.35565382 15.0715332 144.16918945 C14.12598844 143.22171908 13.18021099 142.27448087 12.23422241 141.32745361 C10.21891394 139.3090162 8.2051612 137.28904473 6.19265175 135.26781654 C3.00447193 132.06596692 -0.18765091 128.86806713 -3.38032532 125.67070007 C-10.15237537 118.88761572 -16.920158 112.10028099 -23.6875 105.3125 C-31.00682364 97.9710949 -38.32690886 90.6304583 -45.65188724 83.2946946 C-48.82007764 80.12154942 -51.98582084 76.94598956 -55.14965284 73.76849902 C-56.64493497 72.26753 -58.14137674 70.76772867 -59.63833618 69.26843262 C-61.45561375 67.44830483 -63.27110906 65.62639495 -65.08439636 63.80229187 C-69.56819 59.31810865 -74.11965774 55.05024374 -79 51 C-77.19516671 42.67124424 -67.97000067 37.20780082 -61.61328125 32.17578125 C-58.91132422 30.00183292 -58.91132422 30.00183292 -56.35546875 27.29296875 C-54 25 -54 25 -51 24 C-50.67 23.01 -50.34 22.02 -50 21 C-48.06640625 19.2734375 -48.06640625 19.2734375 -45.5625 17.375 C-40.91879917 13.77063537 -36.55107046 9.95986125 -32.2265625 5.98046875 C-23.36366027 -1.90284955 -11.20964199 -4.84052722 0 0 Z " fill="#FCFDFD" transform="translate(426,171)"/>
<path d="M0 0 C0.33 0.66 0.66 1.32 1 2 C-0.675397 6.76165463 -2.25187381 9.57314177 -6 13 C-6.99076392 14.13582052 -7.96894424 15.28268351 -8.9375 16.4375 C-15.46173005 24.09281516 -15.46173005 24.09281516 -19.4375 26.4375 C-22.85202293 28.51952617 -25.2390288 31.11061154 -28 34 C-28.66 33.67 -29.32 33.34 -30 33 C-25.77000808 28.68188325 -21.55756826 24.40363621 -16.9375 20.5 C-10.02610735 14.53857964 -4.58156 7.87455625 0 0 Z " fill="#465F78" transform="translate(513,285)"/>
<path d="M0 0 C0.66 0.33 1.32 0.66 2 1 C0.54253764 4.34314819 -1.30984087 6.6078211 -3.875 9.1875 C-4.55304687 9.88230469 -5.23109375 10.57710937 -5.9296875 11.29296875 C-8.09742689 13.08033123 -9.29939052 13.47576404 -12 14 C-13.3479743 14.63654342 -14.68596724 15.29605388 -16 16 C-15.0919838 14.86800647 -14.17316174 13.74467637 -13.25 12.625 C-12.48429688 11.68527344 -12.48429688 11.68527344 -11.703125 10.7265625 C-9.91800519 8.91687682 -8.32050356 7.99882545 -6 7 C-6 6.34 -6 5.68 -6 5 C-4.04072937 3.2856382 -2.04119788 1.61594832 0 0 Z " fill="#2F4963" transform="translate(737,692)"/>
<path d="M0 0 C0.66 0.33 1.32 0.66 2 1 C-1.92958004 5.78990229 -5.5182281 10.0099426 -11 13 C-11.99 13 -12.98 13 -14 13 C-9.38 8.71 -4.76 4.42 0 0 Z " fill="#475E76" transform="translate(595,576)"/>
<path d="M0 0 C0.66 0 1.32 0 2 0 C0.60829459 3.21919737 -1.0015693 5.07544963 -3.625 7.375 C-6.64641856 10.26597446 -6.64641856 10.26597446 -7.4375 14.4375 C-7.293125 15.283125 -7.14875 16.12875 -7 17 C-7.66 16.67 -8.32 16.34 -9 16 C-9.4375 13.5 -9.4375 13.5 -9 10 C-6.39054362 6.30155788 -3.19167606 3.19167606 0 0 Z " fill="#C1C5CC" transform="translate(409,412)"/>
<path d="M0 0 C-2.69412214 2.69412214 -5.35895642 2.99557418 -9 4 C-10.0828125 4.5878125 -10.0828125 4.5878125 -11.1875 5.1875 C-13.49823506 6.22334675 -14.66370893 5.83438967 -17 5 C-15.02 4.67 -13.04 4.34 -11 4 C-11 3.34 -11 2.68 -11 2 C-3.57142857 -1.57142857 -3.57142857 -1.57142857 0 0 Z " fill="#B1B5BC" transform="translate(655,790)"/>
<path d="M0 0 C1 2 1 2 -0.0625 5.375 C-1.86015752 9.39872874 -4.20582043 10.89212246 -8 13 C-6.53181332 9.89257577 -4.79975 7.09528261 -2.875 4.25 C-2.33617187 3.45078125 -1.79734375 2.6515625 -1.2421875 1.828125 C-0.62730469 0.92320312 -0.62730469 0.92320312 0 0 Z " fill="#5A7087" transform="translate(513,285)"/>
<path d="M0 0 C0.66 0.33 1.32 0.66 2 1 C-0.79716804 4.29078593 -4.19528578 6.06305458 -8 8 C-8.66 7.67 -9.32 7.34 -10 7 C-9.67 5.68 -9.34 4.36 -9 3 C-7.88625 2.87625 -6.7725 2.7525 -5.625 2.625 C-1.96896323 2.3534187 -1.96896323 2.3534187 0 0 Z " fill="#6A7889" transform="translate(669,778)"/>
<path d="M0 0 C0.66 0.33 1.32 0.66 2 1 C1.51789063 1.47050781 1.03578125 1.94101563 0.5390625 2.42578125 C-0.09257812 3.04839844 -0.72421875 3.67101562 -1.375 4.3125 C-2.00148438 4.92738281 -2.62796875 5.54226562 -3.2734375 6.17578125 C-5.18086607 8.08812528 -5.18086607 8.08812528 -7 11 C-7.99 11 -8.98 11 -10 11 C-10 10.34 -10 9.68 -10 9 C-8.3203125 7.34375 -8.3203125 7.34375 -6.125 5.5 C-4.00964496 3.71066742 -1.95980876 1.95980876 0 0 Z " fill="#4B647A" transform="translate(331,206)"/>
<path d="M0 0 C0.66 0.33 1.32 0.66 2 1 C0.73965413 2.50882261 -0.53363649 4.00684044 -1.8125 5.5 C-2.52019531 6.3353125 -3.22789062 7.170625 -3.95703125 8.03125 C-6 10 -6 10 -9 10 C-9 9.34 -9 8.68 -9 8 C-7.28515625 6.30859375 -7.28515625 6.30859375 -5.0625 4.4375 C-3.96615234 3.50744141 -3.96615234 3.50744141 -2.84765625 2.55859375 C-2.23792969 2.04425781 -1.62820313 1.52992188 -1 1 C-0.67 0.67 -0.34 0.34 0 0 Z " fill="#536A81" transform="translate(479,321)"/>
<path d="M0 0 C0.33 0.99 0.66 1.98 1 3 C0.0479279 4.00596297 -0.91187346 5.00461563 -1.875 6 C-2.40867187 6.556875 -2.94234375 7.11375 -3.4921875 7.6875 C-5 9 -5 9 -7 9 C-5.44499019 5.18315774 -2.96404505 2.80804268 0 0 Z " fill="#3E586F" transform="translate(289,246)"/>
<path d="M0 0 C0.66 0.33 1.32 0.66 2 1 C0.35 2.98 -1.3 4.96 -3 7 C-3.99 6.67 -4.98 6.34 -6 6 C-4.02 4.02 -2.04 2.04 0 0 Z " fill="#3E5870" transform="translate(367,174)"/>
<path d="M0 0 C-0.33 0.99 -0.66 1.98 -1 3 C-3.64 3.33 -6.28 3.66 -9 4 C-9 3.34 -9 2.68 -9 2 C-5.62902617 0.50178941 -3.79557881 0 0 0 Z " fill="#4E6378" transform="translate(404,150)"/>
<path d="M0 0 C0.99 0.33 1.98 0.66 3 1 C0.03 3.475 0.03 3.475 -3 6 C-2.42655063 3.13275314 -2.1385485 2.1385485 0 0 Z " fill="#223F5A" transform="translate(504,298)"/>
</svg>
