<?xml version="1.0" encoding="UTF-8"?>
<svg version="1.1" xmlns="http://www.w3.org/2000/svg" width="1056" height="992">
<path d="M0 0 C348.48 0 696.96 0 1056 0 C1056 327.36 1056 654.72 1056 992 C707.52 992 359.04 992 0 992 C0 664.64 0 337.28 0 0 Z " fill="#FDFDFD" transform="translate(0,0)"/>
<path d="M0 0 C1.03544952 0.0036557 2.07089905 0.0073114 3.13772583 0.01107788 C16.50870409 0.0661786 29.80935598 0.43486568 43.125 1.6875 C45.02149292 1.86369873 45.02149292 1.86369873 46.95629883 2.04345703 C52.80351624 2.67500007 58.1271303 3.60215317 63.64672852 5.64135742 C67.00493526 6.84860844 70.46030647 7.59291808 73.9375 8.375 C74.66549805 8.54306152 75.39349609 8.71112305 76.14355469 8.88427734 C79.59264892 9.679003 83.04564532 10.45499557 86.5 11.2265625 C87.634375 11.48179687 88.76875 11.73703125 89.9375 12 C90.93265625 12.21914062 91.9278125 12.43828125 92.953125 12.6640625 C95.64861896 13.36489093 98.12858932 14.28232646 100.6875 15.375 C100.6875 16.035 100.6875 16.695 100.6875 17.375 C101.4609375 17.54515625 102.234375 17.7153125 103.03125 17.890625 C108.59012553 19.18402673 113.6793424 20.51728945 118.67578125 23.3125 C120.94093204 24.50885149 123.27555211 25.48686326 125.6340332 26.48291016 C129.67826904 28.23985199 133.64533016 30.16496921 137.625 32.0625 C138.49962891 32.47822266 139.37425781 32.89394531 140.27539062 33.32226562 C142.41332646 34.33866135 144.55067849 35.3562642 146.6875 36.375 C146.6875 37.035 146.6875 37.695 146.6875 38.375 C147.36167969 38.61992187 148.03585937 38.86484375 148.73046875 39.1171875 C152.32840714 40.64761836 155.62626063 42.53343308 159 44.5 C159.64517578 44.87253906 160.29035156 45.24507812 160.95507812 45.62890625 C162.53425945 46.54132213 164.11111864 47.45775509 165.6875 48.375 C165.6875 49.035 165.6875 49.695 165.6875 50.375 C166.38875 50.61347656 167.09 50.85195312 167.8125 51.09765625 C173.1245315 53.4577572 177.46995183 57.39547805 181.98193359 61.01025391 C183.50649306 62.23016336 185.04346686 63.43452066 186.58203125 64.63671875 C203.16194032 78.06489142 219.32372357 93.96610989 231.6875 111.375 C232.52294707 112.506534 233.36023758 113.63670889 234.19921875 114.765625 C242.37570485 125.86696948 249.71480893 137.52030518 256.3125 149.625 C256.65555176 150.2449585 256.99860352 150.86491699 257.35205078 151.50366211 C259.11692094 154.82233536 259.6875 156.51173168 259.6875 160.375 C260.3475 160.375 261.0075 160.375 261.6875 160.375 C261.92984375 161.0040625 262.1721875 161.633125 262.421875 162.28125 C263.99874516 166.3083338 265.56611117 170.25565657 267.625 174.0625 C270.20099737 179.03194375 271.75365215 184.37359742 273.44140625 189.69140625 C274.60669092 193.34929792 274.60669092 193.34929792 276.1796875 196.61328125 C278.34023514 201.51985529 279.19773361 206.76854313 280.25 212 C280.66385791 214.03469464 281.08169288 216.06858525 281.50390625 218.1015625 C281.68381104 218.99439941 281.86371582 219.88723633 282.04907227 220.80712891 C282.70751276 223.45549492 283.66240285 225.84971011 284.6875 228.375 C285.11693688 230.63617071 285.49022928 232.90858565 285.8125 235.1875 C286.06386719 236.92966797 286.06386719 236.92966797 286.3203125 238.70703125 C286.44148437 239.58746094 286.56265625 240.46789062 286.6875 241.375 C288.16863281 241.89900391 288.16863281 241.89900391 289.6796875 242.43359375 C290.97398214 242.89316214 292.26825167 243.35280123 293.5625 243.8125 C294.53896484 244.15764648 294.53896484 244.15764648 295.53515625 244.50976562 C300.4609375 246.26171875 300.4609375 246.26171875 302.6875 247.375 C302.6875 248.035 302.6875 248.695 302.6875 249.375 C304.0075 249.375 305.3275 249.375 306.6875 249.375 C306.6875 250.035 306.6875 250.695 306.6875 251.375 C307.24824219 251.62378906 307.80898438 251.87257813 308.38671875 252.12890625 C320.21500165 258.53505607 327.05904816 270.11562958 330.9609375 282.55078125 C334.19889576 295.13703837 334.47559595 311.19036776 329.6875 323.375 C328.39397667 325.07274938 327.06506197 326.74469985 325.6875 328.375 C324.90916466 330.55714568 324.90916466 330.55714568 324.6875 332.375 C324.0275 332.375 323.3675 332.375 322.6875 332.375 C322.460625 333.09042969 322.23375 333.80585937 322 334.54296875 C320.40714776 337.97992671 318.38615027 340.03984167 315.6875 342.6875 C314.800625 343.57050781 313.91375 344.45351563 313 345.36328125 C310.6875 347.375 310.6875 347.375 308.6875 347.375 C308.3575 348.365 308.0275 349.355 307.6875 350.375 C303.30165469 353.91197202 298.0950775 354.48248721 292.6875 355.375 C292.6875 356.035 292.6875 356.695 292.6875 357.375 C288.7275 358.035 284.7675 358.695 280.6875 359.375 C280.3575 361.355 280.0275 363.335 279.6875 365.375 C279.08625973 367.43419348 278.44183786 369.48112122 277.76171875 371.515625 C277.18454102 373.24619141 277.18454102 373.24619141 276.59570312 375.01171875 C276.19287109 376.20410156 275.79003906 377.39648438 275.375 378.625 C274.98376953 379.80191406 274.59253906 380.97882813 274.18945312 382.19140625 C271.18439345 391.1517666 268.0597061 399.98036428 263.6875 408.375 C263.29433594 409.18195313 262.90117188 409.98890625 262.49609375 410.8203125 C262.06425781 411.70460938 261.63242187 412.58890625 261.1875 413.5 C260.7853125 414.32757812 260.383125 415.15515625 259.96875 416.0078125 C258.71635133 418.32169542 257.26550137 420.27668466 255.6875 422.375 C254.64907435 424.69148799 253.6453025 427.02403024 252.6875 429.375 C252.3575 430.035 252.0275 430.695 251.6875 431.375 C251.0275 431.375 250.3675 431.375 249.6875 431.375 C249.42710937 432.09042969 249.16671875 432.80585937 248.8984375 433.54296875 C237.17988844 460.94925284 208.90898833 488.68243746 185.6875 506.375 C184.1715625 507.5815625 184.1715625 507.5815625 182.625 508.8125 C176.43224825 513.71681431 170.0978238 518.20796341 163.35620117 522.33203125 C160.03977381 524.38452753 157.36194903 526.54429102 154.6875 529.375 C151.80159301 531.37910207 148.98027782 532.66126565 145.6875 533.8125 C143.02119045 534.76404542 141.5519732 535.48556133 139.3125 537.3125 C134.23675138 541.3005882 127.99492401 543.25993754 121.6875 544.375 C121.3575 545.365 121.0275 546.355 120.6875 547.375 C114.19726834 550.83645689 106.05583838 553.375 98.6875 553.375 C98.6875 554.035 98.6875 554.695 98.6875 555.375 C91.08996094 558.76546788 83.50832632 560.76320589 75.375 562.4375 C74.14821533 562.69499023 72.92143066 562.95248047 71.6574707 563.21777344 C61.93904033 565.21395738 52.20354454 566.83057371 42.35546875 568.02661133 C40.41086373 568.28054172 38.47105011 568.57199479 36.53515625 568.88549805 C26.09105819 570.49586894 15.81501176 570.71433547 5.26367188 570.69067383 C2.3238415 570.6875122 -0.61498044 570.71107038 -3.5546875 570.73632812 C-13.85901108 570.76987666 -23.57290131 570.18651404 -33.67504883 568.10571289 C-37.32074958 567.37334277 -40.92977785 566.90248652 -44.625 566.5 C-59.62254078 564.52333668 -73.929668 559.98838785 -88.25 555.25 C-88.9121048 555.03230957 -89.57420959 554.81461914 -90.25637817 554.59033203 C-92.16170223 553.96097575 -94.06334411 553.3205059 -95.96484375 552.6796875 C-97.06820068 552.30827637 -98.17155762 551.93686523 -99.30834961 551.55419922 C-102.2150767 550.41324092 -104.67770684 549.03722428 -107.3125 547.375 C-108.81878205 546.7354175 -110.34051995 546.13111443 -111.875 545.5625 C-117.88912547 543.23123266 -123.58382602 540.32792473 -129.3125 537.375 C-129.3125 536.715 -129.3125 536.055 -129.3125 535.375 C-130.04339844 535.26285156 -130.77429688 535.15070312 -131.52734375 535.03515625 C-143.70462886 532.14881518 -157.86198086 520.30004164 -167.3125 512.375 C-167.3125 511.715 -167.3125 511.055 -167.3125 510.375 C-167.87453125 510.28476562 -168.4365625 510.19453125 -169.015625 510.1015625 C-190.75523624 503.2247467 -213.3817497 469.60876232 -226.3125 451.9375 C-227.17766235 450.76441284 -227.17766235 450.76441284 -228.06030273 449.56762695 C-228.59727783 448.82472412 -229.13425293 448.08182129 -229.6875 447.31640625 C-230.16960937 446.65326416 -230.65171875 445.99012207 -231.1484375 445.30688477 C-232.34457505 443.32176806 -232.87862581 441.63991154 -233.3125 439.375 C-233.9725 439.375 -234.6325 439.375 -235.3125 439.375 C-238.3125 433.625 -238.3125 433.625 -238.3125 431.375 C-238.9725 431.375 -239.6325 431.375 -240.3125 431.375 C-244.3125 423.375 -244.3125 423.375 -248.3125 415.375 C-248.68262207 414.69663086 -249.05274414 414.01826172 -249.43408203 413.31933594 C-250.3125 411.375 -250.3125 411.375 -250.3125 408.375 C-250.9725 408.375 -251.6325 408.375 -252.3125 408.375 C-252.62703125 407.55257813 -252.9415625 406.73015625 -253.265625 405.8828125 C-256.16255151 398.32225808 -256.16255151 398.32225808 -259.1875 390.8125 C-261.23086021 385.71247389 -263.09229488 380.54926664 -264.9375 375.375 C-265.38971924 374.12867798 -265.38971924 374.12867798 -265.85107422 372.85717773 C-267.66342594 367.71881188 -268.96293486 362.67867009 -269.89599609 357.30859375 C-270.12902995 355.37768556 -270.12902995 355.37768556 -271.3125 354.375 C-271.65840919 352.59542042 -271.94859092 350.80494659 -272.21484375 349.01171875 C-272.38306641 347.89603516 -272.55128906 346.78035156 -272.72460938 345.63085938 C-272.98467773 343.86452148 -272.98467773 343.86452148 -273.25 342.0625 C-273.59168706 339.77462582 -273.93413162 337.48686464 -274.27734375 335.19921875 C-274.4280835 334.17916748 -274.57882324 333.15911621 -274.73413086 332.1081543 C-275.06399043 329.97903538 -275.41168803 327.85208195 -275.8132019 325.73530579 C-277.19984771 318.20762882 -277.60547791 310.97713687 -277.578125 303.33203125 C-277.58003845 302.12415451 -277.5819519 300.91627777 -277.58392334 299.67179871 C-277.58527588 297.13137604 -277.58164504 294.59094624 -277.57324219 292.05053711 C-277.56257694 288.21516931 -277.57314561 284.38027489 -277.5859375 280.54492188 C-277.59466741 267.67060807 -277.38084768 255.09884253 -275.3125 242.375 C-275.14787262 241.35761246 -275.14787262 241.35761246 -274.97991943 240.31967163 C-274.2964964 236.15547357 -273.55167657 232.00557452 -272.76293945 227.86010742 C-272.36936768 225.78277172 -271.9899911 223.70314619 -271.61132812 221.62304688 C-270.36742597 214.92699364 -268.93583395 208.66955612 -266.3125 202.375 C-265.71085826 200.42221367 -265.12666721 198.46394057 -264.5625 196.5 C-262.87786356 190.94069975 -260.91891224 185.53459863 -258.8125 180.125 C-258.52793945 179.39297363 -258.24337891 178.66094727 -257.95019531 177.90673828 C-250.03999052 157.84259853 -239.84538134 138.92103387 -227.3125 121.375 C-226.9093457 120.80749023 -226.50619141 120.23998047 -226.09082031 119.65527344 C-220.2733441 111.52667709 -213.85979513 103.91656925 -207.3125 96.375 C-206.61898437 95.56804687 -205.92546875 94.76109375 -205.2109375 93.9296875 C-194.60787392 81.85283902 -183.1573445 70.0623602 -170.3125 60.375 C-169.65620605 59.86936523 -168.99991211 59.36373047 -168.32373047 58.84277344 C-153.21782067 47.22284282 -137.42717252 37.32085179 -120.4375 28.6875 C-119.19818726 28.05376465 -119.19818726 28.05376465 -117.93383789 27.40722656 C-113.7191239 25.32272594 -110.06189262 23.82550509 -105.3125 23.375 C-105.3125 22.715 -105.3125 22.055 -105.3125 21.375 C-104.31089844 21.04886719 -103.30929687 20.72273438 -102.27734375 20.38671875 C-100.9348418 19.94547685 -99.59239693 19.50406129 -98.25 19.0625 C-97.59322266 18.84916016 -96.93644531 18.63582031 -96.25976562 18.41601562 C-93.02568715 17.34861042 -89.92149789 16.20637492 -86.7890625 14.85546875 C-76.84862739 10.62240706 -66.05710533 8.20616423 -55.5625 5.75 C-54.75611084 5.55615723 -53.94972168 5.36231445 -53.11889648 5.16259766 C-35.47588268 1.158293 -18.04916595 -0.13979514 0 0 Z " fill="#141E41" transform="translate(498.3125,203.625)"/>
<path d="M0 0 C8.13375878 29.66226074 12.89805622 59.04925181 15.25 89.6875 C15.37024536 91.25129395 15.37024536 91.25129395 15.49291992 92.84667969 C16.03011576 100.61574188 16 108.16454926 16 116 C-28.22 116 -72.44 116 -118 116 C-118 79.7 -118 43.4 -118 6 C-104.47 5.67 -90.94 5.34 -77 5 C-65.74280351 4.44450588 -65.74280351 4.44450588 -54.49780273 3.75268555 C-51.60518682 3.55692951 -48.71193056 3.37440241 -45.81835938 3.19335938 C-35.76971431 2.54905001 -25.75395027 1.76123346 -15.74699402 0.63172913 C-10.4668528 0.0574039 -5.31224167 -0.07626175 0 0 Z " fill="#79D1EB" transform="translate(630,362)"/>
<path d="M0 0 C7.41694536 -0.16793084 14.62629984 0.18755577 22.00073242 0.96557617 C53.18922927 4.20917984 84.69627482 4.21286571 116 5 C116 41.63 116 78.26 116 116 C72.44 116 28.88 116 -16 116 C-16 103.81981815 -15.93338006 92.92220016 -14.28222656 81.05908203 C-13.81192506 77.62783386 -13.40605049 74.18934433 -13 70.75 C-12.91621094 70.0595459 -12.83242188 69.3690918 -12.74609375 68.65771484 C-12.27817829 64.71732679 -11.88757131 60.77971971 -11.5703125 56.82421875 C-10.7711069 47.03060898 -9.49193384 37.88840761 -6.87890625 28.41015625 C-6.11770758 25.45670542 -5.64245414 22.71702595 -5.375 19.6875 C-5 16 -5 16 -3 13 C-2.39896659 10.78610171 -1.86324191 8.55397421 -1.375 6.3125 C-1.11460937 5.13300781 -0.85421875 3.95351563 -0.5859375 2.73828125 C-0.39257812 1.83464844 -0.19921875 0.93101562 0 0 Z " fill="#79D2EB" transform="translate(379,362)"/>
<path d="M0 0 C44.22 0 88.44 0 134 0 C134 29.3372093 134 29.3372093 133 41 C132.94618164 41.73395996 132.89236328 42.46791992 132.83691406 43.22412109 C131.85949977 56.51309002 129.45214034 69.2649447 126.58740234 82.26611328 C125.77228149 86.05984698 125.06326255 89.86905711 124.375 93.6875 C123.12449212 100.51170017 121.61454958 107.25388565 120 114 C108.17536634 113.43829893 96.38553352 112.68575444 84.58895874 111.69940186 C56.37009499 109.35628694 28.39135375 108.69247204 0 108 C0 72.36 0 36.72 0 0 Z " fill="#79D1EB" transform="translate(512,495)"/>
<path d="M0 0 C43.56 0 87.12 0 132 0 C132 35.64 132 71.28 132 108 C115.83 108.33 99.66 108.66 83 109 C70.01538438 109.57402471 70.01538438 109.57402471 57.04394531 110.30224609 C53.71733415 110.50983893 50.39006965 110.70295831 47.0625 110.89453125 C44.89318361 111.02266863 42.72391045 111.1515405 40.5546875 111.28125 C39.58522186 111.338573 38.61575623 111.395896 37.61691284 111.45495605 C32.69309827 111.76464859 27.87598965 112.25533637 23 113 C21.1884279 113.0616181 19.37494968 113.08732808 17.5625 113.0625 C16.69753906 113.05347656 15.83257812 113.04445313 14.94140625 113.03515625 C14.30074219 113.02355469 13.66007812 113.01195312 13 113 C11.09005076 104.05981205 9.49533939 95.12131588 8.19604492 86.07299805 C7.53964017 81.52291004 6.83577154 76.99061694 6.02734375 72.46484375 C3.77369205 59.66113025 2.30829095 46.88645033 1.25 33.9375 C1.18506348 33.16334747 1.12012695 32.38919495 1.05322266 31.59158325 C0.86555682 29.32074829 0.68858597 27.04934229 0.515625 24.77734375 C0.41540039 23.47015381 0.31517578 22.16296387 0.21191406 20.81616211 C-0.09311456 13.88378934 0 6.93908025 0 0 Z " fill="#79D2EC" transform="translate(363,495)"/>
<path d="M0 0 C9.20295883 1.23639244 18.216852 3.24217162 27.1875 5.625 C30.89259572 6.57564956 34.37263501 7.19045302 38.1875 7.4375 C42.87106153 7.75728799 47.22310015 8.7578363 51.75 9.9375 C62.33339551 12.6549907 73.12844753 13.29089171 84 14 C83.3856051 18.89008185 82.41208909 23.48078618 81.125 28.25 C79.24092613 35.42566187 77.99860943 42.62637811 76.95166016 49.96777344 C76.09312991 55.90687009 76.09312991 55.90687009 75 57 C74.32796045 60.15656271 73.94117068 63.36659647 73.5 66.5625 C73.3654541 67.5323584 73.2309082 68.5022168 73.09228516 69.50146484 C71.98017811 78.06592025 71.5245114 86.59959769 71.29101562 95.22875977 C71.26458984 96.18709717 71.23816406 97.14543457 71.2109375 98.1328125 C71.18459229 99.39955811 71.18459229 99.39955811 71.15771484 100.69189453 C71 103 71 103 70 107 C69.67 115.58 69.34 124.16 69 133 C33.03 133 -2.94 133 -40 133 C-38.84868421 108.82236842 -38.84868421 108.82236842 -37.125 99.625 C-36.96386719 98.70074219 -36.80273438 97.77648437 -36.63671875 96.82421875 C-36.11534398 93.87784504 -35.55900025 90.93945418 -35 88 C-34.79125244 86.83525146 -34.58250488 85.67050293 -34.36743164 84.47045898 C-32.78399148 75.98620424 -30.6091797 67.88094941 -27.83081055 59.71020508 C-27.18546231 57.806489 -26.55977313 55.89706054 -25.93554688 53.98632812 C-23.56688709 46.92414526 -20.86382029 40.29561556 -17.38037109 33.70849609 C-15.89731277 30.79851218 -14.6538014 27.84267696 -13.4375 24.8125 C-11.33464756 19.63047078 -8.85218113 14.80622862 -6 10 C-5.34 10 -4.68 10 -4 10 C-3.896875 9.278125 -3.79375 8.55625 -3.6875 7.8125 C-2.94013068 4.75508007 -1.71954811 2.61670365 0 0 Z " fill="#F9F9FA" transform="translate(278,345)"/>
<path d="M0 0 C35.97 0 71.94 0 109 0 C109.33 13.86 109.66 27.72 110 42 C110.495 44.475 110.495 44.475 111 47 C111.10926497 48.90606676 111.2161166 50.81246948 111.29052734 52.72021484 C111.58978269 60.35382078 112.53263505 67.54121222 114.17578125 75.01953125 C115.3519343 80.46045702 116.11869159 85.97207041 116.90966797 91.47998047 C117.56211253 95.8490454 118.46683001 99.83417558 120 104 C121.32420984 108.19333117 122.10483334 111.61946385 122 116 C121.07251953 116.11069824 120.14503906 116.22139648 119.18945312 116.33544922 C115.71498074 116.75261163 112.24112637 117.17435835 108.76757812 117.59912109 C107.27040157 117.78127113 105.77300778 117.96164547 104.27539062 118.14013672 C102.1100666 118.39853205 99.94563095 118.66352141 97.78125 118.9296875 C95.8331543 119.16534424 95.8331543 119.16534424 93.84570312 119.40576172 C91.08684503 119.83206064 88.53391264 120.32893281 85.84619141 121.02026367 C82.74774496 121.80952771 79.84486364 122.38069263 76.6796875 122.74609375 C75.73851074 122.85977295 74.79733398 122.97345215 73.82763672 123.09057617 C72.8532666 123.20506104 71.87889648 123.3195459 70.875 123.4375 C63.03835811 124.39913921 55.41908134 125.58264232 47.7421875 127.44921875 C45.0794375 127.9840446 42.70697676 128.10411449 40 128 C40 128.66 40 129.32 40 130 C38.02 130 36.04 130 34 130 C33.59265625 129.00355469 33.1853125 128.00710938 32.765625 126.98046875 C31.33708764 123.64414817 29.66752829 120.5165134 27.89111328 117.35522461 C22.65891632 107.98898755 19.0576999 98.39062338 15.74316406 88.20996094 C15.06460074 86.19210443 14.32670356 84.21402012 13.5546875 82.23046875 C6.91426269 64.73040873 2.79428302 46.59305201 1 28 C0.87109375 26.85789062 0.7421875 25.71578125 0.609375 24.5390625 C-0.22921881 16.30760223 0 8.35493583 0 0 Z " fill="#F9FAFA" transform="translate(238,495)"/>
<path d="M0 0 C7.32421875 13.18359375 7.32421875 13.18359375 8.65991211 15.59545898 C9.55055292 17.19354996 10.44977755 18.78688828 11.35766602 20.37524414 C13.80592503 24.68277919 15.88202889 28.88411528 17.5625 33.5625 C18.88026135 37.1216872 20.19033469 40.53911093 22 43.875 C26.40488508 52.34455545 29.02430165 61.87671073 30.46875 71.265625 C31.08008618 74.41220829 32.04474345 77.33626973 33.0625 80.375 C35.14024639 86.84082271 36.05344025 93.20240068 36 100 C34.28721411 101.71278589 31.98061285 101.53688552 29.68017578 101.89916992 C22.27275076 103.09115982 16.17747044 104.53267674 10 109 C9.18144531 109.5775 8.36289062 110.155 7.51953125 110.75 C-0.68296249 116.90497261 -6.41905359 123.83810718 -11 133 C-29.81 133 -48.62 133 -68 133 C-68.0825 127.039375 -68.165 121.07875 -68.25 114.9375 C-68.94190302 82.83921627 -74.04022226 51.93087612 -82.3359375 20.90625 C-83 18 -83 18 -83 14 C-82.22100342 13.89453857 -81.44200684 13.78907715 -80.6394043 13.68041992 C-51.30474079 9.7252035 -51.30474079 9.7252035 -22.1875 4.4375 C-20.6554895 4.12244507 -20.6554895 4.12244507 -19.0925293 3.80102539 C-15.1780902 2.97461113 -11.40445105 2.13761599 -7.61328125 0.84765625 C-4.91919865 -0.02620911 -2.81220126 -0.1654236 0 0 Z " fill="#F9FAFA" transform="translate(730,345)"/>
<path d="M0 0 C0 44.88 0 89.76 0 136 C-16.66002377 134.61166469 -27.0288391 129.81424532 -40 120 C-40.61238525 119.56059082 -41.22477051 119.12118164 -41.85571289 118.66845703 C-62.87947842 103.42022429 -78.52281107 81.77127701 -90.80957031 59.18261719 C-91.93323541 57.12241087 -93.08335631 55.07963547 -94.2421875 53.0390625 C-98.74543554 45.0036509 -102.13082954 36.83745201 -105.20849609 28.16796875 C-106.07542824 25.79339829 -106.99401656 23.44361735 -107.92578125 21.09375 C-108.2498999 20.27624268 -108.57401855 19.45873535 -108.90795898 18.61645508 C-109.54098072 17.0264694 -110.17709339 15.43771 -110.81665039 13.8503418 C-113 8.32927754 -113 8.32927754 -113 5 C-112.09233887 4.94465088 -111.18467773 4.88930176 -110.24951172 4.83227539 C-106.86116472 4.62415821 -103.47301628 4.41323231 -100.08496094 4.20043945 C-98.62246504 4.10915463 -97.15990009 4.01896869 -95.69726562 3.92993164 C-93.5870454 3.80127721 -91.47711041 3.66858782 -89.3671875 3.53515625 C-87.46622314 3.41732788 -87.46622314 3.41732788 -85.52685547 3.29711914 C-82.30087217 3.02534691 -79.18876784 2.54249542 -76 2 C-74.3692424 1.87551959 -72.73588539 1.7808338 -71.1015625 1.71875 C-69.76351562 1.66267578 -69.76351562 1.66267578 -68.3984375 1.60546875 C-67.48320312 1.57066406 -66.56796875 1.53585937 -65.625 1.5 C-63.80456601 1.43018222 -61.98424639 1.35730956 -60.1640625 1.28125 C-58.96450928 1.23581055 -58.96450928 1.23581055 -57.74072266 1.18945312 C-38.53556109 -0.13810837 -19.25099089 0 0 0 Z " fill="#FAFAFB" transform="translate(495,620)"/>
<path d="M0 0 C15.96375 -0.061875 15.96375 -0.061875 32.25 -0.125 C37.19274902 -0.15231201 37.19274902 -0.15231201 42.23535156 -0.18017578 C87.20628545 -0.32294801 87.20628545 -0.32294801 100 3 C102.24707241 3.2198223 104.49771238 3.40483987 106.75 3.5625 C107.92046875 3.64628906 109.0909375 3.73007812 110.296875 3.81640625 C111.18890625 3.87699219 112.0809375 3.93757812 113 4 C112.45108468 9.15186789 111.21606718 13.5330586 109.1875 18.3125 C108.64059192 19.63800719 108.09371695 20.96352803 107.546875 22.2890625 C107.14758789 23.24474121 107.14758789 23.24474121 106.74023438 24.21972656 C105.77890341 26.53174021 104.85700855 28.8585808 103.9375 31.1875 C103.49676147 32.28118896 103.49676147 32.28118896 103.04711914 33.39697266 C102.34004874 35.15467484 101.6411802 36.91569545 100.94995117 38.6796875 C97.97544477 46.09116073 94.43911741 52.94422584 90.375 59.8125 C89.45521362 61.3761731 89.45521362 61.3761731 88.5168457 62.97143555 C83.4971528 71.39103991 78.06665786 79.30973339 72 87 C71.278125 87.94359375 70.55625 88.8871875 69.8125 89.859375 C53.5755411 110.51374183 34.11712482 125.78133072 9.0390625 133.8984375 C8.38115723 134.11161621 7.72325195 134.32479492 7.04541016 134.54443359 C5 135 5 135 0 135 C0 90.45 0 45.9 0 0 Z " fill="#FBFBFB" transform="translate(513,621)"/>
<path d="M0 0 C6.08550273 1.21710055 12.01290447 2.44779005 18 4 C18 4.66 18 5.32 18 6 C18.680625 6.0825 19.36125 6.165 20.0625 6.25 C22.68725985 6.92015145 24.27804183 7.64114126 26.5625 9 C29.24098894 10.55839357 31.01250213 11.52200034 34 12 C34 12.66 34 13.32 34 14 C34.69222656 14.23203125 35.38445313 14.4640625 36.09765625 14.703125 C39.60226306 16.26911351 42.45246782 18.37864195 45.4375 20.75 C46.04368164 21.23098145 46.64986328 21.71196289 47.27441406 22.20751953 C59.06193967 31.76094733 74.79241984 44.960139 79 60 C79.66 60 80.32 60 81 60 C82.6442478 62.22003132 84.14753884 64.42299868 85.625 66.75 C86.04523438 67.38421875 86.46546875 68.0184375 86.8984375 68.671875 C89.12043182 72.13472328 90 73.78907329 90 78 C90.66 78 91.32 78 92 78 C93.96341801 81.85913195 95.90564818 85.68637912 97.5625 89.6875 C98.8629346 92.90517988 98.8629346 92.90517988 100.4375 95.3125 C105.34004063 103.74486988 109.18502432 114.42217656 111 124 C109.43530648 125.56469352 107.81921013 125.24546635 105.64233398 125.37304688 C104.24838661 125.45818542 104.24838661 125.45818542 102.82627869 125.54504395 C101.80981766 125.60236694 100.79335663 125.65968994 99.74609375 125.71875 C98.17372704 125.81295227 98.17372704 125.81295227 96.56959534 125.90905762 C93.19247285 126.11041258 89.81501344 126.30532371 86.4375 126.5 C84.21677134 126.6310785 81.99606783 126.7625839 79.77539062 126.89453125 C75.61660651 127.14135952 71.45766732 127.3852265 67.29858398 127.62695312 C59.86467208 128.06724218 52.43243668 128.53547271 45 129 C30.15 129 15.3 129 0 129 C0 86.43 0 43.86 0 0 Z " fill="#FAFBFB" transform="translate(513,221)"/>
<path d="M0 0 C0 42.9 0 85.8 0 130 C-36.67399734 130 -72.53110421 127.93180539 -109 124 C-108.33363913 118.79663132 -107.16166463 114.31845047 -105.125 109.5 C-104.86847656 108.87480469 -104.61195313 108.24960937 -104.34765625 107.60546875 C-103.05653942 104.47175302 -101.72369843 101.35708195 -100.37890625 98.24609375 C-99.08504858 95.2002135 -97.99974317 92.15303616 -97 89 C-96.34 89 -95.68 89 -95 89 C-94.90847656 88.32066406 -94.81695312 87.64132812 -94.72265625 86.94140625 C-93.82655513 83.29403251 -92.22425601 80.20950483 -90.4375 76.9375 C-89.90177368 75.94786255 -89.90177368 75.94786255 -89.35522461 74.93823242 C-81.87645486 61.33733749 -72.63378442 48.67458694 -62.09765625 37.2890625 C-60.25981506 35.28352258 -58.53772926 33.22640707 -56.8125 31.125 C-48.2426528 21.29370333 -36.94392506 10.96631616 -24 8 C-24 7.34 -24 6.68 -24 6 C-23.19175781 5.73445312 -22.38351562 5.46890625 -21.55078125 5.1953125 C-20.48214844 4.84210938 -19.41351563 4.48890625 -18.3125 4.125 C-16.72888672 3.60292969 -16.72888672 3.60292969 -15.11328125 3.0703125 C-12.07184238 2.08312683 -12.07184238 2.08312683 -9.54296875 0.8671875 C-7 0 -7 0 0 0 Z " fill="#FAFAFA" transform="translate(495,221)"/>
<path d="M0 0 C16.83 0 33.66 0 51 0 C51.495 9.405 51.495 9.405 52 19 C52.99428385 22.95955768 52.99428385 22.95955768 54.234375 26.84375 C55.52462075 30.47750333 56.20964891 34.23063328 57 38 C57.66 38 58.32 38 59 38 C60.5859375 40.01171875 60.5859375 40.01171875 62.375 42.6875 C63.0040625 43.60402344 63.633125 44.52054688 64.28125 45.46484375 C64.8484375 46.30144531 65.415625 47.13804687 66 48 C69.74571527 53.49371573 75.09494199 57.04747099 81 60 C81 60.66 81 61.32 81 62 C82.13179687 62.27714844 83.26359375 62.55429687 84.4296875 62.83984375 C85.91148902 63.20560488 87.39325818 63.57149711 88.875 63.9375 C89.62136719 64.11990234 90.36773438 64.30230469 91.13671875 64.49023438 C96.7734375 65.88671875 96.7734375 65.88671875 99 67 C97.34938624 77.68813269 94.69672616 87.33034808 89.59375 96.859375 C86.62277541 102.71394258 84.35826971 108.87853394 82 115 C81.34 115 80.68 115 80 115 C79.773125 115.804375 79.54625 116.60875 79.3125 117.4375 C77.662438 121.91623971 75.37973163 125.87727717 73 130 C63.46066063 128.69354113 53.97877744 127.19263883 44.5 125.5 C42.66695312 125.18095703 42.66695312 125.18095703 40.796875 124.85546875 C39.02570312 124.54029297 39.02570312 124.54029297 37.21875 124.21875 C36.16623047 124.03248047 35.11371094 123.84621094 34.02929688 123.65429688 C31 123 31 123 28.04272461 121.98852539 C24.71247065 120.90658699 21.56978082 120.40806849 18.09765625 119.96484375 C16.14375977 119.71057617 16.14375977 119.71057617 14.15039062 119.45117188 C12.78778361 119.27976346 11.42515319 119.10854094 10.0625 118.9375 C8.703704 118.76292964 7.34497921 118.58780406 5.98632812 118.41210938 C3.47570987 118.08819867 0.96475783 117.76685674 -1.54663086 117.44897461 C-5.03568486 116.99536059 -8.51800622 116.50472937 -12 116 C-12.4452774 108.40186232 -10.77664563 101.49935651 -9.0625 94.125 C-8.64581055 92.27261719 -8.64581055 92.27261719 -8.22070312 90.3828125 C-6.15764116 81.31528232 -6.15764116 81.31528232 -5 79 C-4.71887354 76.96624879 -4.48782205 74.92548331 -4.28125 72.8828125 C-4.15363281 71.635 -4.02601563 70.3871875 -3.89453125 69.1015625 C-3.69923828 67.13316406 -3.69923828 67.13316406 -3.5 65.125 C-3.36980469 63.85140625 -3.23960937 62.5778125 -3.10546875 61.265625 C-2.72544512 57.5114522 -2.36047709 53.75609485 -2 50 C-1.90211182 49.03384766 -1.80422363 48.06769531 -1.70336914 47.07226562 C-0.80092142 37.48428427 -0.65874799 27.87242659 -0.4375 18.25 C-0.293125 12.2275 -0.14875 6.205 0 0 Z " fill="#F9F9F9" transform="translate(662,495)"/>
<path d="M0 0 C0.32613281 1.24136719 0.65226562 2.48273437 0.98828125 3.76171875 C1.429285 5.40375399 1.87071367 7.04567514 2.3125 8.6875 C2.52583984 9.50412109 2.73917969 10.32074219 2.95898438 11.16210938 C4.15793445 15.58211937 5.4933119 19.1254149 8 23 C8.69051659 24.73285531 9.33601464 26.48426614 9.9375 28.25 C11.7191925 33.29812876 13.76212723 38.14038578 16 43 C16.41507812 43.92167969 16.83015625 44.84335937 17.2578125 45.79296875 C19.0440608 49.75587291 20.84103613 53.68755378 22.8125 57.5625 C24 60 24 60 24 62 C24.66 62 25.32 62 26 62 C27.3046875 64.02734375 27.3046875 64.02734375 28.875 66.9375 C35.96988595 79.44223648 44.59720226 91.13786152 54 102 C54.82371094 102.95777344 55.64742187 103.91554688 56.49609375 104.90234375 C60.85854783 109.84911436 65.09823609 114.21364736 70.6015625 117.87890625 C71.06304687 118.24886719 71.52453125 118.61882812 72 119 C72 119.66 72 120.32 72 121 C66.42740889 120.43466467 61.38346482 119.41530506 56.0625 117.6875 C55.01437134 117.35310913 55.01437134 117.35310913 53.94506836 117.01196289 C48.79149325 115.33482058 43.88549904 113.34732962 39 111 C37.52228173 110.35085947 36.04307043 109.70510869 34.5625 109.0625 C28.49431573 106.36788671 22.60190971 103.32550117 16.6875 100.3125 C14.16209868 99.07916447 11.62419957 98.00337042 9 97 C9 96.34 9 95.68 9 95 C8.01 94.773125 7.02 94.54625 6 94.3125 C1.57643649 93.05508624 -2.42423951 90.89775915 -6 88 C-6 87.34 -6 86.68 -6 86 C-6.9590625 85.814375 -6.9590625 85.814375 -7.9375 85.625 C-8.618125 85.41875 -9.29875 85.2125 -10 85 C-10.33 84.34 -10.66 83.68 -11 83 C-11.71671875 82.7215625 -12.4334375 82.443125 -13.171875 82.15625 C-16.64554359 80.7360761 -19.2630851 78.76593544 -22.25 76.5 C-23.06210937 75.89478516 -23.06210937 75.89478516 -23.890625 75.27734375 C-27.86761192 72.26477616 -27.86761192 72.26477616 -29 70 C-29.69609375 69.60039063 -30.3921875 69.20078125 -31.109375 68.7890625 C-34.93898991 66.41884138 -37.99674956 63.47133862 -41.25 60.375 C-41.91386719 59.74835449 -42.57773437 59.12170898 -43.26171875 58.47607422 C-50.20491504 51.90000112 -57.03425965 45.28990289 -63.2578125 38.01953125 C-64.46152216 36.62419964 -65.68709243 35.24753642 -66.9296875 33.88671875 C-81 18.47507296 -81 18.47507296 -81 13 C-67.35493217 9.18712289 -53.75887137 6.23706913 -39.68359375 4.46484375 C-36.11589247 4.01462482 -32.55866679 3.51638697 -29 3 C-26.66671967 2.66629589 -24.33338453 2.33297474 -22 2 C-21.35434082 1.90686523 -20.70868164 1.81373047 -20.04345703 1.71777344 C-18.05047147 1.43188443 -16.05662897 1.15278911 -14.0625 0.875 C-12.87785156 0.70742188 -11.69320312 0.53984375 -10.47265625 0.3671875 C-6.95434875 -0.00482702 -3.53510249 -0.06320745 0 0 Z " fill="#7BCEE9" transform="translate(365,627)"/>
<path d="M0 0 C10.92584999 -0.78237264 21.59766195 1.53666549 32.3125 3.375 C36.07894141 4.01071341 39.84614449 4.64185996 43.61328125 5.2734375 C44.51257355 5.42520447 45.41186584 5.57697144 46.33840942 5.7333374 C53.54345398 6.9432006 60.75919697 8.02390194 68 9 C68 9.66 68 10.32 68 11 C68.60328125 10.98839844 69.2065625 10.97679687 69.828125 10.96484375 C71.02695312 10.95130859 71.02695312 10.95130859 72.25 10.9375 C73.03890625 10.92589844 73.8278125 10.91429687 74.640625 10.90234375 C76.90691002 10.99614694 78.8288895 11.36758937 81 12 C81 12.99 81 13.98 81 15 C80.34 15 79.68 15 79 15 C78.76152344 15.53625 78.52304687 16.0725 78.27734375 16.625 C76.65452554 19.64235007 74.65240005 22.2981269 72.5625 25 C72.12292969 25.56960449 71.68335938 26.13920898 71.23046875 26.72607422 C66.89814013 32.25927783 62.19673408 37.39721953 57.38330078 42.51074219 C55.95048244 44.05331047 54.54839074 45.61942435 53.15234375 47.1953125 C52.69601562 47.70819824 52.2396875 48.22108398 51.76953125 48.74951172 C50.50915767 50.16928005 49.25251159 51.59235487 47.99609375 53.015625 C46 55 46 55 44 55 C44 55.66 44 56.32 44 57 C42.45111498 58.41706502 40.83238466 59.75809496 39.1875 61.0625 C35.35301605 64.1213059 31.56178242 67.21261134 27.8125 70.375 C17.2547788 78.96987726 5.86463802 86.21840856 -5.8125 93.1875 C-6.77389893 93.76467773 -7.73529785 94.34185547 -8.72583008 94.93652344 C-9.62712646 95.46665039 -10.52842285 95.99677734 -11.45703125 96.54296875 C-12.26116455 97.01758545 -13.06529785 97.49220215 -13.89379883 97.98120117 C-16 99 -16 99 -19 99 C-19 99.66 -19 100.32 -19 101 C-20.0725 101.391875 -21.145 101.78375 -22.25 102.1875 C-26.9564331 103.94087704 -31.55894318 105.92064384 -36.16796875 107.9140625 C-38.79140012 108.92001273 -41.23407394 109.54491162 -44 110 C-44 110.66 -44 111.32 -44 112 C-45.14597656 112.32613281 -46.29195312 112.65226563 -47.47265625 112.98828125 C-49.00267223 113.4294515 -50.53261635 113.87087106 -52.0625 114.3125 C-52.81466797 114.52583984 -53.56683594 114.73917969 -54.34179688 114.95898438 C-57.95987788 116.00838449 -61.42970722 117.12790075 -64.87109375 118.66796875 C-68 120 -68 120 -71 120 C-69.44616496 116.08397643 -66.96349798 113.97941618 -63.8125 111.25 C-59.13920779 107.10638793 -54.93152867 102.85272367 -51 98 C-50.59813477 97.51047852 -50.19626953 97.02095703 -49.78222656 96.51660156 C-43.95298559 89.39291993 -38.57505621 82.15589385 -33.81689453 74.26708984 C-32.92652649 72.81381181 -31.96935128 71.40183108 -31 70 C-30.34 70 -29.68 70 -29 70 C-28.82984375 69.43152344 -28.6596875 68.86304688 -28.484375 68.27734375 C-26.84672367 63.05950787 -24.85407144 58.66165002 -22 54 C-21.505 53.01 -21.505 53.01 -21 52 C-20.34 52 -19.68 52 -19 52 C-18.82984375 51.443125 -18.6596875 50.88625 -18.484375 50.3125 C-17.24003511 46.39415312 -15.93259594 42.69726697 -14 39.0625 C-12.0395373 35.32793037 -10.88287867 31.56245954 -9.80859375 27.4921875 C-9 25 -9 25 -7.57421875 22.171875 C-5.8335046 18.66453036 -4.57419372 15.09102005 -3.375 11.375 C-3.1584375 10.72015625 -2.941875 10.0653125 -2.71875 9.390625 C-1.69906452 6.28121372 -0.77027021 3.17943174 0 0 Z " fill="#7CD0EA" transform="translate(643,628)"/>
<path d="M0 0 C-1.55069386 3.9874985 -4.3425313 6.27996151 -7.5 9 C-25.10914242 24.75097068 -47.83630284 53.31087387 -53 77 C-53.66 77 -54.32 77 -55 77 C-55.17015625 77.70125 -55.3403125 78.4025 -55.515625 79.125 C-56.84695898 84.3370309 -58.32789629 88.95722751 -60.88671875 93.6796875 C-62.9605036 98.00189172 -64.3975952 102.59112159 -65.94921875 107.12109375 C-67 110 -67 110 -68 111 C-69.55986112 111.09987811 -71.12445153 111.12967279 -72.6875 111.125 C-73.53699219 111.12757813 -74.38648438 111.13015625 -75.26171875 111.1328125 C-78 111 -78 111 -80.90234375 110.5078125 C-84.25578041 109.95806879 -87.47887984 109.85224878 -90.875 109.75 C-100.1678517 109.32060155 -109.08444185 107.26908503 -118.140625 105.25390625 C-123.16142 104.14381474 -128.1968374 103.25890203 -133.27539062 102.45727539 C-137.22367121 101.79462938 -141.10186019 100.90956596 -145 100 C-144.39389585 96.3879469 -142.94040168 94.36460856 -140.625 91.5625 C-139.89667969 90.68078125 -139.16835938 89.7990625 -138.41796875 88.890625 C-137.62003906 87.93671875 -136.82210938 86.9828125 -136 86 C-135.19175781 85.00484375 -134.38351562 84.0096875 -133.55078125 82.984375 C-123.9334992 71.23987747 -113.34984578 60.31481217 -101.4140625 50.9140625 C-99.17599145 49.13954015 -97.05515589 47.29017086 -94.9375 45.375 C-90.57015588 41.50985562 -85.82646522 38.26090591 -81 35 C-80.40832031 34.58492188 -79.81664062 34.16984375 -79.20703125 33.7421875 C-77.06092648 32.25260321 -75.08305691 31.03059992 -72.625 30.125 C-70.15731827 29.06742211 -68.74205926 28.04742023 -66.6875 26.375 C-62.67225609 23.26568111 -58.39206672 20.96841036 -53.875 18.6875 C-53.19397217 18.33800293 -52.51294434 17.98850586 -51.8112793 17.62841797 C-47.87441502 15.68273812 -44.42341606 14.47541388 -40 14 C-40 13.34 -40 12.68 -40 12 C-8.34951456 0 -8.34951456 0 0 0 Z " fill="#7BCFE9" transform="translate(435,231)"/>
<path d="M0 0 C5.7926463 0.61425377 10.94609066 2.15533044 16.4375 4.0625 C17.26443359 4.34416016 18.09136719 4.62582031 18.94335938 4.91601562 C20.96412338 5.60517792 22.98233282 6.3018231 25 7 C25 7.66 25 8.32 25 9 C25.99 9.1546875 25.99 9.1546875 27 9.3125 C35.34245259 11.22431205 42.91736243 15.26978556 50.5625 19 C60.19146437 23.69759728 60.19146437 23.69759728 70 28 C70 28.66 70 29.32 70 30 C70.680625 30.2371875 71.36125 30.474375 72.0625 30.71875 C75.64006834 32.27917874 78.77979477 34.32112358 82 36.5 C82.98359497 37.16213501 82.98359497 37.16213501 83.98706055 37.83764648 C93.42906407 44.26021273 102.33690326 51.18264963 110.7421875 58.92578125 C112.77163463 60.79020413 114.84034156 62.58774554 116.9375 64.375 C126.93659916 73.0989104 135.87137553 82.84010644 144 93.3125 C145.175625 94.82263672 145.175625 94.82263672 146.375 96.36328125 C147.179375 97.66845703 147.179375 97.66845703 148 99 C147 102 147 102 145 103 C143.20733354 103.33441068 141.40772291 103.63201332 139.60546875 103.91015625 C134.47567007 104.7357201 129.40658873 105.72333038 124.32495117 106.80200195 C114.48882081 108.87700376 104.66803821 110.59845679 94.6875 111.8125 C93.19633667 111.99800415 93.19633667 111.99800415 91.67504883 112.18725586 C84.76329824 112.97556496 77.95277595 113.13109766 71 113 C70.3299166 110.87607494 69.66403203 108.75082476 69 106.625 C68.62875 105.44164062 68.2575 104.25828125 67.875 103.0390625 C67 100 67 100 67 98 C66.34 98 65.68 98 65 98 C64.68546875 97.09378906 64.3709375 96.18757813 64.046875 95.25390625 C63.40492188 93.42666016 63.40492188 93.42666016 62.75 91.5625 C62.33234375 90.36753906 61.9146875 89.17257812 61.484375 87.94140625 C58.28497675 79.23596455 54.05051426 71.1372359 49.625 63 C49.07328125 61.97132813 48.5215625 60.94265625 47.953125 59.8828125 C44.92277819 54.29160924 41.74979214 48.93876567 38.07958984 43.7421875 C37 42 37 42 37 40 C36.34 40 35.68 40 35 40 C33.91408387 38.41775101 32.9075854 36.78079588 31.9375 35.125 C28.19425702 29.09891685 23.92028286 24.09045805 19 19 C18.48034668 18.45988281 17.96069336 17.91976562 17.42529297 17.36328125 C15.72991768 15.60825478 14.02375471 13.86453991 12.3125 12.125 C11.77802246 11.57730957 11.24354492 11.02961914 10.69287109 10.46533203 C8.13748939 7.90521083 5.66501794 5.68501469 2.60546875 3.7421875 C1.74566406 3.16726562 0.88585937 2.59234375 0 2 C0 1.34 0 0.68 0 0 Z " fill="#7DCFE9" transform="translate(570,229)"/>
<path d="M0 0 C0.74032471 0.00088623 1.48064941 0.00177246 2.2434082 0.00268555 C8.94183766 0.14545203 14.66708773 1.6937214 20.8125 4.375 C22.5140625 5.0865625 22.5140625 5.0865625 24.25 5.8125 C30.64076835 9.70930997 35.386099 16.11741118 39.5625 22.25 C39.96984375 22.84554688 40.3771875 23.44109375 40.796875 24.0546875 C44.70968966 32.99396406 44.52864997 48.40051939 41.87109375 57.65234375 C40.68020207 60.07519235 39.39248566 62.1896394 37.8125 64.375 C37.35875 65.08269531 36.905 65.79039062 36.4375 66.51953125 C35.125 68.5 35.125 68.5 32.8125 71.375 C32.1525 71.375 31.4925 71.375 30.8125 71.375 C30.8125 72.035 30.8125 72.695 30.8125 73.375 C27.35096154 76.375 27.35096154 76.375 24.8125 76.375 C24.8125 77.035 24.8125 77.695 24.8125 78.375 C13.73707925 83.05028007 0.52089362 87.65967317 -11.53125 83.58203125 C-13.25 82.5625 -13.25 82.5625 -16.1875 80.375 C-17.38375 79.900625 -18.58 79.42625 -19.8125 78.9375 C-26.16559846 75.99625071 -30.45286648 70.18870785 -34.1875 64.375 C-34.1875 63.715 -34.1875 63.055 -34.1875 62.375 C-34.8475 62.375 -35.5075 62.375 -36.1875 62.375 C-40.97624165 52.66924684 -42.29938543 40.90475972 -39.3515625 30.39453125 C-38.41160783 28.28493374 -37.35452146 26.36404753 -36.1875 24.375 C-35.90519531 23.57964844 -35.62289062 22.78429687 -35.33203125 21.96484375 C-33.93755862 18.80943298 -32.09692477 16.77034285 -29.75 14.25 C-28.57630859 12.97769531 -28.57630859 12.97769531 -27.37890625 11.6796875 C-26.65574219 10.91914063 -25.93257812 10.15859375 -25.1875 9.375 C-24.67445313 8.80394531 -24.16140625 8.23289062 -23.6328125 7.64453125 C-21.21676102 5.52232387 -18.25051547 5.12630568 -15.1875 4.375 C-15.1875 3.715 -15.1875 3.055 -15.1875 2.375 C-10.07466347 0.70413839 -5.39815106 -0.01172304 0 0 Z " fill="#F9CA6D" transform="translate(770.1875,461.625)"/>
<path d="M0 0 C0.67789024 2.35143176 1.34240747 4.70538624 2 7.0625 C2.19078125 7.71927734 2.3815625 8.37605469 2.578125 9.05273438 C3.79344455 13.45826775 4.28206466 17.38706747 4 22 C1.78503595 24.21496405 -3.25255797 23.6483927 -6.34375 23.90234375 C-7.30083862 23.98496964 -8.25792725 24.06759552 -9.24401855 24.15272522 C-12.32899815 24.4185806 -15.41443903 24.67848604 -18.5 24.9375 C-22.51070953 25.2766007 -26.52106893 25.61955356 -30.53125 25.96484375 C-31.5280629 26.04907593 -32.52487579 26.13330811 -33.55189514 26.22009277 C-37.78389662 26.5867669 -41.99922284 26.96776186 -46.20483398 27.5703125 C-60.44424294 29.58904603 -74.70763816 29.2178777 -89.0625 29.125 C-91.77929109 29.11379272 -94.49608853 29.10568755 -97.21289062 29.09765625 C-103.80868428 29.07582361 -110.40430143 29.04141626 -117 29 C-117 21.41 -117 13.82 -117 6 C-114.669375 5.96261719 -112.33875 5.92523438 -109.9375 5.88671875 C-90.51256012 5.53364897 -71.14038671 4.78471646 -51.75 3.5625 C-50.75822754 3.50105804 -49.76645508 3.43961609 -48.74462891 3.37631226 C-37.71817301 2.68647292 -26.72377732 1.87144283 -15.74383545 0.63172913 C-10.46473347 0.05727587 -5.31122866 -0.07624247 0 0 Z " fill="#F7F9F9" transform="translate(630,362)"/>
<path d="M0 0 C8.68524718 -0.20377757 17.22047402 0.3499756 25.85992432 1.16802979 C55.524891 3.95556829 85.22058411 5.26182792 115 6 C115 13.59 115 21.18 115 29 C105.99930148 29.06618161 97.00074868 29.05798302 88 29 C86.81277344 28.99419922 85.62554687 28.98839844 84.40234375 28.98242188 C65.83137992 28.82817799 47.47663628 27.36631558 29 25.5625 C27.86860596 25.45322174 26.73721191 25.34394348 25.5715332 25.23135376 C22.31763075 24.91378665 19.06493709 24.58611721 15.8125 24.25390625 C14.83978149 24.15801208 13.86706299 24.06211792 12.86486816 23.96331787 C7.40980104 23.38866578 2.28758677 22.46596945 -3 21 C-3.43230491 13.65081658 -1.81774185 7.09784913 0 0 Z " fill="#F8F9F9" transform="translate(379,362)"/>
<path d="M0 0 C0.495 0.99 0.495 0.99 1 2 C-0.55555556 6.55555556 -0.55555556 6.55555556 -2 8 C-3.77991924 8.09370624 -5.56356739 8.11744271 -7.34594727 8.11352539 C-8.4870546 8.11344986 -9.62816193 8.11337433 -10.80384827 8.11329651 C-12.0454924 8.10813522 -13.28713654 8.10297394 -14.56640625 8.09765625 C-16.46204567 8.09553383 -16.46204567 8.09553383 -18.39598083 8.09336853 C-21.76124889 8.08870582 -25.1264499 8.0797148 -28.49169922 8.06866455 C-31.9234967 8.05844846 -35.35530109 8.05387049 -38.78710938 8.04882812 C-45.52475824 8.0377738 -52.26237525 8.0210171 -59 8 C-59 7.67 -59 7.34 -59 7 C-40.52 7 -22.04 7 -3 7 C-2.67 5.68 -2.34 4.36 -2 3 C-1.34 2.01 -0.68 1.02 0 0 Z " fill="#3B4663" transform="translate(722,471)"/>
<path d="M0 0 C5.7926463 0.61425377 10.94609066 2.15533044 16.4375 4.0625 C17.26443359 4.34416016 18.09136719 4.62582031 18.94335938 4.91601562 C20.96412338 5.60517792 22.98233282 6.3018231 25 7 C21.23121373 8.10452257 19.03505551 7.68900462 15.25 6.5625 C14.26515625 6.27503906 13.2803125 5.98757812 12.265625 5.69140625 C11.51796875 5.46324219 10.7703125 5.23507813 10 5 C9.67 6.32 9.34 7.64 9 9 C7.49428343 7.88266271 5.99555708 6.75589965 4.5 5.625 C3.6646875 4.99851563 2.829375 4.37203125 1.96875 3.7265625 C1.3190625 3.15679687 0.669375 2.58703125 0 2 C0 1.34 0 0.68 0 0 Z " fill="#69ABCC" transform="translate(570,229)"/>
<path d="M0 0 C2.31 0 4.62 0 7 0 C5.52340611 5.15360221 2.32011069 8.02754976 -1.4375 11.625 C-2.31631836 12.48351562 -2.31631836 12.48351562 -3.21289062 13.359375 C-4.30443865 14.42490428 -5.39905531 15.48730627 -6.49780273 16.54541016 C-7.54914475 17.56343319 -8.57017616 18.61327036 -9.56665039 19.68505859 C-11 21 -11 21 -13 21 C-11.43727522 17.2285078 -9.07921327 14.84402385 -6.1875 12 C-5.33542969 11.154375 -4.48335938 10.30875 -3.60546875 9.4375 C-1 7 -1 7 1.76171875 4.8125 C4.07495569 3.19481016 4.07495569 3.19481016 5 1 C3.02 1.33 1.04 1.66 -1 2 C-0.67 1.34 -0.34 0.68 0 0 Z " fill="#2B4970" transform="translate(430,230)"/>
<path d="M0 0 C0.66 0.33 1.32 0.66 2 1 C-12.61957406 18.33048846 -12.61957406 18.33048846 -19 21 C-17.54254576 17.63664406 -15.68882146 15.45465995 -13.0859375 12.890625 C-12.32539063 12.13652344 -11.56484375 11.38242187 -10.78125 10.60546875 C-9.9871875 9.82816406 -9.193125 9.05085938 -8.375 8.25 C-7.57320313 7.45722656 -6.77140625 6.66445313 -5.9453125 5.84765625 C-3.96797154 3.89385507 -1.98611091 1.94487897 0 0 Z " fill="#63A5C4" transform="translate(325,289)"/>
<path d="M0 0 C0.66 0.33 1.32 0.66 2 1 C-4.93 7.93 -11.86 14.86 -19 22 C-19.66 21.67 -20.32 21.34 -21 21 C-18.81898323 18.61897733 -16.62901221 16.24636275 -14.4375 13.875 C-13.82841797 13.20984375 -13.21933594 12.5446875 -12.59179688 11.859375 C-8.62183598 7.57433784 -4.50383106 3.72131215 0 0 Z " fill="#C8CBD3" transform="translate(451,240)"/>
<path d="M0 0 C0.33 0 0.66 0 1 0 C0.91915297 3.27184808 0.80631126 6.54182779 0.6875 9.8125 C0.66494141 10.74126953 0.64238281 11.67003906 0.61914062 12.62695312 C0.58369141 13.51962891 0.54824219 14.41230469 0.51171875 15.33203125 C0.48553467 16.15421143 0.45935059 16.9763916 0.43237305 17.82348633 C-0.08463956 20.42606532 -0.98202695 21.33910717 -3 23 C-3.48350422 15.10276444 -1.67664721 7.66467297 0 0 Z " fill="#5D94B2" transform="translate(371,394)"/>
<path d="M0 0 C0.66 0.66 1.32 1.32 2 2 C-1.73809585 2.69545969 -5.20769662 3 -9 3 C-9.99 3.495 -9.99 3.495 -11 4 C-12.87379605 4.07033769 -14.75001102 4.0843022 -16.625 4.0625 C-17.62789063 4.05347656 -18.63078125 4.04445312 -19.6640625 4.03515625 C-20.43492187 4.02355469 -21.20578125 4.01195312 -22 4 C-22 3.67 -22 3.34 -22 3 C-6.5972674 -0.63435264 -6.5972674 -0.63435264 0 0 Z " fill="#515871" transform="translate(462,207)"/>
<path d="M0 0 C2.75562541 2.75562541 2.43034519 4.7220405 2.6875 8.5625 C2.77386719 9.73941406 2.86023438 10.91632813 2.94921875 12.12890625 C2.97435547 13.55009766 2.97435547 13.55009766 3 15 C1.38276921 16.61723079 -0.60757896 16.66658303 -2.8125 17.125 C-3.68519531 17.31320312 -4.55789063 17.50140625 -5.45703125 17.6953125 C-7.98963976 17.99875868 -9.60079158 17.79414358 -12 17 C-10.2092015 16.49689942 -8.41733089 15.99761372 -6.625 15.5 C-5.62726562 15.2215625 -4.62953125 14.943125 -3.6015625 14.65625 C-1 14 -1 14 1 14 C0.67 9.38 0.34 4.76 0 0 Z " fill="#A3A6B3" transform="translate(763,430)"/>
<path d="M0 0 C2.5 1.375 2.5 1.375 5 3 C5 3.66 5 4.32 5 5 C0.03083364 4.48594831 -4.29026351 3.76615118 -9 2 C-5.67465243 0.89155081 -3.37817425 1.15545644 0 2 C0 1.34 0 0.68 0 0 Z " fill="#619ABC" transform="translate(432,743)"/>
<path d="M0 0 C0.33 0.99 0.66 1.98 1 3 C-2.3 6.3 -5.6 9.6 -9 13 C-9.66 12.67 -10.32 12.34 -11 12 C-7.37 8.04 -3.74 4.08 0 0 Z " fill="#274267" transform="translate(701,669)"/>
<path d="M0 0 C4.571279 0.54855348 8.67435795 1.41744803 13 3 C13 3.33 13 3.66 13 4 C10.69 3.67 8.38 3.34 6 3 C6 3.66 6 4.32 6 5 C4 4 2 3 0 2 C0 1.34 0 0.68 0 0 Z " fill="#4B7FA3" transform="translate(570,229)"/>
<path d="M0 0 C0.66 0.33 1.32 0.66 2 1 C-0.37409996 3.62400522 -2.81364829 5.44568209 -6 7 C-8.16015625 6.578125 -8.16015625 6.578125 -10 6 C-8.3811004 4.96951963 -6.75467511 3.95085322 -5.125 2.9375 C-4.22007812 2.36902344 -3.31515625 1.80054688 -2.3828125 1.21484375 C-1.20332031 0.61349609 -1.20332031 0.61349609 0 0 Z " fill="#444E69" transform="translate(369,237)"/>
<path d="M0 0 C-1.36983503 3.16115776 -1.9890638 3.9927092 -5 6 C-5 5.34 -5 4.68 -5 4 C-5.66 3.67 -6.32 3.34 -7 3 C-7.33 2.34 -7.66 1.68 -8 1 C-5.10765685 0.17361624 -3.11257569 0 0 0 Z " fill="#75BCDD" transform="translate(435,231)"/>
<path d="M0 0 C0 0.99 0 1.98 0 3 C-2.31 3 -4.62 3 -7 3 C-7 2.01 -7 1.02 -7 0 C-2.25 -1.125 -2.25 -1.125 0 0 Z " fill="#6BADCA" transform="translate(632,606)"/>
<path d="M0 0 C0.33 1.32 0.66 2.64 1 4 C-0.32 4.99 -1.64 5.98 -3 7 C-3.66 6.34 -4.32 5.68 -5 5 C-3.35 3.35 -1.7 1.7 0 0 Z " fill="#313B5A" transform="translate(576,718)"/>
<path d="M0 0 C0.66 0.33 1.32 0.66 2 1 C1.09515208 2.15518918 0.1755794 3.29885406 -0.75 4.4375 C-1.26046875 5.07558594 -1.7709375 5.71367187 -2.296875 6.37109375 C-4.19667629 8.18810554 -5.43586908 8.60423197 -8 9 C-7.04270084 7.87411986 -6.08412105 6.7493285 -5.125 5.625 C-4.59132813 4.99851562 -4.05765625 4.37203125 -3.5078125 3.7265625 C-2.38567993 2.44163349 -1.20628025 1.20628025 0 0 Z " fill="#B99660" transform="translate(748,468)"/>
<path d="M0 0 C0.66 0.33 1.32 0.66 2 1 C0.515 2.485 0.515 2.485 -1 4 C-0.34 4.66 0.32 5.32 1 6 C-0.98 6.33 -2.96 6.66 -5 7 C-3.70700306 4.11562221 -2.34058637 2.12780579 0 0 Z " fill="#5692B4" transform="translate(577,741)"/>
<path d="M0 0 C0.33 1.32 0.66 2.64 1 4 C-0.9375 6.25 -0.9375 6.25 -3 8 C-3.66 7.67 -4.32 7.34 -5 7 C-3.35 4.69 -1.7 2.38 0 0 Z " fill="#5EA7C6" transform="translate(599,717)"/>
<path d="M0 0 C0.66 0.66 1.32 1.32 2 2 C1.66306057 5.36939433 0.11180592 7.42910583 -2 10 C-1.46274105 6.62294375 -0.88935377 3.303314 0 0 Z " fill="#3C4460" transform="translate(761,562)"/>
<path d="M0 0 C1.09190042 3.27570125 1.28600189 5.56797729 1 9 C-0.515625 10.6875 -0.515625 10.6875 -2 12 C-1.85904936 10.3745692 -1.71207913 8.74965949 -1.5625 7.125 C-1.48128906 6.22007812 -1.40007812 5.31515625 -1.31640625 4.3828125 C-1 2 -1 2 0 0 Z " fill="#6A6D83" transform="translate(230,412)"/>
<path d="M0 0 C0.66 0 1.32 0 2 0 C1.44271087 3.34373475 0.64826111 6.03312999 -1 9 C-1.09765625 2.84765625 -1.09765625 2.84765625 -1 1 C-0.67 0.67 -0.34 0.34 0 0 Z " fill="#39405D" transform="translate(353,401)"/>
</svg>
